<svg width="121" height="46" viewBox="0 0 121 46" fill="none" xmlns="http://www.w3.org/2000/svg">
<g id="access-bank-plc 1">
<path id="Vector" d="M64.1816 10.0595C64.1971 10.0334 64.2149 10.0334 64.2362 10.0595L64.2042 10.0856L64.1816 10.0595Z" fill="white"/>
<g id="Group">
<path id="Vector_2" d="M36.6962 19.2534C37.042 18.2077 37.3698 17.2195 37.6904 16.2396C37.7299 16.1199 37.8101 16.0924 37.9142 16.0733C39.6454 15.7502 41.3838 15.4751 43.1521 15.5624C44.4 15.621 45.6 15.8759 46.6744 16.5459C48.1316 17.4528 48.7981 18.8191 48.8926 20.4941C48.9476 21.4572 48.7909 22.4084 48.6533 23.3511C48.3673 25.2726 48.073 27.1917 47.7966 29.1131C47.7891 29.1937 47.76 29.2708 47.7124 29.3362C47.6649 29.4017 47.6006 29.4532 47.5263 29.4852C46.3992 30.1038 45.1765 30.4424 43.9202 30.6481C42.3656 30.9175 40.7798 30.9578 39.2135 30.7678C37.9082 30.6039 36.6914 30.1983 35.7438 29.2388C35.3326 28.8177 35.0134 28.3158 34.8064 27.7648C34.5995 27.2138 34.5093 26.6259 34.5416 26.0382C34.5738 25.4505 34.7279 24.876 34.994 24.351C35.2601 23.826 35.6323 23.3621 36.0872 22.9886C37.0587 22.1894 38.2073 21.7922 39.4169 21.535C41.2486 21.1473 43.0971 21.2 44.9468 21.3411C45.1777 21.3579 45.2279 21.2873 45.2387 21.0815C45.3212 19.6386 44.455 18.6025 42.9344 18.3238C41.8791 18.1299 40.843 18.2974 39.8069 18.4673C38.7497 18.6413 37.7091 18.9042 36.6962 19.2534ZM43.1665 23.606C42.508 23.6017 41.8503 23.6501 41.1995 23.7507C40.4961 23.8704 39.8129 24.0558 39.2458 24.5224C38.6045 25.0501 38.4334 25.7584 38.5602 26.5384C38.6799 27.2503 39.1776 27.6403 39.8225 27.87C40.118 27.974 40.4256 28.0403 40.7377 28.0675C41.8911 28.1787 43.0109 27.9777 44.1236 27.7025C44.1991 27.6926 44.2683 27.6553 44.3181 27.5978C44.368 27.5402 44.395 27.4664 44.394 27.3903C44.546 26.2597 44.6967 25.1278 44.8642 23.9996C44.8929 23.8046 44.8283 23.7675 44.6656 23.7364C44.17 23.6546 43.6688 23.611 43.1665 23.606Z" fill="white"/>
<path id="Vector_3" d="M90.1098 27.1329C89.9183 27.7144 89.7508 28.2349 89.5738 28.7553C89.4326 29.1824 89.2818 29.606 89.1478 30.0367C89.135 30.1026 89.1029 30.1632 89.0557 30.2109C89.0084 30.2586 88.948 30.2913 88.8822 30.3047C87.0517 30.7928 85.1972 31.0572 83.3069 30.8191C81.1533 30.5475 79.373 29.6227 78.2819 27.6474C77.6107 26.4247 77.3977 25.093 77.4887 23.7207C77.6621 21.1101 78.7497 18.9458 80.7717 17.2696C82.0004 16.2503 83.4337 15.7262 85.0106 15.5707C86.0982 15.4642 87.1797 15.4845 88.241 15.7801C90.4017 16.3783 91.8422 18.0592 92.1186 20.2846C92.2777 21.5636 92.1186 22.8198 91.9116 24.0773C91.8865 24.234 91.8075 24.2388 91.6879 24.2388C91.1076 24.2388 90.5261 24.2388 89.9459 24.2388C87.1542 24.2388 84.3625 24.2388 81.5709 24.2388C81.3459 24.2388 81.2801 24.2938 81.2766 24.5247C81.2454 26.4055 82.2839 27.6474 84.1324 27.9645C85.4987 28.2037 86.828 27.9968 88.1548 27.7072C88.8183 27.5589 89.4714 27.367 90.1098 27.1329ZM85.2284 21.7969H87.9084C88.7267 21.7969 88.7267 21.7969 88.7542 20.9785C88.8104 19.3215 87.7971 18.2411 86.1496 18.149C84.1791 18.0377 82.321 19.465 81.8425 21.5827C81.803 21.7586 81.8425 21.8017 82.0219 21.8005C83.0879 21.7921 84.1516 21.7969 85.2284 21.7969Z" fill="white"/>
<path id="Vector_4" d="M96.9888 30.8669C95.232 30.8553 93.4882 30.5645 91.8226 30.0055C91.6563 29.9481 91.612 29.9002 91.6719 29.7196C91.9454 28.8908 92.2075 28.0581 92.4579 27.2214C92.5201 27.0157 92.5931 27.0324 92.7582 27.1114C94.3579 27.8939 96.1647 28.1486 97.9184 27.8388C98.3298 27.7761 98.7203 27.6162 99.0574 27.3722C99.2134 27.2641 99.3431 27.1224 99.4371 26.9575C99.531 26.7926 99.5868 26.6088 99.6004 26.4195C99.6139 26.2303 99.5849 26.0403 99.5153 25.8638C99.4458 25.6872 99.3376 25.5285 99.1986 25.3993C98.8945 25.1178 98.5531 24.8794 98.184 24.691C97.2687 24.1789 96.3379 23.6992 95.4681 23.1057C93.1315 21.5061 93.4162 18.1764 95.717 16.7156C96.7363 16.0683 97.8526 15.7441 99.0383 15.6209C101.015 15.4163 102.925 15.7549 104.809 16.322C104.981 16.3734 105.025 16.4201 104.959 16.6031C104.676 17.3892 104.402 18.18 104.145 18.9757C104.076 19.185 103.995 19.1695 103.834 19.0953C102.656 18.5395 101.366 18.2612 100.064 18.2817C99.4319 18.2973 98.8157 18.4014 98.2809 18.7747C98.0536 18.9196 97.8801 19.1352 97.7872 19.3883C97.6942 19.6414 97.687 19.918 97.7665 20.1757C97.8695 20.4646 98.064 20.712 98.3204 20.8804C98.8743 21.2967 99.5085 21.5779 100.115 21.9105C100.857 22.298 101.566 22.747 102.233 23.2529C104.204 24.8178 104.005 27.7993 102.113 29.314C100.893 30.2891 99.4642 30.6791 97.9447 30.8179C97.5631 30.8514 97.1838 30.8574 96.9888 30.8669Z" fill="white"/>
<path id="Vector_5" d="M109.893 30.8667C108.16 30.85 106.44 30.5622 104.795 30.0137C104.605 29.9503 104.556 29.894 104.626 29.693C104.897 28.8819 105.153 28.0659 105.402 27.2475C105.462 27.0489 105.521 27.0202 105.715 27.1135C107.308 27.8888 109.104 28.1441 110.85 27.8434C111.224 27.7846 111.583 27.6512 111.904 27.4509C112.697 26.9448 112.794 26.0152 112.124 25.3644C111.843 25.1118 111.531 24.8967 111.195 24.7243C110.238 24.1811 109.243 23.6954 108.343 23.0493C106.264 21.5478 106.523 18.8307 107.793 17.4668C108.65 16.5491 109.732 16.0562 110.932 15.7918C112.524 15.4328 114.115 15.519 115.705 15.8133C116.375 15.9329 117.031 16.1148 117.687 16.2919C117.904 16.3529 117.983 16.4175 117.891 16.6663C117.615 17.4165 117.364 18.175 117.119 18.9396C117.051 19.1489 116.983 19.1788 116.777 19.0891C115.615 18.5434 114.345 18.2658 113.061 18.2767C112.463 18.2875 111.885 18.376 111.363 18.6895C110.869 18.985 110.619 19.4145 110.693 20.0056C110.74 20.3813 110.966 20.6433 111.251 20.8586C111.849 21.3121 112.537 21.6112 113.188 21.9701C113.93 22.3805 114.662 22.8076 115.309 23.3592C117.123 24.9145 116.918 27.7979 115.099 29.2815C114.121 30.0795 112.987 30.4934 111.763 30.7076C111.145 30.8081 110.52 30.8613 109.893 30.8667Z" fill="white"/>
<path id="Vector_6" d="M62.4959 27.3444C62.4348 27.7033 62.2805 28.0252 62.1668 28.3638C61.9503 29.0087 61.7194 29.6475 61.5052 30.2936C61.4895 30.3582 61.4537 30.4162 61.4029 30.4592C61.3522 30.5021 61.2892 30.528 61.2229 30.5329C59.7872 30.7722 58.3359 30.9241 56.8774 30.8141C54.7011 30.6501 52.8347 29.8569 51.5521 28.0025C50.6476 26.696 50.3282 25.2112 50.4084 23.6475C50.5424 21.0393 51.6479 18.9048 53.6854 17.2705C54.8531 16.3349 56.2266 15.8755 57.6898 15.684C59.5011 15.4273 61.3455 15.5376 63.1132 16.0083C63.4506 16.1004 63.776 16.2296 64.1074 16.3373C64.2271 16.3756 64.2582 16.427 64.2139 16.5574C63.9316 17.383 63.6516 18.2109 63.3872 19.0424C63.3286 19.2255 63.246 19.1884 63.1276 19.1417C62.2828 18.7953 61.3882 18.5857 60.4775 18.5208C58.507 18.4095 56.7937 18.9515 55.5638 20.5918C54.4116 22.1292 54.2333 24.6824 55.4669 26.2258C56.2338 27.1829 57.2459 27.6902 58.4472 27.8302C59.7429 27.9809 60.9955 27.7309 62.2326 27.3755C62.3116 27.3528 62.3918 27.3372 62.4719 27.3181L62.4959 27.3444Z" fill="white"/>
<path id="Vector_7" d="M76.1351 27.3281C75.8599 28.1201 75.544 28.9038 75.3179 29.7126C75.154 30.3024 74.8776 30.5824 74.2339 30.647C72.4393 30.8264 70.6447 31.0274 68.85 30.5525C66.0277 29.8023 64.184 27.5506 64.0308 24.6242C63.8633 21.4441 65.0813 18.9029 67.6428 17.0233C68.7196 16.2348 69.9759 15.8615 71.2871 15.6905C73.098 15.4346 74.9417 15.5444 76.7094 16.0135C77.0372 16.1032 77.3518 16.2372 77.6785 16.3317C77.8496 16.382 77.8543 16.4598 77.7981 16.6093C77.5241 17.4097 77.2525 18.2101 76.9977 19.0165C76.9367 19.2091 76.8637 19.202 76.707 19.1421C75.4531 18.6636 74.1705 18.4039 72.8174 18.5439C70.519 18.7904 68.7699 20.3099 68.3284 22.546C68.0101 24.16 68.3021 25.6364 69.5882 26.7789C70.6136 27.6882 71.8614 27.9419 73.1907 27.8641C74.1284 27.8023 75.055 27.6255 75.9496 27.3377C76.0035 27.3281 76.0513 27.2838 76.1351 27.3281Z" fill="white"/>
</g>
<path id="Vector_8" d="M30.5568 24.035L15.6529 9.1311V11.4187L28.2692 24.035L28.274 24.0398L17.3459 34.9679L17.3327 34.9548L6.41172 24.035L6.40215 24.0254L11.7633 18.6642H9.43629L4.07031 24.0302L4.0751 24.035L17.3279 37.2878L17.3327 37.283L30.5688 24.047L30.5568 24.035Z" fill="white"/>
<path id="Vector_9" d="M15.6467 12.9934V15.281L24.4058 24.04L17.3492 31.0965L10.2867 24.0352L10.2771 24.0257L15.6383 18.6645H13.3113L7.94531 24.0304L7.9501 24.0352L16.1803 32.2655L17.3313 33.4164L18.5014 32.2475L26.7005 24.0472L15.6467 12.9934Z" fill="white"/>
<path id="Vector_10" d="M22.8386 24.0353L18.4679 19.6598L17.3049 18.4968L16.1611 19.6407L11.7676 24.0306L16.1635 28.4264L17.3145 29.5774L18.4822 28.4085L22.8506 24.0473L22.8386 24.0353ZM17.3348 27.2659L14.1043 24.0353L14.0947 24.0258L17.3169 20.8036L20.5474 24.0342L17.3348 27.2659Z" fill="white"/>
</g>
</svg>
