<svg width="121" height="46" viewBox="0 0 44 46" fill="none" xmlns="http://www.w3.org/2000/svg">
<g id="Dot Microfinance Bank Logo1 2" clip-path="url(#clip0_1085_7869)">
<path id="Vector" d="M7.11084 24.3974C7.75296 23.708 8.095 22.7918 8.06176 21.8503C8.095 20.9087 7.75296 19.9925 7.11084 19.3031C6.79028 18.9702 6.40291 18.7088 5.97417 18.5361C5.54543 18.3634 5.08502 18.2834 4.62316 18.3013H3.34961V25.378H4.62316C5.08345 25.3986 5.54292 25.3219 5.97157 25.1529C6.40021 24.984 6.78842 24.7265 7.11084 24.3974Z" fill="white"/>
<path id="Vector_2" d="M21.8481 18.535C21.4356 18.5219 21.025 18.5982 20.6447 18.7587C20.2644 18.9191 19.9233 19.16 19.6449 19.4647C19.0937 20.1121 18.791 20.9345 18.791 21.7847C18.791 22.6349 19.0937 23.4574 19.6449 24.1047C19.9318 24.3975 20.2743 24.6301 20.6523 24.7889C21.0302 24.9477 21.4361 25.0294 21.846 25.0294C22.256 25.0294 22.6618 24.9477 23.0398 24.7889C23.4177 24.6301 23.7602 24.3975 24.0471 24.1047C24.6007 23.4585 24.905 22.6356 24.905 21.7847C24.905 20.9338 24.6007 20.1109 24.0471 19.4647C23.7695 19.1601 23.4292 18.9193 23.0496 18.7588C22.67 18.5983 22.2601 18.5219 21.8481 18.535Z" fill="white"/>
<path id="Vector_3" d="M30.0289 18.3481V14.0225H41.9743C40.2796 9.93073 37.4095 6.43343 33.7271 3.97287C30.0446 1.5123 25.7152 0.198975 21.2864 0.198975C16.8576 0.198975 12.5282 1.5123 8.84574 3.97287C5.16331 6.43343 2.29324 9.93073 0.598464 14.0225H5.04721C7.38478 14.0225 9.26531 14.7441 10.6888 16.1874C12.1123 17.6307 12.8198 19.507 12.8113 21.8163C12.8113 24.1284 12.1038 26.0061 10.6888 27.4494C9.2738 28.8927 7.39327 29.6143 5.04721 29.6143H0.0253906C1.12814 32.9581 3.00429 35.9945 5.50137 38.4768C7.99844 40.9591 11.046 42.8172 14.3963 43.9C17.7466 44.9829 21.3051 45.2599 24.7826 44.7087C28.2602 44.1575 31.5586 42.7935 34.4098 40.7277V18.3481H30.0289ZM27.257 27.2966C26.566 28.0276 25.7299 28.6062 24.8022 28.9951C23.8745 29.384 22.8758 29.5747 21.8701 29.5549C20.8637 29.5753 19.8641 29.3849 18.9356 28.996C18.0072 28.607 17.1704 28.0282 16.479 27.2966C15.7641 26.5694 15.202 25.7065 14.8258 24.7588C14.4496 23.811 14.267 22.7975 14.2885 21.7781C14.267 20.7586 14.4496 19.7451 14.8258 18.7974C15.202 17.8496 15.7641 16.9867 16.479 16.2596C17.1707 15.5287 18.0077 14.9507 18.9362 14.5625C19.8646 14.1743 20.864 13.9846 21.8701 14.0055C22.8755 13.9852 23.874 14.1752 24.8017 14.5633C25.7294 14.9515 26.5657 15.5293 27.257 16.2596C27.9726 16.9864 28.5355 17.8491 28.9124 18.7969C29.2893 19.7447 29.4727 20.7583 29.4516 21.7781C29.4743 22.798 29.2918 23.8122 28.9147 24.7602C28.5377 25.7082 27.974 26.5707 27.257 27.2966Z" fill="white"/>
<path id="Vector_4" d="M34.3887 40.7275V40.7372L34.3935 40.7275H34.3887Z" fill="white"/>
<path id="Vector_5" d="M43.2691 18.3481H39.1133V36.1219C41.0153 33.6173 42.3684 30.7401 43.0844 27.6777C43.8005 24.6153 43.8634 21.4365 43.2691 18.3481Z" fill="white"/>
</g>
<defs>
<clipPath id="clip0_1085_7869">
<rect width="43.7006" height="44.866" fill="white" transform="translate(0.0253906 0.20105)"/>
</clipPath>
</defs>
</svg>
