<svg width="214" height="72" viewBox="0 0 214 72" fill="none" xmlns="http://www.w3.org/2000/svg">
<g id="_215841264">
<g id="Group">
<path id="Vector" fillRule="evenodd" clip-rule="evenodd" d="M162.442 30.5406C162.978 25.2736 171.057 23.8899 170.164 30.5406H162.442ZM6.9321 30.5853C7.55699 25.1844 15.5467 23.8899 14.654 30.5406L6.9321 30.5853ZM17.0644 39.8695L14.4309 37.6377C12.4669 38.5304 10.1905 41.1193 7.28918 39.557C5.28058 38.0841 5.41449 36.745 5.95012 34.1561L18.7159 34.0669C21.6172 17.3731 6.26257 20.3637 2.1561 29.7818C-4.67313 45.315 11.0386 47.6807 17.0644 39.8695ZM30.4104 24.1131L29.473 22.9526C29.4284 22.908 29.2498 22.7741 29.1606 22.6848L29.2052 24.9166L30.4104 24.1131ZM48.6216 22.5509L45.6757 22.7741L44.9169 26.3895L47.5057 27.5054C46.7023 31.4334 45.5418 35.4506 44.8723 39.1107C43.8456 45.1365 48.8895 44.2884 53.2637 43.7528L53.9779 39.7356L50.3624 40.0034C50.05 36.4772 52.0586 30.6299 52.6835 26.9698L56.7899 26.7466L57.7273 22.7294H53.9333L55.1384 15.9002L50.1392 15.7663L48.6216 22.5509ZM63.3513 30.5853C63.6638 26.3895 67.2346 25.72 70.7162 26.702L71.0733 30.496L63.3513 30.5853ZM73.439 39.8695C72.3677 38.4858 72.0553 38.3965 70.3591 37.7716C67.0115 40.3158 60.4054 42.012 62.3694 34.1115L75.0458 34.0222C78.1703 17.2392 62.5033 20.5423 58.4861 29.6479C52.0139 44.0652 65.7617 48.4841 73.439 39.8695ZM76.6081 43.6635L81.6965 43.7081C84.5086 29.9604 83.5712 30.0497 89.7309 27.5947C91.4717 26.9252 91.0254 26.702 91.9627 22.4616C88.4365 22.5955 87.4545 23.4882 86.1154 25.4968C85.7584 24.9612 85.7584 25.4968 85.6245 24.4256C85.5798 24.2917 85.7584 23.0419 85.7584 22.8187L81.2502 22.7294L76.6081 43.6635ZM96.9619 38.5304C96.9172 36.8789 98.1224 31.0763 98.658 29.4694C99.7739 26.0324 103.345 25.8985 106.068 27.2822C107.853 33.3527 103.523 44.1991 96.9619 38.5304ZM100.488 23.8453C98.7919 22.2384 98.7027 22.6848 95.1318 22.7294L88.7043 51.2962H93.4803C95.0425 48.5734 94.5516 45.0026 96.1584 42.4137C99.3722 44.1991 102.273 44.824 105.755 42.4583C114.682 36.4772 114.504 16.5251 100.488 23.8453ZM123.074 23.7114L121.645 25.7646L121.735 24.247L121.824 22.8187L117.316 22.7294L112.674 43.6635L117.762 43.7081C118.387 40.2712 119.28 36.6557 120.083 33.1295C120.663 30.6299 120.976 30.2282 122.538 29.1123C123.475 28.3981 123.565 28.3535 124.591 27.9964C124.859 27.9071 125.841 27.6393 125.841 27.6393C127.537 26.9252 127.091 26.702 127.984 22.4616C124.859 22.5955 124.77 23.4882 123.074 23.7114ZM127.002 43.6635H132.135L136.732 22.7741H131.778L127.002 43.6635ZM132.581 18.9354L137.625 18.8908L138.562 14.2933L133.652 14.2487L132.581 18.9354ZM141.597 38.3072L140.303 37.8609L137.045 39.7356C139.187 45.6275 148.248 45.1365 151.596 40.9407C153.47 38.6197 154.14 34.8703 151.73 32.7724C149.275 30.6299 146.597 31.3441 144.811 28.5767C146.15 23.9346 149.81 26.8359 151.596 28.041C152.979 27.3269 154.274 26.5681 155.122 25.3629C149.051 18.2212 138.25 24.7827 140.258 31.2548C142.445 35.5845 145.882 34.0669 148.471 37.1913L148.382 38.9768C146.329 40.5836 143.695 41.2978 141.597 38.3072ZM172.574 39.8695L169.941 37.6377C168.066 38.4858 166.906 40.2712 164.004 39.9587C160.925 39.6017 160.925 36.9235 161.46 34.1561L174.226 34.0669C177.172 16.7482 161.371 20.7208 157.443 30.0943C150.837 46.0292 167.486 47.1897 172.574 39.8695Z" fill="#F8FAFA"/>
<path id="Vector_2" fillRule="evenodd" clip-rule="evenodd" d="M30.4113 24.113L29.2062 24.9165L29.1615 22.6847L25.2336 22.774L20.5469 43.6634H25.6353C26.3495 40.7175 28.0456 29.2015 30.1881 27.6839C31.3933 26.7912 35.7676 24.8272 36.08 28.5766C36.1247 29.38 35.8568 30.2727 35.7229 31.0315L33.0448 43.708L37.9993 43.6634C41.7934 25.7199 45.8998 19.7387 30.4113 24.113Z" fill="#F8FAFA"/>
</g>
<path id="Vector_3" fillRule="evenodd" clip-rule="evenodd" d="M157.4 70.8018C159.454 71.0697 161.239 70.9804 163.203 71.025C166.863 71.025 167.042 71.8731 167.533 68.8379L160.48 68.7932L161.06 65.6241C169.229 65.5795 167.131 66.2937 167.979 64.2404C166.595 62.8121 165.301 63.5262 161.685 63.3477L162.132 60.7588C169.586 60.7588 168.649 61.473 169.14 58.6163H160.034L157.4 70.8018Z" fill="#F8FAFA"/>
<path id="Vector_4" fillRule="evenodd" clip-rule="evenodd" d="M145.525 70.8466L147.623 71.0251C148.65 69.4629 148.962 67.5435 149.141 65.6242C156.461 65.6242 155.211 66.2937 155.658 63.4371L149.766 63.3924L150.257 60.7589C157.265 60.7589 156.283 61.3838 156.729 58.6164L148.159 58.5718L145.525 70.8466Z" fill="#F8FAFA"/>
<path id="Vector_5" fillRule="evenodd" clip-rule="evenodd" d="M127.895 70.7572L136.777 70.9804L137.179 69.0164L130.93 68.7486L133.072 58.661L130.93 58.6163C129.368 60.8481 128.564 67.7666 127.895 70.7572Z" fill="#F8FAFA"/>
<path id="Vector_6" fillRule="evenodd" clip-rule="evenodd" d="M139.277 70.9805C142.625 70.9358 141.464 72.4534 142.937 65.8027C143.428 63.4817 144.143 60.8928 144.41 58.5718C140.973 58.5718 141.955 58.661 140.75 64.1066C140.259 66.383 139.768 68.6148 139.277 70.9805Z" fill="#F8FAFA"/>
<g id="Group_2">
<path id="Vector_7" fillRule="evenodd" clip-rule="evenodd" d="M205.072 21.2564C205.519 20.9886 206.144 20.7208 206.635 20.5422L206.233 16.0787C206.769 16.8821 208.197 18.0873 209 19.2478C209.402 19.7834 210.072 20.7654 210.161 21.3457C210.92 25.3182 205.34 23.8899 203.644 22.1938L204.314 21.6581C204.447 21.5689 204.938 21.3457 205.072 21.2564ZM190.477 16.6589C190.655 19.6495 191.726 20.0066 193.11 21.7028C194.851 21.9259 201.055 23.4882 203.064 24.0238C205.429 24.6933 209.804 30.5406 212.259 26.3002C212.571 25.8092 212.482 25.7646 212.794 25.229C213.419 24.1131 213.375 24.5594 213.999 23.3096C213.285 21.1671 209 16.7036 207.304 14.9628C205.117 12.7756 201.412 9.42798 200.296 7.0623C198.6 6.03568 199.404 5.85714 197.44 5.8125V5.99104C198.556 8.49063 197.663 8.17819 197.931 10.901C200.564 12.0168 200.653 10.9902 201.993 13.3113C202.93 14.9182 203.465 16.3465 203.465 18.4444C199.225 21.792 194.137 19.4264 190.477 16.6589Z" fill="white"/>
<path id="Vector_8" fillRule="evenodd" clip-rule="evenodd" d="M145.44 7.99981H143.029C138.521 7.73199 135.174 7.91053 131.781 9.74059C146.243 9.38351 147.448 14.5612 158.786 18.3553C161.419 19.248 165.213 16.9269 166.775 15.4093C161.642 14.7844 160.169 14.1595 155.84 12.1063C154.054 11.2582 146.243 8.71398 145.44 7.99981Z" fill="white"/>
<path id="Vector_9" fillRule="evenodd" clip-rule="evenodd" d="M161.107 7.10692C169.231 9.02625 168.829 9.42797 177.489 7.82108L187.398 6.2142C185.88 5.90176 184.407 4.47342 181.729 3.98243C178.56 3.4468 176.641 2.77727 174.186 2.28627C168.472 1.21502 166.196 3.58071 161.107 7.10692Z" fill="white"/>
<path id="Vector_10" fillRule="evenodd" clip-rule="evenodd" d="M146.242 7.46405C146.376 7.55332 146.555 7.55332 146.599 7.73186C146.689 7.91041 146.867 7.91041 147.001 7.95504L150.616 8.66921C158.249 10.4993 163.65 17.6856 172.086 12.5079C174.095 11.3027 177.71 9.47265 179.317 8.31213L177.398 7.99968C176.728 8.5353 177.398 8.22285 176.327 8.66921L173.425 9.51729C169.81 10.4546 165.569 10.1422 162.088 8.57994C160.258 7.7765 161.061 8.04431 160.526 7.59796L151.822 5.58936L151.375 6.08035C152.179 7.24087 152.179 7.28551 153.741 7.99968L146.242 7.46405Z" fill="white"/>
<path id="Vector_11" fillRule="evenodd" clip-rule="evenodd" d="M195.565 6.48206C196.146 5.05372 196.324 5.14299 196.637 3.8932C197.083 2.55413 197.083 3.44684 196.235 3.00048C195.878 3.22366 195.253 3.53611 194.717 3.80393C180.121 -2.44506 188.424 1.2597 179.63 0.902612C177.086 0.813341 175.926 1.08115 173.471 0.500892C174.676 2.95585 180.3 2.6434 183.291 3.49148C187.754 4.78591 189.272 7.06232 193.601 5.05372L195.565 6.48206Z" fill="white"/>
<path id="Vector_12" fillRule="evenodd" clip-rule="evenodd" d="M174.945 43.2172L175.302 43.5297C177.311 42.0121 176.999 42.0121 178.114 39.6017C179.007 37.7717 179.498 36.2987 180.078 34.5133C180.837 32.2369 182.355 25.8094 183.471 24.381C184.408 20.6763 187.265 16.6591 189.318 15.1415C189.764 14.2041 189.943 13.9809 190.478 13.0436C185.569 14.6951 182.801 20.5424 180.926 26.1664C178.784 32.6832 177.668 37.5485 174.945 43.2172Z" fill="white"/>
<path id="Vector_13" fillRule="evenodd" clip-rule="evenodd" d="M185.254 22.8188L185.432 22.9527C187.352 22.1939 186.191 22.1493 188.557 21.9261L189.762 21.1226C189.851 21.0334 190.03 20.8995 190.119 20.8102C190.208 20.7209 190.387 20.587 190.521 20.4531C189.271 19.4711 189.673 20.1853 189.36 18.4445L188.244 17.4625C187.039 18.757 185.477 20.8102 185.254 22.8188Z" fill="white"/>
<path id="Vector_14" fillRule="evenodd" clip-rule="evenodd" d="M199.809 3.40235C199.228 4.33969 199.764 4.02724 198.604 4.96459C199.719 5.67876 199.273 5.58949 200.612 5.94657C201.058 4.51824 201.773 3.40235 202.308 2.24182L199.809 3.40235Z" fill="white"/>
<path id="Vector_15" fillRule="evenodd" clip-rule="evenodd" d="M196.236 3.00054C197.084 3.4469 197.084 2.55419 196.638 3.89326C197.441 3.89326 197.218 4.11643 197.308 3.31299C198.066 1.39366 197.218 2.77737 198.914 2.10783V3.17909L199.896 0.991943C198.736 1.21512 198.334 0.991943 197.084 2.01856C195.924 2.95591 196.906 2.24174 196.236 3.00054Z" fill="white"/>
</g>
</g>
</svg>
