<svg width="121" height="46" viewBox="0 0 147 46" fill="none" xmlns="http://www.w3.org/2000/svg">
<g id="FBG 1" clip-path="url(#clip0_1085_7812)">
<g id="Layer 2">
<g id="Layer 1">
<path id="Vector" d="M63.5045 22.4808C63.8098 14.6356 67.1598 7.97586 74.3136 3.59996C78.8993 0.841386 84.3663 -0.0632784 89.5973 1.07085C94.8283 2.20497 99.4284 5.29226 102.457 9.70181C109.332 19.5519 107.561 33.2375 98.5403 40.5946C87.1118 49.9478 70.6233 45.2581 65.1533 31.6249C64.043 28.7048 63.4839 25.6044 63.5045 22.4808ZM85.0529 27.0311C88.5425 27.0311 91.9537 27.0311 95.4084 27.0311C96.2808 27.0311 96.5774 26.7434 96.56 25.8717C96.5076 23.9278 96.5164 21.9752 96.56 20.0226C96.56 19.2556 96.2808 18.9766 95.5218 18.9766C88.5891 18.9766 81.6534 18.9766 74.7149 18.9766C73.8425 18.9766 73.6331 19.3427 73.6418 20.1185C73.6418 22.0014 73.6942 23.8842 73.6418 25.7584C73.6418 26.7172 73.9559 27.0485 74.9155 27.0398C78.283 27.0049 81.668 27.0311 85.0529 27.0311ZM85.0529 17.7388C88.4728 17.7388 91.8839 17.7388 95.3037 17.7388C96.1761 17.7388 96.56 17.486 96.5338 16.5533C96.4698 14.6705 96.4698 12.7876 96.5338 10.9047C96.5338 9.97203 96.2197 9.71053 95.3212 9.71924C90.6451 9.71924 85.9777 9.71924 81.3016 9.71924C79.4713 9.75741 77.7119 10.4334 76.3275 11.6304C74.9432 12.8273 74.021 14.47 73.7203 16.2744C73.511 17.4947 73.7203 17.7039 74.8981 17.7039L85.0529 17.7388ZM81.3016 28.1991C79.1031 28.1991 76.9395 28.1991 74.7149 28.1991C73.9123 28.1991 73.5982 28.5042 73.6157 29.3149C73.6157 31.2588 73.6157 33.2114 73.6157 35.1552C73.6157 35.9659 73.8948 36.2797 74.7062 36.271C76.8348 36.271 78.9548 36.271 81.0835 36.271C82.9837 36.2777 84.8209 35.5903 86.2493 34.3381C87.6776 33.0859 88.5987 31.3552 88.8392 29.4718C88.9875 28.5129 88.6909 28.2078 87.7748 28.2166C85.6374 28.2253 83.4826 28.1991 81.3277 28.1991H81.3016Z" fill="white"/>
<path id="Vector_2" d="M15.1902 28.7137C12.2936 28.7137 12.7211 28.9316 13.2882 26.2641C13.7506 24.0586 14.2392 21.8531 14.6405 19.6302C14.7801 18.8631 15.1029 18.5231 15.8707 18.5667C16.7412 18.637 17.6148 18.6632 18.488 18.6452C21.2537 18.5057 22.6845 20.8768 22.0912 23.5879C21.3148 27.0922 19.1249 28.7137 15.1902 28.7137ZM15.7311 26.482C16.4471 26.6746 17.2103 26.5764 17.8543 26.209C18.4982 25.8416 18.9706 25.2347 19.1685 24.5206C19.5786 23.5094 19.9799 22.4023 19.1685 21.4608C18.682 21.0325 18.07 20.7726 17.4236 20.7199C17.2491 20.7199 16.8304 21.3562 16.7344 21.7572C16.368 23.2915 16.0713 24.8606 15.7311 26.482Z" fill="white"/>
<path id="Vector_3" d="M26.052 22.5244C26.9244 22.5244 27.7969 22.4721 28.6082 22.5244C28.9311 22.5244 29.4807 22.908 29.4807 23.0823C29.4807 23.6489 29.5505 24.4335 28.6606 24.5381C28.1375 24.5643 27.6133 24.5643 27.0902 24.5381C25.3453 24.5381 25.3453 24.5381 25.2668 26.4908C26.3661 26.4908 27.4566 26.4908 28.5559 26.4908C29.0183 26.4908 29.7512 26.2641 29.6726 27.1359C29.6028 27.8245 29.6726 28.6788 28.521 28.6614C26.7063 28.6614 24.9003 28.6614 23.0856 28.6614C22.4313 28.6614 22.2132 28.4086 22.3528 27.7897C22.9344 25.0001 23.5161 22.2048 24.0977 19.4036C24.2373 18.7062 24.6561 18.5319 25.2929 18.5319C26.968 18.5319 28.6431 18.5319 30.3095 18.5319C30.6672 18.5319 31.3303 18.9329 31.3128 19.0462C31.1907 19.6913 31.435 20.6589 30.3182 20.7025C29.4458 20.7025 28.5733 20.7025 27.7009 20.7025C26.2788 20.7896 26.2788 20.7809 26.052 22.5244Z" fill="white"/>
<path id="Vector_4" d="M4.74845 22.7596C5.5591 22.7111 6.37193 22.7111 7.18258 22.7596C7.52283 22.7596 8.12482 23.1954 8.05503 23.3611C7.98523 23.9364 8.12482 24.7994 7.12151 24.8256C6.49687 24.8648 5.87038 24.8648 5.24574 24.8256C4.29477 24.7123 3.92834 25.1568 3.82365 26.0286C3.74513 26.6475 3.58809 27.2577 3.4485 27.8679C3.26528 28.6525 2.57605 28.9053 1.41569 28.6699C0.543245 28.4869 0.953296 27.8854 1.04927 27.4408C1.60763 24.8779 2.18345 22.2976 2.64585 19.7434C2.65048 19.572 2.69228 19.4036 2.76837 19.2499C2.84445 19.0961 2.953 18.9607 3.08654 18.853C3.22007 18.7453 3.37541 18.6678 3.54183 18.6258C3.70825 18.5839 3.88179 18.5785 4.05049 18.6101C5.69069 18.6101 7.33089 18.6101 8.96237 18.6101C9.30263 18.6101 9.93079 19.0547 9.90462 19.1768C9.78247 19.787 10.018 20.711 8.9711 20.7633C8.14227 20.8069 7.30472 20.7633 6.46717 20.7633C4.83569 20.7807 4.79207 20.833 4.74845 22.7596Z" fill="white"/>
<path id="Vector_5" d="M117.88 23.1434C118.063 23.3178 118.211 23.466 118.359 23.588C118.817 23.9471 119.147 24.4422 119.304 25.0017C119.461 25.5612 119.436 26.156 119.232 26.7001C119.077 27.2618 118.744 27.7582 118.284 28.115C117.823 28.4718 117.258 28.6696 116.676 28.6789C115.349 28.7574 114.058 28.6789 112.697 28.6789C112.121 28.6789 111.895 28.4087 111.895 27.8508C111.895 24.945 111.895 22.0189 111.895 19.0724C111.895 18.4186 112.226 18.2007 112.767 18.2007C113.954 18.2007 115.14 18.2007 116.327 18.2007C116.837 18.1628 117.347 18.2853 117.785 18.5509C118.223 18.8166 118.567 19.2123 118.769 19.6827C119.01 20.1755 119.083 20.7332 118.977 21.2713C118.872 21.8093 118.594 22.2983 118.185 22.664C118.073 22.8173 117.971 22.9775 117.88 23.1434ZM113.334 25.5756C113.286 25.9897 113.286 26.408 113.334 26.8221C113.386 27.0488 113.692 27.3801 113.884 27.3888C114.785 27.4092 115.686 27.3597 116.58 27.2406C116.934 27.2031 117.26 27.0311 117.49 26.7601C117.721 26.4891 117.838 26.1399 117.818 25.7848C117.818 24.9131 117.548 24.2157 116.667 24.0413C115.846 23.92 115.019 23.8473 114.189 23.8234C113.491 23.7536 113.238 24.0849 113.317 24.7474C113.352 25.0177 113.334 25.2966 113.334 25.5756ZM115.288 19.4734C113.325 19.4734 113.325 19.4734 113.334 21.1646C113.285 21.4385 113.285 21.7188 113.334 21.9927C113.439 22.2281 113.7 22.5507 113.901 22.5594C114.699 22.5929 115.499 22.5608 116.292 22.4635C116.476 22.4461 116.655 22.3922 116.819 22.3049C116.982 22.2176 117.127 22.0987 117.243 21.9551C117.36 21.8115 117.448 21.646 117.5 21.4684C117.552 21.2908 117.569 21.1045 117.548 20.9205C117.548 20.0488 116.955 19.6391 116.143 19.5257C115.859 19.4991 115.574 19.4904 115.288 19.4996V19.4734Z" fill="white"/>
<path id="Vector_6" d="M130.696 20.7287V26.7175C130.696 27.0313 130.696 27.3451 130.696 27.6502C130.696 28.1384 130.775 28.705 130.042 28.7312C129.309 28.7573 129.361 28.1907 129.361 27.7025C129.361 26.2729 129.361 24.8433 129.361 23.4136C129.361 22.1234 129.318 20.7984 129.361 19.5518C129.361 19.1421 129.588 18.497 129.867 18.3924C130.017 18.3187 130.18 18.2755 130.347 18.2655C130.513 18.2554 130.68 18.2787 130.838 18.3338C130.996 18.389 131.141 18.4751 131.265 18.5869C131.388 18.6988 131.489 18.8342 131.56 18.9852C132.659 20.964 133.793 22.9167 134.919 24.8781C135.102 25.2331 135.376 25.5337 135.713 25.7499C135.713 23.8233 135.713 21.8881 135.713 19.9528C135.651 19.6127 135.651 19.2643 135.713 18.9242C135.781 18.7875 135.878 18.667 135.997 18.5707C136.116 18.4745 136.254 18.4048 136.402 18.3663C136.541 18.3663 136.89 18.7237 136.925 18.9591C136.964 19.5396 136.964 20.122 136.925 20.7025C136.925 22.969 136.925 25.2268 136.925 27.4933C136.832 27.9177 136.663 28.3221 136.428 28.6876C135.992 28.4348 135.372 28.2866 135.137 27.9118C133.758 25.654 132.467 23.3352 131.141 21.0512C131.071 20.8981 130.986 20.7522 130.888 20.6153L130.696 20.7287Z" fill="white"/>
<path id="Vector_7" d="M54.6404 22.1755L56.4464 19.6039C57.2403 18.4793 57.694 18.3311 59.2207 18.8019C59.0815 19.0663 58.9271 19.3224 58.7583 19.569C58.2087 20.3361 57.694 21.1207 57.0832 21.8268C55.6362 23.3936 54.7204 25.3763 54.4659 27.4931C54.4322 27.7465 54.3367 27.9878 54.1878 28.1957C54.0389 28.4036 53.8412 28.5718 53.612 28.6854C53.3828 28.7991 53.1292 28.8547 52.8734 28.8475C52.6176 28.8402 52.3676 28.7702 52.1452 28.6437C51.9969 28.574 51.9183 28.3474 51.8398 28.173C51.8066 28.074 51.8066 27.9669 51.8398 27.8679C53.0002 25.1132 52.0143 22.5765 51.1244 20.0223C50.9848 19.6213 50.3305 18.9762 51.2466 18.6363C52.1626 18.2963 53.4888 18.6363 53.7418 19.3772C53.9948 20.1182 54.3001 21.0684 54.6404 22.1755Z" fill="white"/>
<path id="Vector_8" d="M45.1135 20.9551C44.7122 20.9116 44.4417 20.9028 44.18 20.8505C43.6827 20.7459 42.88 21.1992 42.8887 20.1619C42.8887 18.9502 43.2115 18.5753 44.2759 18.5753C46.0208 18.5753 47.7657 18.5753 49.5106 18.5753C49.8509 18.5753 50.479 19.0025 50.4529 19.1332C50.3482 19.7522 50.5401 20.8767 49.5804 20.7634C47.5738 20.5106 47.4516 21.8182 47.1986 23.1694C46.9456 24.5205 46.6228 26.0984 46.3262 27.528C46.261 27.7696 46.1422 27.9934 45.9786 28.1828C45.815 28.3722 45.6107 28.5224 45.381 28.622C45.1513 28.7217 44.9021 28.7684 44.6519 28.7586C44.4016 28.7488 44.1569 28.6827 43.9357 28.5654C43.7612 28.4346 43.735 27.9464 43.7961 27.6936C44.1887 25.6799 44.6162 23.675 45.035 21.67C45.0611 21.4869 45.0699 21.2864 45.1135 20.9551Z" fill="white"/>
<path id="Vector_9" d="M142.893 23.2306C141.662 24.6603 140.275 25.7586 140.624 27.7636C140.594 27.95 140.52 28.1265 140.408 28.2782C140.295 28.4299 140.148 28.5524 139.979 28.6354C139.315 28.7923 139.193 28.2518 139.193 27.7113C139.193 24.8869 139.193 22.0654 139.193 19.2468C139.193 18.7063 139.272 18.2443 139.97 18.2617C140.668 18.2792 140.668 18.8022 140.668 19.3078C140.634 20.7322 140.707 22.1571 140.886 23.5706C141.226 23.1609 141.575 22.7686 141.898 22.3502C142.77 21.1908 143.704 20.0401 144.585 18.8632C144.681 18.709 144.809 18.5765 144.959 18.4743C145.11 18.3721 145.28 18.3023 145.459 18.2695C145.638 18.2367 145.822 18.2415 145.999 18.2837C146.176 18.3259 146.342 18.4045 146.487 18.5145C145.833 19.3863 145.248 20.258 144.594 21.0077C144.344 21.2472 144.189 21.5691 144.159 21.9137C144.128 22.2584 144.224 22.6024 144.428 22.8819C145.3 24.39 146.094 25.9417 146.871 27.5021C146.978 27.8549 147.022 28.2237 147.002 28.5918C146.522 28.4349 145.833 28.4261 145.597 28.0949C145.015 27.1856 144.494 26.2392 144.035 25.2618C143.686 24.6428 143.32 23.989 142.893 23.2306Z" fill="white"/>
<path id="Vector_10" d="M33.38 26.5169C34.3572 26.5169 35.2122 26.5169 36.0759 26.5169C36.5383 26.5169 37.2014 26.4122 37.0618 27.1881C36.9484 27.7983 37.0618 28.7049 36.0236 28.7049H31.2164C30.6842 28.7049 30.4224 28.4608 30.5359 27.9203C31.1291 25.0262 31.7224 22.1233 32.3593 19.203C32.4901 18.5841 33.5458 18.3313 34.4182 18.5754C35.2907 18.8194 34.7934 19.3686 34.7149 19.7871C34.3572 21.5916 33.9559 23.396 33.5807 25.2005C33.5022 25.6015 33.4586 25.9764 33.38 26.5169Z" fill="white"/>
<path id="Vector_11" d="M128.191 28.2867C128.078 28.3913 127.903 28.679 127.773 28.6616C127.397 28.6093 126.9 28.5308 126.717 28.278C126.377 27.7201 126.307 27.014 125.993 26.4386C125.818 26.1161 125.382 25.9243 125.042 25.7064C124.946 25.6366 124.771 25.7064 124.632 25.7064C122.32 25.7064 122.32 25.7064 121.552 27.8334C121.5 27.9642 121.508 28.1647 121.412 28.217C121.132 28.3928 120.841 28.55 120.54 28.6877C120.47 28.4 120.269 28.0775 120.348 27.816C121.107 25.3141 121.918 22.8297 122.721 20.3452C122.816 19.8672 122.974 19.404 123.192 18.9679C123.303 18.7971 123.447 18.651 123.617 18.5385C123.787 18.426 123.978 18.3496 124.178 18.3141C124.383 18.3272 124.582 18.3895 124.759 18.4957C124.935 18.602 125.083 18.7489 125.19 18.9243C126.22 21.9231 127.171 24.948 128.139 27.9642C128.122 28.0252 128.13 28.0949 128.191 28.2867ZM125.417 24.4424C124.955 22.9953 124.544 21.7313 124.047 20.1447C123.524 21.7574 123.114 23.0476 122.66 24.4424H125.417Z" fill="white"/>
<path id="Vector_12" d="M38.718 28.7137C37.9939 28.8008 37.5315 28.5916 37.7496 27.6153C38.3603 24.8693 38.9187 22.1146 39.5469 19.3687C39.594 19.2028 39.6793 19.0502 39.7959 18.923C39.9126 18.7959 40.0573 18.6978 40.2186 18.6364C40.8049 18.5958 41.3939 18.6487 41.9635 18.7933C42.0333 18.7933 42.0682 19.2989 42.0159 19.5605C41.4401 22.35 40.8206 25.1308 40.271 27.9204C40.0616 28.8357 39.4334 28.7049 38.718 28.7137Z" fill="white"/>
<path id="Vector_13" d="M10.0604 28.9401C8.62955 28.7135 8.56848 28.6699 8.80404 27.4931C9.35077 24.9069 9.89169 22.3237 10.4268 19.7434C10.4704 19.5 10.5717 19.2706 10.722 19.0743C10.8723 18.878 11.0674 18.7204 11.291 18.6146C11.5147 18.5089 11.7604 18.458 12.0076 18.4663C12.2549 18.4746 12.4966 18.5419 12.7126 18.6624C12.815 18.7516 12.8952 18.8635 12.9467 18.9891C12.9982 19.1147 13.0196 19.2506 13.0092 19.386C12.4421 22.254 11.8663 25.1132 11.1945 27.9464C11.0986 28.3474 10.4966 28.6089 10.0604 28.9401Z" fill="white"/>
</g>
</g>
</g>
<defs>
<clipPath id="clip0_1085_7812">
<rect width="146.1" height="44.8654" fill="white" transform="translate(0.900391 0.567261)"/>
</clipPath>
</defs>
</svg>
