<svg width="121" height="46" viewBox="0 0 46 45" fill="none" xmlns="http://www.w3.org/2000/svg">
<g id="fidelity-bank-nigeria 1" clip-path="url(#clip0_1085_7631)">
<g id="Group">
<path id="Vector" d="M6.02851 41.1814H4.29077L4.31321 40.3464V35.1292C4.31069 34.8948 4.29571 34.6607 4.26834 34.4279C4.25713 34.3168 4.23257 34.2074 4.1952 34.1021C4.1502 34.0141 4.09798 33.9299 4.03906 33.8504L4.1288 33.6113H6.05274L8.17321 33.5776C8.30645 33.7759 8.38676 34.005 8.40652 34.243C8.43196 34.4849 8.4022 34.7295 8.31948 34.9582H8.05521C8.02111 34.7949 7.89548 34.6558 7.67831 34.541C7.46475 34.4269 7.22833 34.3622 6.98645 34.3516L5.97377 34.3067C5.92472 35.1826 5.90034 36.0527 5.90064 36.9172H7.34046C7.45652 36.9172 7.54625 36.9154 7.60967 36.9118C7.68977 36.9041 7.76843 36.8853 7.84343 36.8561C7.93079 36.8253 8.01041 36.7759 8.07674 36.7112C8.1015 36.8396 8.11457 36.9699 8.11578 37.1007C8.11578 37.5721 7.76521 37.8078 7.06407 37.8078C6.92139 37.8078 6.71888 37.8041 6.45656 37.7966C6.19423 37.7891 6.00488 37.7854 5.88853 37.7854C5.88494 38.2789 5.89062 38.8208 5.90558 39.4109L5.92218 40.3016L5.95044 40.6578C5.95612 40.8348 5.98232 41.0105 6.02851 41.1814Z" fill="white"/>
<path id="Vector_2" d="M11.1708 38.6992C11.1708 39.7605 11.2121 40.588 11.2946 41.1817H9.67939L9.7413 37.2966C9.74366 37.0844 9.7229 36.8726 9.67939 36.6649C9.65278 36.5223 9.60531 36.3844 9.5385 36.2557C9.49188 36.1739 9.43302 36.0998 9.36396 36.0358C9.32191 35.993 9.27252 35.958 9.21814 35.9326C9.19635 35.9243 9.17358 35.9187 9.15039 35.916V35.7101C9.5898 35.4427 10.0045 35.309 10.3946 35.309C10.9498 35.309 11.2272 35.6707 11.2269 36.3943C11.2269 36.5056 11.2176 36.6939 11.1991 36.9592C11.1802 37.2248 11.1708 37.4312 11.1708 37.5797V38.6992ZM9.54523 33.8507C9.5434 33.7453 9.56356 33.6406 9.60442 33.5433C9.64529 33.4461 9.70596 33.3584 9.78258 33.2859C9.85694 33.2111 9.94561 33.1521 10.0433 33.1124C10.141 33.0727 10.2456 33.0531 10.3511 33.0548C10.4525 33.0538 10.5531 33.0738 10.6465 33.1136C10.7398 33.1533 10.8239 33.212 10.8935 33.2859C10.9678 33.3597 11.0263 33.4478 11.0655 33.5449C11.1046 33.642 11.1237 33.7461 11.1214 33.8507C11.1228 33.9514 11.1033 34.0512 11.064 34.1439C11.0248 34.2366 10.9667 34.3201 10.8935 34.3892C10.8229 34.4612 10.7384 34.5182 10.6452 34.5567C10.552 34.5953 10.4519 34.6146 10.3511 34.6135C10.1393 34.6171 9.93484 34.5364 9.78258 34.3892C9.70707 34.3214 9.64685 34.2383 9.60593 34.1455C9.56501 34.0527 9.54431 33.9522 9.54523 33.8507Z" fill="white"/>
<path id="Vector_3" d="M18.427 40.7384V40.9887C17.9732 41.2185 17.5514 41.3335 17.1617 41.3338C16.9649 41.329 16.7728 41.2723 16.6049 41.1696C16.4174 41.0645 16.2692 40.9014 16.1827 40.7047C15.6843 41.1235 15.1669 41.3329 14.6302 41.3329C14.3334 41.3347 14.0388 41.2819 13.7611 41.1772C13.4837 41.0697 13.2296 40.9098 13.0127 40.7061C12.7857 40.4967 12.6062 40.211 12.4743 39.8491C12.3424 39.4871 12.2767 39.0684 12.2773 38.5928C12.2779 38.2776 12.3166 37.9636 12.3927 37.6577C12.4711 37.3437 12.5919 37.0418 12.7516 36.7604C12.907 36.4797 13.1006 36.2219 13.3268 35.9945C13.5591 35.7656 13.8343 35.5849 14.1367 35.4628C14.4609 35.3292 14.8086 35.2618 15.1592 35.2645C15.3428 35.2681 15.5255 35.2897 15.7048 35.3291C15.9142 35.3715 16.0189 35.4003 16.0189 35.4152C16.0189 35.1813 16.017 34.9652 16.0131 34.7669C16.0092 34.5686 16.0036 34.3876 15.9965 34.224C15.9906 34.0775 15.9746 33.9316 15.9485 33.7874C15.928 33.6727 15.8951 33.5606 15.8502 33.4531C15.8116 33.3613 15.7534 33.279 15.6795 33.2121C15.6056 33.1453 15.5179 33.0955 15.4226 33.0664V32.8604L15.5801 32.777C15.7213 32.7032 15.8703 32.6453 16.0243 32.6042C16.2032 32.5505 16.3889 32.5224 16.5757 32.5208C16.7159 32.5177 16.8558 32.5328 16.9921 32.5656C17.1035 32.5973 17.2051 32.6568 17.2873 32.7384C17.3853 32.8423 17.4524 32.9714 17.4811 33.1112C17.5273 33.3172 17.5485 33.5279 17.5444 33.7389V33.8839C17.5444 33.9509 17.5351 34.2032 17.5166 34.6408C17.4981 35.0784 17.4782 35.6153 17.4569 36.2516C17.4363 36.8863 17.426 37.4783 17.426 38.0274C17.426 38.343 17.4278 38.6018 17.4313 38.8037C17.4349 39.0056 17.4426 39.2079 17.4542 39.4107C17.4612 39.5699 17.4761 39.7287 17.4991 39.8863C17.518 40.0023 17.5453 40.1167 17.5808 40.2287C17.6043 40.3184 17.6453 40.4025 17.7015 40.4763C17.7526 40.5336 17.8124 40.5825 17.8787 40.6213C17.952 40.666 18.0332 40.6965 18.1178 40.711C18.2202 40.727 18.3234 40.7361 18.427 40.7384ZM15.2265 40.51C15.5304 40.51 15.7798 40.4413 15.9745 40.304L15.9861 38.9957V36.1555C15.5734 36.0553 15.2659 36.0052 15.0637 36.0052C14.838 36.0016 14.6184 36.0786 14.4445 36.2224C14.264 36.3735 14.1262 36.5692 14.0447 36.79C13.9561 37.0176 13.8903 37.2534 13.8482 37.494C13.8071 37.7292 13.7864 37.9676 13.7863 38.2065C13.7863 38.93 13.9194 39.4949 14.1856 39.9011C14.4518 40.3073 14.7988 40.5098 15.2265 40.5086V40.51Z" fill="white"/>
<path id="Vector_4" d="M23.4783 38.0024L23.3764 38.0451C23.1853 38.1195 22.9265 38.1568 22.6002 38.1568L20.0467 38.1231C20.0539 38.2084 20.058 38.3497 20.058 38.5462C20.0726 39.099 20.2404 39.5327 20.5614 39.8474C20.8823 40.1621 21.2395 40.3199 21.6328 40.3208C21.9873 40.3177 22.337 40.2389 22.6585 40.0897C23.0055 39.9339 23.3101 39.663 23.5725 39.2771C23.6362 39.5038 23.6362 39.7437 23.5725 39.9703C23.5112 40.1867 23.3961 40.384 23.2378 40.5438C23.068 40.7129 22.8736 40.8554 22.6612 40.9664C22.4306 41.0893 22.1846 41.1811 21.9299 41.2392C21.6699 41.2996 21.4039 41.3297 21.137 41.329C20.8124 41.3318 20.4898 41.278 20.1836 41.1701C19.8884 41.064 19.6166 40.9017 19.3831 40.6923C19.1438 40.4793 18.9536 40.1927 18.8124 39.8326C18.6712 39.4725 18.599 39.0586 18.5957 38.5911C18.5957 37.9791 18.7016 37.4244 18.9134 36.9269C19.1251 36.4295 19.4313 36.0356 19.8318 35.7451C20.2285 35.4548 20.7088 35.3015 21.2003 35.3081C21.475 35.3045 21.7487 35.3411 22.0129 35.4167C22.2249 35.475 22.4262 35.567 22.6092 35.689C22.7656 35.7999 22.9021 35.9364 23.013 36.0928C23.116 36.232 23.2027 36.3826 23.2714 36.5415C23.3326 36.6931 23.3777 36.8507 23.406 37.0117C23.4327 37.1479 23.4525 37.2854 23.4652 37.4236C23.4729 37.5259 23.4765 37.6305 23.4765 37.7377L23.4783 38.0024ZM21.1272 36.004C20.9808 36.0017 20.8374 36.0445 20.7162 36.1265C20.5869 36.2191 20.4826 36.3425 20.4129 36.4854C20.3299 36.6436 20.2612 36.8087 20.2074 36.979C20.1462 37.1791 20.0964 37.3825 20.0584 37.5883C20.2798 37.5847 20.6134 37.5736 21.0594 37.5551C21.5054 37.5366 21.8504 37.5253 22.0945 37.5214C22.091 37.3426 22.0703 37.1646 22.0326 36.9898C21.9963 36.8212 21.9397 36.6578 21.8639 36.5029C21.7948 36.3578 21.6903 36.2324 21.5601 36.1382C21.4337 36.0486 21.2821 36.0016 21.1272 36.004Z" fill="white"/>
<path id="Vector_5" d="M26.4202 41.1816H24.805C24.8274 40.015 24.8386 38.9352 24.8386 37.9421L24.8669 34.363C24.8669 33.9879 24.806 33.6887 24.6843 33.4656C24.5626 33.2424 24.4269 33.109 24.2773 33.0654V32.8594L24.4348 32.776C24.5801 32.7025 24.7328 32.6446 24.8902 32.6032C25.073 32.5494 25.2624 32.5213 25.4529 32.5198C25.8118 32.5198 26.0594 32.6127 26.1955 32.7984C26.3316 32.9842 26.399 33.2698 26.3978 33.6554C26.3978 33.8893 26.3866 34.1566 26.3642 34.4572C26.3163 35.2702 26.2924 36.2685 26.2924 37.4521V38.905C26.2924 39.3204 26.3018 39.723 26.3206 40.1128C26.3358 40.4705 26.369 40.8272 26.4202 41.1816Z" fill="white"/>
<path id="Vector_6" d="M29.5024 38.6992C29.5024 39.7605 29.5437 40.588 29.6262 41.1817H28.011L28.0733 37.2966C28.0758 37.0844 28.0549 36.8725 28.011 36.6649C27.9847 36.5223 27.9374 36.3844 27.8705 36.2557C27.8239 36.1739 27.7651 36.0998 27.696 36.0358C27.6539 35.9929 27.6043 35.9579 27.5497 35.9326C27.5281 35.9242 27.5055 35.9186 27.4824 35.916V35.7101C27.9215 35.4427 28.3361 35.309 28.7262 35.309C29.2813 35.309 29.5588 35.6707 29.5585 36.3943C29.5585 36.5056 29.5492 36.6939 29.5307 36.9592C29.5118 37.2248 29.5024 37.4312 29.5024 37.5797V38.6992ZM27.8768 33.8507C27.8748 33.7454 27.8948 33.6407 27.9354 33.5435C27.976 33.4462 28.0364 33.3585 28.1128 33.2859C28.1871 33.2111 28.2757 33.1522 28.3733 33.1125C28.4709 33.0728 28.5755 33.0531 28.6808 33.0548C28.7824 33.0538 28.883 33.0738 28.9765 33.1136C29.0699 33.1533 29.1541 33.212 29.2238 33.2859C29.298 33.3597 29.3565 33.4478 29.3957 33.5449C29.4349 33.642 29.4539 33.7461 29.4517 33.8507C29.4531 33.9514 29.4335 34.0512 29.3943 34.1439C29.355 34.2366 29.297 34.3201 29.2238 34.3892C29.153 34.4612 29.0685 34.5182 28.9752 34.5567C28.8819 34.5953 28.7818 34.6146 28.6808 34.6135C28.4693 34.617 28.2649 34.5363 28.1128 34.3892C28.0376 34.3213 27.9776 34.2382 27.9369 34.1453C27.8962 34.0525 27.8757 33.9521 27.8768 33.8507Z" fill="white"/>
<path id="Vector_7" d="M33.0026 34.4792L32.8729 35.4255H33.9497C34.0717 35.4244 34.1932 35.4105 34.3123 35.3838C34.4421 35.356 34.5237 35.3087 34.5572 35.242C34.5811 35.3309 34.5924 35.4227 34.5909 35.5148C34.5909 35.971 34.261 36.1992 33.6011 36.1995C33.5413 36.1995 33.4165 36.1938 33.2269 36.1824C33.0373 36.1711 32.9088 36.1655 32.8415 36.1658V38.7318C32.8379 38.8395 32.8379 38.953 32.8415 39.0715C32.8451 39.1899 32.85 39.308 32.8554 39.4251C32.8606 39.5382 32.8796 39.6503 32.9119 39.7589C32.9402 39.8565 32.9808 39.9501 33.0326 40.0375C33.0841 40.1195 33.157 40.1859 33.2435 40.2295C33.3439 40.2795 33.4549 40.3043 33.567 40.3018C33.8133 40.2997 34.0579 40.2611 34.293 40.1874C34.5438 40.1115 34.7017 40.0106 34.7654 39.8841C34.8138 39.9965 34.8334 40.1192 34.8226 40.2412C34.8118 40.3631 34.7709 40.4804 34.7035 40.5827C34.565 40.8109 34.3485 40.9928 34.0538 41.1283C33.7564 41.2644 33.4328 41.3338 33.1058 41.3315C32.7537 41.3315 32.4622 41.2907 32.2313 41.209C32.0204 41.1418 31.8363 41.0093 31.7054 40.8308C31.5843 40.6577 31.5 40.4616 31.4578 40.2547C31.4086 39.9932 31.386 39.7274 31.3905 39.4614C31.3905 39.1793 31.4091 38.7606 31.4465 38.2051C31.4839 37.6496 31.5026 37.2433 31.5026 36.986C31.5026 36.5481 31.469 36.2865 31.4017 36.2013C31.2525 36.0111 31.0522 35.8674 30.8242 35.7872L30.8803 35.4479C30.9259 35.446 30.9711 35.4385 31.0149 35.4255C31.1046 35.398 31.1921 35.3637 31.2765 35.3228C31.424 35.247 31.5573 35.1462 31.6704 35.0248C31.8298 34.8611 31.9676 34.6778 32.0805 34.4792H33.0026Z" fill="white"/>
<path id="Vector_8" d="M38.3659 41.1704L38.2313 41.1148C38.1182 41.0659 38.016 40.995 37.9307 40.9061C37.824 40.8067 37.7453 40.6809 37.7027 40.5414L36.6955 37.3728C36.631 37.1571 36.5493 36.9471 36.4509 36.7446C36.3795 36.5935 36.2947 36.449 36.1974 36.313C36.1295 36.2209 36.0534 36.1351 35.9699 36.0568C35.9176 36.007 35.861 35.962 35.8008 35.9222C35.7748 35.9053 35.7465 35.8922 35.7169 35.8831L35.7052 35.6772C35.861 35.5701 36.0303 35.4841 36.2086 35.4215C36.3871 35.351 36.5767 35.3128 36.7686 35.3088C37.0913 35.3088 37.3275 35.3848 37.4771 35.5368C37.6266 35.6887 37.7463 35.9318 37.836 36.2659C37.9108 36.6966 38.2108 37.6388 38.7361 39.0926L38.8738 39.3734C38.9582 39.546 39.0041 39.6435 39.0115 39.666L39.0676 39.4322C39.0976 39.2978 39.1372 39.1657 39.1861 39.0369L39.9116 36.9829C40.0166 36.69 40.0691 36.4507 40.0691 36.265C40.0691 36.0792 40.0054 35.9512 39.878 35.8809L39.8551 35.675C40.1148 35.4519 40.4422 35.3229 40.7843 35.3088C41.0535 35.3088 41.1881 35.4499 41.1881 35.7319C41.1881 35.9285 41.0924 36.2624 40.9009 36.7338L38.6077 42.3226C38.5252 42.523 38.4558 42.6855 38.3995 42.8099C38.3433 42.9343 38.2708 43.0812 38.1819 43.2505C38.1082 43.3958 38.0167 43.5315 37.9096 43.6543C37.8094 43.7624 37.7013 43.8629 37.5861 43.9549C37.4634 44.0547 37.3217 44.1285 37.1697 44.1721C37.0043 44.2177 36.8333 44.2398 36.6618 44.2376C36.3166 44.2376 36.0456 44.1078 35.8488 43.8481C35.652 43.5885 35.5922 43.2656 35.6693 42.8794C35.7444 42.9722 35.8654 43.0483 36.0323 43.1078C36.1937 43.1664 36.364 43.1967 36.5357 43.1975C36.8205 43.1975 37.0632 43.1448 37.2639 43.0392C37.4552 42.9433 37.6059 42.7823 37.6888 42.5851L38.2273 41.4109L38.3659 41.1704Z" fill="white"/>
<path id="Vector_9" d="M34.797 0.707587C34.5102 0.654631 34.2191 0.628049 33.9275 0.628174H6.74407C6.67938 0.628293 6.61736 0.654046 6.57162 0.699792C6.52587 0.745539 6.50012 0.80755 6.5 0.872245V23.6673C6.49962 24.7495 6.86572 25.7998 7.53865 26.6473C15.3857 23.6099 29.1789 13.0009 35.4004 0.858337C35.2028 0.794839 35.0012 0.74448 34.797 0.707587Z" fill="white"/>
</g>
<path id="Vector_10" d="M38.7288 5.42861V28.2228C38.7286 28.2875 38.7029 28.3495 38.6571 28.3952C38.6114 28.441 38.5494 28.4667 38.4847 28.4669H11.3013C10.5796 28.4675 9.86705 28.3052 9.2168 27.9922C17.2092 24.7928 31.0464 14.033 37.0871 1.81421C37.6036 2.26402 38.0174 2.8195 38.3006 3.44306C38.5838 4.06663 38.7298 4.74374 38.7288 5.42861Z" fill="#CFD0D5"/>
</g>
<defs>
<clipPath id="clip0_1085_7631">
<rect width="44.866" height="44.866" fill="white" transform="translate(0.181641)"/>
</clipPath>
</defs>
</svg>
