<svg width="121" height="46" viewBox="0 0 61 46" fill="none" xmlns="http://www.w3.org/2000/svg">
<g id="FSDH 1" clip-path="url(#clip0_1085_7786)">
<g id="Layer 2">
<g id="Layer 1">
<path id="Vector" d="M44.918 0.567261L46.2215 1.65665C48.0498 3.18266 49.8749 4.70705 51.6968 6.22982C51.7568 6.27572 51.8045 6.33593 51.8354 6.405C51.8664 6.47407 51.8798 6.54981 51.8743 6.62537C51.8743 14.3095 51.8743 21.9935 51.8743 29.6776V38.5938C51.8743 38.8807 51.8743 38.8807 51.5904 38.8807H45.1793C44.918 38.8807 44.918 38.8807 44.918 38.6132V0.567261Z" fill="white"/>
<path id="Vector_2" d="M22.2519 25.1186C22.2519 24.5593 22.2519 24.0227 22.2519 23.4862C22.2519 22.7858 22.2519 22.0871 22.2519 21.3868C22.2519 20.9686 22.1406 20.6054 21.7292 20.4304C21.2791 20.2391 20.8177 20.2488 20.4386 20.5746C20.2733 20.7188 20.1679 20.9202 20.1434 21.1388C20.124 22.0823 20.116 23.0274 20.1724 23.9692C20.2128 24.6096 20.5967 25.083 21.1581 25.3942C21.327 25.4892 21.5028 25.571 21.6841 25.639C22.8924 26.0718 24.1039 26.5095 25.3139 26.9213C26.9271 27.4676 27.7547 28.6251 27.9822 30.2657C28.1708 31.5292 28.2081 32.8109 28.0935 34.0834C28.0384 34.786 27.9174 35.4819 27.7321 36.1617C27.3369 37.4894 26.3754 38.1962 25.0267 38.3842C24.7452 38.4196 24.4618 38.4364 24.1781 38.4345C22.3777 38.4345 20.5774 38.4604 18.777 38.4345C18.171 38.4355 17.5666 38.3736 16.9734 38.2497C16.2978 38.103 15.6929 37.7276 15.2598 37.1864C14.8266 36.6453 14.5915 35.971 14.5938 35.2765C14.5761 33.5792 14.5938 31.8819 14.5938 30.1846C14.5938 30.1392 14.5938 30.0954 14.6035 30.0355H20.1192C20.1192 30.1133 20.1305 30.1976 20.1305 30.2754C20.1305 31.5512 20.1305 32.827 20.1305 34.1028C20.1305 34.6751 20.4289 35.1014 20.9065 35.2247C21.0607 35.2648 21.2219 35.2696 21.3782 35.2388C21.5345 35.208 21.682 35.1424 21.8097 35.0467C21.9374 34.951 22.0422 34.8278 22.1162 34.686C22.1902 34.5443 22.2316 34.3876 22.2374 34.2277C22.2826 33.4025 22.2664 32.5709 22.2374 31.7425C22.2164 31.1832 21.9325 30.7196 21.5421 30.3289C20.9388 29.7303 20.2319 29.2474 19.4562 28.9039C18.5382 28.4922 17.5912 28.1501 16.662 27.7691C16.3079 27.6324 15.9671 27.4631 15.644 27.2634C14.9132 26.777 14.6148 26.0508 14.6051 25.2013C14.589 23.6402 14.5793 22.079 14.6051 20.5179C14.6043 20.0218 14.7293 19.5338 14.9684 19.0998C15.2075 18.6658 15.5528 18.3002 15.9715 18.0376C16.6625 17.5507 17.4734 17.2642 18.3156 17.2092C19.5529 17.1444 20.7903 17.0682 22.0261 17.0471C23.1885 17.0261 24.3482 17.1674 25.472 17.467C26.1857 17.6427 26.8314 18.0275 27.3272 18.5726C27.7173 18.9956 27.9324 19.5521 27.9289 20.1288C27.9289 21.7289 27.9289 23.3289 27.9289 24.9289C27.9289 25.0748 27.8951 25.1332 27.7353 25.1332C25.9608 25.1332 24.1991 25.1332 22.4326 25.1332C22.3722 25.1315 22.3118 25.1267 22.2519 25.1186Z" fill="white"/>
<path id="Vector_3" d="M43.8142 6.06384V38.5591C43.8142 38.6175 43.8142 38.6758 43.8142 38.7342C43.8142 38.8412 43.7755 38.8963 43.6674 38.885H37.1257C36.8611 38.885 36.8595 38.885 36.8595 38.6191C36.8595 29.8294 36.8595 21.0397 36.8595 12.25C36.8575 12.1685 36.8754 12.0877 36.9117 12.0148C36.9479 11.9419 37.0015 11.879 37.0676 11.8318C39.2617 9.95452 41.4546 8.07511 43.6465 6.19353C43.6916 6.15787 43.7368 6.12545 43.8142 6.06384Z" fill="white"/>
<path id="Vector_4" d="M10.1635 24.1591H13.7643V27.1225C13.6772 27.1225 13.603 27.1371 13.5142 27.1371H10.4362C10.1474 27.1371 10.1474 27.1371 10.1474 27.437V38.2985C10.1474 38.5773 10.1474 38.5789 9.86184 38.5789H4.40261C4.14449 38.5789 4.14449 38.5789 4.14449 38.3098C4.14449 34.6828 4.14449 31.0553 4.14449 27.4273C4.14449 27.1468 4.14449 27.1468 3.86056 27.1468C3.37659 27.1468 2.90552 27.1468 2.428 27.1468C2.29248 27.1468 2.23279 27.1192 2.23441 26.9652C2.24086 26.0844 2.24086 25.2036 2.23441 24.3228C2.23441 24.1688 2.29087 24.1396 2.42638 24.1413C2.92326 24.1413 3.42014 24.1413 3.91702 24.1413C4.09126 24.1413 4.15095 24.0959 4.14933 23.9143C4.13965 22.8979 4.1332 21.8798 4.14933 20.8634C4.1414 20.2806 4.17157 19.6979 4.23967 19.119C4.43165 17.7995 5.32055 16.9613 6.65955 16.8073C7.25505 16.7371 7.8539 16.6992 8.45348 16.6939C10.1361 16.6776 11.8203 16.6939 13.5046 16.6939C13.782 16.6939 13.782 16.6938 13.782 16.9808C13.782 17.9664 13.782 18.9504 13.782 19.9361C13.782 20.1095 13.7304 20.1533 13.5626 20.1517C12.6205 20.1517 11.6784 20.1517 10.7362 20.1517C10.6585 20.1436 10.58 20.1528 10.5062 20.1786C10.4325 20.2043 10.3652 20.2461 10.3092 20.3008C10.2532 20.3555 10.2098 20.4219 10.1822 20.4953C10.1545 20.5687 10.1432 20.6473 10.149 20.7256C10.149 21.8198 10.149 22.9157 10.149 24.0099C10.1474 24.0489 10.1555 24.0878 10.1635 24.1591Z" fill="white"/>
<path id="Vector_5" d="M52.3073 16.7687H52.6751C53.7657 16.7946 54.8562 16.7946 55.9436 16.8578C56.3933 16.8895 56.8356 16.9901 57.2551 17.1561C58.5102 17.6425 59.2265 18.7318 59.2297 20.0839C59.2362 22.9727 59.2394 25.8615 59.2394 28.7503C59.2394 32.0477 59.2394 35.344 59.2394 38.6392C59.2394 38.9131 59.2394 38.9131 58.9652 38.9131H53.5317C53.4495 38.9131 53.3704 38.9034 53.2672 38.8985V38.6327C53.2672 35.4456 53.2672 32.2574 53.2672 29.0681C53.2672 26.7369 53.2672 24.4052 53.2672 22.073C53.2889 21.643 53.187 21.2158 52.9736 20.8425C52.9175 20.7247 52.837 20.6203 52.7373 20.5363C52.6377 20.4524 52.5213 20.391 52.396 20.3562C52.2605 20.327 52.2976 20.2233 52.2976 20.1406C52.2976 19.0836 52.2976 18.0277 52.2976 16.9729C52.2976 16.9227 52.3025 16.8595 52.3073 16.7687Z" fill="white"/>
<path id="Vector_6" d="M36.4705 38.4198C36.3753 38.4198 36.3092 38.4311 36.2366 38.4311C35.1073 38.4311 33.978 38.4311 32.8488 38.4311C32.3966 38.4386 31.9468 38.3639 31.5211 38.2107C30.4402 37.8038 29.8336 36.9835 29.5852 35.8909C29.4859 35.4618 29.4345 35.0231 29.4319 34.5826C29.4211 29.8349 29.4211 25.0867 29.4319 20.3379C29.4284 19.9107 29.4866 19.4854 29.6045 19.075C29.9675 17.8673 30.8257 17.1816 32.0518 17.0243C33.3596 16.8289 34.6946 16.9399 35.9526 17.3485C36.477 17.5285 36.477 17.5301 36.477 18.0764C36.477 18.7638 36.477 19.4495 36.477 20.1368C36.477 20.3152 36.4528 20.4238 36.2414 20.3995C36.1571 20.3973 36.0729 20.4072 35.9914 20.4286C35.8054 20.4425 35.6305 20.5229 35.4984 20.6552C35.3664 20.7876 35.286 20.9632 35.2719 21.15C35.2439 21.3291 35.2304 21.5102 35.2315 21.6915C35.2315 25.8761 35.2315 30.0608 35.2315 34.2454V34.3038C35.2315 35.056 35.5074 35.3737 36.2463 35.4548C36.4318 35.4758 36.4753 35.5342 36.4737 35.7142C36.4657 36.5247 36.4737 37.345 36.4737 38.162L36.4705 38.4198Z" fill="white"/>
<path id="Vector_7" d="M34.6476 44.1746C34.7154 43.9265 34.7832 43.6785 34.8477 43.4304C34.9768 42.9441 35.1091 42.4577 35.2268 41.9714C35.2295 41.9412 35.2384 41.9119 35.2529 41.8854C35.2675 41.8589 35.2874 41.8357 35.3114 41.8174C35.3354 41.7991 35.363 41.786 35.3923 41.779C35.4216 41.772 35.4521 41.7713 35.4817 41.7768C35.7124 41.7865 35.9464 41.7768 36.1771 41.7768C36.2997 41.7768 36.3513 41.819 36.3513 41.9389C36.3513 43.0284 36.3513 44.1167 36.3513 45.204C36.3513 45.3256 36.3142 45.3807 36.19 45.3775C35.6043 45.3645 35.7173 45.4553 35.706 44.9203C35.706 44.2216 35.706 43.5212 35.706 42.8209V42.6182H35.6592C35.5656 42.9797 35.4721 43.3396 35.3817 43.6996C35.2543 44.2021 35.1252 44.7031 35.0058 45.2073C35.0035 45.2341 34.9957 45.2602 34.9828 45.2838C34.97 45.3075 34.9524 45.3282 34.9312 45.3447C34.9099 45.3611 34.8855 45.373 34.8595 45.3795C34.8335 45.386 34.8064 45.3869 34.7799 45.3823C34.283 45.3823 34.283 45.3905 34.1604 44.896C33.9883 44.1989 33.8141 43.5018 33.6377 42.8046C33.6216 42.7398 33.6006 42.6766 33.5812 42.6134H33.5312V42.816C33.5312 43.5861 33.5312 44.3578 33.5312 45.1278C33.5312 45.3078 33.4925 45.384 33.2957 45.3759C32.8117 45.3564 32.8843 45.4423 32.8811 44.9479C32.8811 43.9752 32.8811 42.9911 32.8811 42.0135C32.8811 41.8141 32.9407 41.7509 33.1343 41.7638C33.3493 41.7771 33.5648 41.7771 33.7797 41.7638C33.8078 41.7588 33.8367 41.7597 33.8645 41.7665C33.8923 41.7734 33.9184 41.786 33.941 41.8035C33.9636 41.8211 33.9824 41.8432 33.996 41.8685C34.0096 41.8938 34.0178 41.9216 34.0201 41.9503C34.1959 42.6328 34.3798 43.3137 34.5605 43.9962C34.5767 44.0546 34.5992 44.113 34.6186 44.1713L34.6476 44.1746Z" fill="white"/>
<path id="Vector_8" d="M45.9554 44.095V43.8891C45.9554 43.2552 45.9554 42.6197 45.9554 41.9858C45.9554 41.814 46.0103 41.7605 46.1781 41.7653C46.683 41.7783 46.6007 41.7134 46.604 42.1836C46.604 43.1741 46.604 44.1647 46.604 45.1552C46.604 45.3255 46.5507 45.3595 46.3862 45.3806C46.0151 45.426 45.8054 45.2898 45.6247 44.9591C45.302 44.3592 44.9148 43.787 44.5551 43.2033C44.5207 43.1432 44.4705 43.0938 44.4098 43.0607C44.4098 43.1287 44.4002 43.1952 44.4002 43.2617C44.4002 43.8907 44.4002 44.5181 44.4002 45.1471C44.4002 45.3255 44.3453 45.3806 44.1679 45.3757C43.75 45.3676 43.75 45.3757 43.75 44.9526C43.75 43.9685 43.75 42.9845 43.75 42.0004C43.75 41.8285 43.7968 41.7799 43.9743 41.7588C44.3292 41.7199 44.5341 41.8448 44.7067 42.1625C45.0294 42.7575 45.4053 43.3265 45.7586 43.9069C45.8021 43.9766 45.8489 44.0447 45.8941 44.1128L45.9554 44.095Z" fill="white"/>
<path id="Vector_9" d="M16.9812 43.069V44.3367C16.9812 44.6285 16.9812 44.9204 16.9812 45.2122C16.9812 45.3354 16.9425 45.3856 16.8199 45.3743C16.2407 45.3613 16.3359 45.4521 16.3359 44.9155C16.3359 43.9428 16.3359 42.9701 16.3359 41.9974C16.3359 41.8239 16.3843 41.7769 16.5618 41.7558C16.9102 41.7185 17.1103 41.8466 17.2797 42.1546C17.6024 42.748 17.9783 43.3186 18.3316 43.8974C18.3773 43.9802 18.442 44.0508 18.5203 44.1033C18.5203 44.0287 18.5349 43.9541 18.5349 43.8812C18.5349 43.2522 18.5349 42.6248 18.5349 41.9957C18.5349 41.819 18.5897 41.7558 18.7672 41.7623C19.2108 41.7753 19.1689 41.7218 19.1689 42.153C19.1689 43.1452 19.1689 44.1357 19.1689 45.1263C19.1689 45.3078 19.1205 45.3629 18.9317 45.3775C18.7887 45.403 18.6413 45.3793 18.5133 45.3102C18.3854 45.241 18.2844 45.1305 18.2267 44.9966C17.8944 44.3902 17.5088 43.8131 17.1458 43.223C17.1103 43.1646 17.07 43.1079 17.0329 43.0511L16.9812 43.069Z" fill="white"/>
<path id="Vector_10" d="M22.4349 43.4452C22.6398 43.4452 22.8463 43.4452 23.0528 43.4452C23.169 43.4452 23.2141 43.489 23.2141 43.6074C23.2141 43.9883 23.2141 44.371 23.2141 44.7536C23.2112 44.7937 23.2001 44.8329 23.1815 44.8685C23.1629 44.9042 23.1372 44.9357 23.1061 44.9611C22.4059 45.4393 21.6541 45.5836 20.8474 45.2594C20.2021 44.9984 19.9326 44.4488 19.8794 43.7873C19.8542 43.5107 19.8755 43.2317 19.9423 42.9621C20.1682 42.0834 20.9103 41.6068 21.8396 41.7106C22.1994 41.7495 22.5495 41.8192 22.8076 42.0997C22.9272 42.2503 23.0305 42.4134 23.1157 42.586C23.1722 42.6849 23.1415 42.7595 23.0157 42.7757C22.9518 42.7822 22.8886 42.7947 22.8269 42.813C22.7351 42.8547 22.6306 42.8582 22.5363 42.8227C22.4419 42.7871 22.3654 42.7154 22.3236 42.6233C21.9864 42.1191 21.0636 42.2099 20.7651 42.7854C20.6327 43.0287 20.5651 43.3021 20.5688 43.5793C20.5725 43.8565 20.6473 44.1281 20.7861 44.3677C21.0023 44.7665 21.4605 44.9205 21.9299 44.7989C22.0232 44.773 22.1143 44.7399 22.2026 44.7001C22.5043 44.5687 22.5253 44.5104 22.5075 44.1829C22.4994 44.0743 22.4543 44.0321 22.3462 44.0321C22.1655 44.0321 21.9848 44.0321 21.8041 44.0321C21.6976 44.0321 21.6541 43.9867 21.6541 43.8814C21.6541 43.3593 21.6137 43.4679 22.0525 43.4566C22.1768 43.442 22.3058 43.4452 22.4349 43.4452Z" fill="white"/>
<path id="Vector_11" d="M32.2773 43.5749C32.3208 44.0381 32.1798 44.4998 31.8853 44.8588C31.3545 45.4603 30.6705 45.5316 29.9493 45.3322C29.2669 45.1409 28.9265 44.6286 28.8377 43.9396C28.7667 43.3868 28.8103 42.8518 29.1394 42.3784C29.5573 41.7786 30.3252 41.55 31.1303 41.7802C31.4499 41.8783 31.7312 42.0737 31.9356 42.3394C32.1399 42.6052 32.2571 42.9281 32.2709 43.2636C32.2822 43.3641 32.2773 43.4711 32.2773 43.5749ZM31.5965 43.5587C31.5607 43.323 31.5067 43.0905 31.4352 42.8632C31.3715 42.6912 31.2548 42.5443 31.1022 42.4436C30.9495 42.343 30.7689 42.2941 30.5866 42.3039C30.3979 42.2849 30.2081 42.3271 30.045 42.4242C29.8819 42.5213 29.754 42.6683 29.6799 42.8437C29.5791 43.0659 29.5269 43.3072 29.5269 43.5514C29.5269 43.7955 29.5791 44.0368 29.6799 44.259C29.7511 44.4357 29.876 44.5854 30.0367 44.6867C30.1975 44.788 30.3859 44.8358 30.5753 44.8232C30.7648 44.8318 30.9519 44.7783 31.1085 44.6706C31.265 44.563 31.3825 44.4072 31.4432 44.2266C31.5092 44.0077 31.5604 43.7845 31.5965 43.5587Z" fill="white"/>
<path id="Vector_12" d="M7.5975 43.6072C7.57564 43.8148 7.54224 44.021 7.49747 44.2249C7.41591 44.5613 7.22536 44.8609 6.95579 45.0767C6.68623 45.2924 6.35294 45.4119 6.00837 45.4164C5.58575 45.4619 5.16027 45.3619 4.80161 45.1327C4.6002 44.9909 4.43371 44.8047 4.31487 44.5884C4.19604 44.372 4.12799 44.1312 4.11594 43.8844C4.05464 43.2359 4.12885 42.6199 4.62737 42.1449C5.15493 41.6407 5.79541 41.6034 6.45204 41.7963C7.05703 41.9746 7.39422 42.4253 7.52328 43.0333C7.56684 43.21 7.5733 43.3916 7.5975 43.6072ZM6.86827 43.5569C6.8473 43.3948 6.83923 43.2327 6.80535 43.0787C6.77061 42.8805 6.6735 42.6987 6.5283 42.5601C6.38309 42.4215 6.19746 42.3333 5.99869 42.3086C5.5389 42.2567 5.14202 42.4529 4.97746 42.8404C4.87499 43.0646 4.82195 43.3085 4.82195 43.5553C4.82195 43.8021 4.87499 44.046 4.97746 44.2702C5.04902 44.4223 5.1586 44.5531 5.2955 44.6499C5.4324 44.7467 5.59194 44.8062 5.75854 44.8225C5.92514 44.8388 6.09311 44.8115 6.24604 44.7431C6.39898 44.6747 6.53165 44.5677 6.63112 44.4324C6.79632 44.1713 6.879 43.8661 6.86827 43.5569Z" fill="white"/>
<path id="Vector_13" d="M11.2678 43.5765C11.2678 43.0399 11.2678 42.5017 11.2678 41.9651C11.2678 41.803 11.3211 41.7641 11.4695 41.7657C11.9083 41.7657 12.3455 41.7657 12.7844 41.7657C13.5491 41.777 14.0299 42.158 14.2025 42.9102C14.3378 43.4276 14.309 43.9745 14.1202 44.4747C14.0375 44.7229 13.88 44.9391 13.6696 45.0934C13.4592 45.2476 13.2062 45.3323 12.9457 45.3355C12.4617 45.3599 11.968 45.3534 11.4776 45.3696C11.3162 45.3696 11.2646 45.3258 11.2678 45.1637C11.2727 44.6368 11.2662 44.1067 11.2678 43.5765ZM12.4117 42.3444C12.3294 42.3444 12.2504 42.3444 12.1616 42.3444C12.01 42.3298 11.9567 42.3963 11.9583 42.5455C11.9583 43.2253 11.9583 43.904 11.9583 44.5817C11.9583 44.7438 12.0197 44.8038 12.1761 44.7941C12.381 44.7827 12.5875 44.7811 12.7924 44.7697C13.1635 44.7487 13.3894 44.5865 13.47 44.2218C13.527 43.9506 13.552 43.6736 13.5442 43.3966C13.5281 42.6379 13.2216 42.3525 12.4714 42.3461L12.4117 42.3444Z" fill="white"/>
<path id="Vector_14" d="M57.8775 43.5714C57.8775 43.0396 57.8775 42.5095 57.8775 41.9794C57.8775 41.8173 57.9227 41.7622 58.0856 41.7654C58.5164 41.7735 58.9487 41.7654 59.3763 41.7654C60.162 41.7767 60.6443 42.1642 60.8137 42.9359C60.941 43.4416 60.9123 43.9742 60.7315 44.4631C60.6502 44.7151 60.4922 44.9351 60.2797 45.092C60.0672 45.2488 59.8109 45.3345 59.5473 45.3369C59.052 45.3612 58.5551 45.3547 58.0598 45.3709C57.9114 45.3709 57.8597 45.3174 57.8759 45.178C57.8767 45.1715 57.8767 45.165 57.8759 45.1585L57.8775 43.5714ZM58.5712 43.5714C58.5712 43.8956 58.5793 44.2312 58.5712 44.5603C58.5712 44.75 58.6374 44.8165 58.8181 44.8019C58.9988 44.7873 59.2036 44.7873 59.3972 44.7776C59.7828 44.7549 59.9909 44.5944 60.0894 44.2183C60.1936 43.8226 60.1997 43.4074 60.1071 43.0088C60.0817 42.8365 59.9971 42.6786 59.8681 42.5622C59.7391 42.4459 59.5737 42.3785 59.4005 42.3717C59.1907 42.3458 58.9762 42.362 58.7648 42.3506C58.6196 42.3425 58.5712 42.4058 58.5728 42.5436C58.5793 42.8775 58.5761 43.2212 58.5761 43.5633L58.5712 43.5714Z" fill="white"/>
<path id="Vector_15" d="M3.47039 43.5732C3.47039 44.1114 3.47039 44.648 3.47039 45.1862C3.47039 45.3305 3.42522 45.3792 3.28163 45.3743C2.68309 45.3581 2.7815 45.4635 2.77344 44.8879C2.77344 44.5832 2.77344 44.2784 2.77344 43.9752C2.77344 43.8374 2.72665 43.779 2.58145 43.7823C2.22007 43.7823 1.85868 43.792 1.4973 43.7823C1.33596 43.7823 1.29724 43.839 1.29886 43.9866C1.29886 44.3886 1.29886 44.789 1.29886 45.1911C1.29886 45.3338 1.2553 45.3808 1.1101 45.3824C0.603516 45.3824 0.603516 45.3921 0.603516 44.8879C0.603516 43.9298 0.603516 42.9717 0.603516 42.0136C0.603516 41.8255 0.663209 41.7671 0.847127 41.7704C1.30047 41.7785 1.30047 41.7704 1.30047 42.2227C1.30047 42.4886 1.30047 42.7545 1.30047 43.0187C1.30047 43.1549 1.35371 43.2051 1.48278 43.2035C1.85061 43.2035 2.21845 43.2035 2.58468 43.2035C2.73149 43.2035 2.77505 43.1387 2.77344 43.0025C2.77344 42.6604 2.77344 42.3167 2.77344 41.973C2.77344 41.8223 2.82829 41.772 2.97833 41.7704C3.46232 41.7704 3.46233 41.759 3.46233 42.2568L3.47039 43.5732Z" fill="white"/>
<path id="Vector_16" d="M43.3239 45.3695C43.0706 45.3695 42.8576 45.3792 42.6479 45.3695C42.5995 45.3695 42.5398 45.2901 42.514 45.2333C42.4365 45.0566 42.3672 44.8734 42.3042 44.6902C42.2928 44.6432 42.2647 44.602 42.2252 44.5742C42.1857 44.5465 42.1375 44.5341 42.0897 44.5394C41.7089 44.5394 41.3282 44.5394 40.9474 44.5394C40.8965 44.5334 40.8451 44.5467 40.8033 44.5767C40.7616 44.6067 40.7324 44.6512 40.7216 44.7016C40.6645 44.8866 40.5977 45.0684 40.5215 45.2463C40.5053 45.2775 40.4825 45.3048 40.4546 45.3261C40.4267 45.3474 40.3945 45.3622 40.3602 45.3695C40.1698 45.3841 39.9762 45.3695 39.752 45.3695C39.7762 45.2917 39.7907 45.2317 39.8116 45.1766C40.2263 44.1082 40.6441 43.0431 41.0523 41.9731C41.0688 41.9053 41.1099 41.8462 41.1674 41.8072C41.225 41.7683 41.295 41.7523 41.3637 41.7623C41.8944 41.7704 41.8961 41.7623 42.0961 42.2649C42.4769 43.2192 42.8571 44.1747 43.2367 45.1312C43.2609 45.196 43.2835 45.2625 43.3239 45.3695ZM42.0187 43.9428L41.5347 42.6459H41.4734C41.312 43.0739 41.1652 43.5003 41.0039 43.9428H42.0187Z" fill="white"/>
<path id="Vector_17" d="M37.0978 43.5795C37.0978 43.0429 37.0978 42.5047 37.0978 41.968C37.0978 41.8157 37.1462 41.7622 37.2978 41.7654C37.8012 41.7735 38.3045 41.7654 38.8063 41.7751C39.4371 41.7881 39.8049 42.1723 39.8404 42.7932C39.8824 43.5374 39.3903 43.9281 38.8531 43.9702C38.5707 43.9897 38.2868 43.9881 38.0029 43.9881C37.8673 43.9881 37.8076 44.0334 37.8109 44.181C37.8189 44.5166 37.8109 44.8538 37.8109 45.1894C37.8109 45.3191 37.7786 45.3839 37.6366 45.3742C37.5147 45.3644 37.3923 45.3644 37.2704 45.3742C37.1317 45.3839 37.0816 45.3223 37.0962 45.191V43.5795H37.0978ZM38.2658 42.3279V42.3442C38.1634 42.3336 38.0601 42.3336 37.9577 42.3442C37.9028 42.3555 37.8222 42.4268 37.8189 42.4739C37.806 42.7381 37.8076 43.004 37.8189 43.2682C37.8189 43.312 37.8867 43.3898 37.9238 43.3898C38.1932 43.3969 38.4628 43.3845 38.7305 43.3525C38.8403 43.3348 38.9399 43.2775 39.0106 43.1912C39.0813 43.1049 39.1182 42.9957 39.1144 42.884C39.1243 42.7695 39.0919 42.6554 39.0235 42.5634C38.9551 42.4713 38.8554 42.4077 38.7434 42.3847C38.5855 42.356 38.426 42.337 38.2658 42.3279Z" fill="white"/>
<path id="Vector_18" d="M28.2832 42.7399C28.0751 42.7885 27.8847 42.8388 27.6911 42.8761C27.6672 42.8752 27.644 42.8684 27.6234 42.8562C27.6029 42.844 27.5856 42.8269 27.5733 42.8064C27.506 42.6286 27.3769 42.4814 27.2099 42.392C27.0429 42.3026 26.8493 42.277 26.665 42.32C26.2891 42.3719 26.0358 42.6524 25.9503 43.1095C25.8786 43.4734 25.8946 43.8492 25.9971 44.2055C26.04 44.3838 26.1413 44.5426 26.2846 44.6563C26.4279 44.77 26.605 44.8322 26.7876 44.8329C27.1345 44.8458 27.4104 44.6448 27.562 44.2687C27.5846 44.2087 27.6088 44.1503 27.6346 44.0839C27.7088 44.1017 27.7701 44.1147 27.8314 44.1341C27.9783 44.1795 28.1235 44.2298 28.267 44.2768C28.2354 44.5234 28.1339 44.7557 27.9746 44.946C27.8152 45.1363 27.6048 45.2765 27.3684 45.35C26.5876 45.5656 25.7148 45.3662 25.3372 44.4389C25.0969 43.8504 25.1098 42.7302 25.6777 42.1692C26.2456 41.6083 27.2765 41.5418 27.8911 42.0622C28.091 42.2398 28.2285 42.4775 28.2832 42.7399Z" fill="white"/>
<path id="Vector_19" d="M50.3591 41.7687L50.0816 42.2292C49.767 42.7269 49.4492 43.2213 49.1427 43.7239C49.0843 43.8221 49.0521 43.9338 49.0491 44.0481C49.0378 44.4291 49.0394 44.8117 49.0491 45.1943C49.0491 45.3386 49.0007 45.3824 48.8587 45.384C48.3586 45.384 48.3215 45.384 48.3747 44.8863C48.4127 44.5504 48.384 44.2102 48.2904 43.8855C48.1968 43.5608 48.0401 43.2579 47.8294 42.9944C47.5471 42.628 47.3277 42.2146 47.0566 41.7817C47.3374 41.7817 47.5777 41.7736 47.8165 41.7817C47.8681 41.7817 47.9278 41.8628 47.9617 41.9195C48.1731 42.2681 48.378 42.6199 48.5861 42.97C48.6248 43.0349 48.6684 43.0981 48.728 43.1905C48.8039 43.0689 48.8668 42.9733 48.9233 42.876C49.1104 42.5518 49.2975 42.2405 49.4766 41.9195C49.4991 41.8693 49.5368 41.8276 49.5843 41.8002C49.6318 41.7728 49.6868 41.7612 49.7412 41.7671C49.9235 41.7736 50.1155 41.7687 50.3591 41.7687Z" fill="white"/>
<path id="Vector_20" d="M55.6058 43.8505C55.6058 43.4176 55.6058 42.9831 55.6058 42.5535C55.6058 42.4027 55.5574 42.3444 55.4058 42.3492C55.1799 42.359 54.954 42.3492 54.7282 42.3492C54.6007 42.3492 54.5443 42.312 54.541 42.1742C54.5281 41.7721 54.5233 41.7721 54.9298 41.7721C55.6655 41.7721 56.3996 41.7721 57.1353 41.7721C57.2127 41.7721 57.3531 41.8159 57.3579 41.8515C57.37 42.0042 57.3635 42.1577 57.3385 42.3087C57.3385 42.3249 57.2482 42.3411 57.1998 42.3411C56.9739 42.3411 56.7481 42.3509 56.5222 42.3411C56.3609 42.333 56.3125 42.3979 56.3141 42.5551C56.3141 43.416 56.3141 44.2768 56.3141 45.1377C56.3141 45.3257 56.2608 45.3809 56.0753 45.376C55.5913 45.3663 55.5913 45.376 55.5913 44.8896L55.6058 43.8505Z" fill="white"/>
<path id="Vector_21" d="M8.20703 43.5861C8.20703 43.0624 8.20703 42.5372 8.20703 42.0119C8.20703 41.8498 8.25543 41.793 8.41676 41.7963C8.98465 41.8076 8.90076 41.7395 8.90076 42.2616C8.90076 43.0138 8.90076 43.7644 8.90076 44.5166C8.90076 44.7857 8.90076 44.7906 9.16696 44.7922C9.60578 44.7922 10.0446 44.7922 10.4834 44.7922C10.6448 44.7922 10.727 44.836 10.7206 45.0224C10.7061 45.4342 10.748 45.3726 10.3657 45.3742C9.73324 45.3742 9.10081 45.3742 8.46839 45.3742C8.21026 45.3742 8.20864 45.3742 8.20864 45.1035L8.20703 43.5861Z" fill="white"/>
<path id="Vector_22" d="M52.1113 43.5926C52.1113 43.0689 52.1113 42.5436 52.1113 42.0184C52.1113 41.8465 52.1694 41.793 52.3356 41.7963C52.8873 41.8092 52.7986 41.7395 52.8018 42.2567C52.8018 43.0219 52.8018 43.7855 52.8018 44.5507C52.8018 44.7404 52.8647 44.7987 53.0471 44.7955C53.4923 44.7858 53.9376 44.7955 54.3829 44.7955C54.5668 44.7955 54.6346 44.8474 54.6281 45.037C54.6136 45.431 54.6523 45.3759 54.2812 45.3775C53.6359 45.3775 52.9777 45.3775 52.3259 45.3775C52.1646 45.3775 52.1113 45.3337 52.1129 45.17C52.1162 44.6431 52.1113 44.1178 52.1113 43.5926Z" fill="white"/>
<path id="Vector_23" d="M15.5954 43.5944C15.5954 44.118 15.5954 44.6433 15.5954 45.1669C15.5954 45.3291 15.5405 45.3761 15.3824 45.3761C14.8984 45.3761 14.8984 45.3761 14.8984 44.8994C14.8984 43.9267 14.8984 42.9702 14.8984 42.0072C14.8984 41.8208 14.9517 41.7592 15.1388 41.7641C15.668 41.7819 15.5873 41.7008 15.5922 42.2164C15.5986 42.6752 15.5954 43.1356 15.5954 43.5944Z" fill="white"/>
</g>
</g>
</g>
<defs>
<clipPath id="clip0_1085_7786">
<rect width="60.2879" height="44.8654" fill="white" transform="translate(0.607422 0.567261)"/>
</clipPath>
</defs>
</svg>
