<svg width="49" height="48" viewBox="0 0 49 48" fill="none" xmlns="http://www.w3.org/2000/svg">
<g id="pci-dss 1">
<g id="Rectangle-3- -Letters">
<path id="Rectangle-3" d="M39.4871 28.0816L41.713 27.381L40.99 25.7765C40.4322 26.5063 39.9298 27.2768 39.4871 28.0816ZM38.7301 20.7485L34.3687 11.0312L2.4375 12.8392L11.2855 36.9741L28.3132 31.6071C27.2285 30.0477 26.833 28.1948 28.0873 27.2908C29.4882 26.2738 31.6012 27.449 32.9458 29.11C34.2444 26.9404 37.894 21.8896 38.7301 20.7485Z" fill="#235F64"/>
<g id="Letters">
<path id="Oval-1" d="M33.3736 18.053C33.8194 18.0272 34.2479 17.8714 34.6061 17.6048C34.9644 17.3382 35.2367 16.9726 35.3895 16.553C35.5423 16.1334 35.5689 15.6783 35.466 15.2437C35.3631 14.8092 35.1352 14.4144 34.8105 14.1079C34.4857 13.8014 34.0783 13.5967 33.6385 13.5191C33.1988 13.4416 32.746 13.4945 32.3359 13.6713C31.9259 13.8481 31.5766 14.1412 31.3312 14.5142C31.0858 14.8873 30.9551 15.3241 30.9551 15.7706C30.9733 16.394 31.2383 16.9846 31.6918 17.4126C32.1453 17.8406 32.7503 18.0709 33.3736 18.053ZM31.3964 19.0361H35.3511V29.3746H31.3964V19.0361Z" fill="white"/>
<path id="Path-3" d="M29.4421 22.0535C29.476 22.0649 29.4986 22.0535 29.4986 22.0196V19.3983C29.4972 19.3798 29.4913 19.3619 29.4815 19.3462C29.4716 19.3304 29.4581 19.3173 29.4421 19.3079C28.7831 19.0075 28.0645 18.8607 27.3405 18.8785C26.7277 18.827 26.1116 18.827 25.4988 18.8785C19.7362 19.3425 19.5215 23.5111 19.5215 23.6919V24.7087C19.5215 24.833 19.5215 29.0927 25.4988 29.4657C26.0863 29.511 27.2268 29.4657 27.3405 29.4657C28.1358 29.4745 28.9256 29.3327 29.668 29.0476C29.6844 29.0418 29.6986 29.0311 29.7088 29.017C29.7189 29.0029 29.7244 28.9859 29.7245 28.9686V26.5167C29.7245 26.4826 29.702 26.4714 29.6794 26.494C28.9614 26.8438 28.1731 27.0254 27.3744 27.025C27.0486 27.0735 26.7173 27.0735 26.3914 27.025C23.7248 26.5732 23.6005 24.6297 23.6005 24.6297C23.6005 24.5958 23.5892 24.5393 23.5892 24.5167V23.771C23.5868 23.7329 23.5906 23.6948 23.6005 23.658C23.7066 22.9996 24.048 22.4019 24.5612 21.976C25.0744 21.55 25.7247 21.3247 26.3914 21.3417H27.3744C28.1021 21.4478 28.8034 21.6892 29.4421 22.0535Z" fill="white"/>
<path id="Path-1" d="M8.5397 29.3412C8.53887 29.3553 8.54367 29.3692 8.55305 29.3798C8.56244 29.3904 8.57564 29.3969 8.58978 29.3978H12.4485C12.4626 29.3986 12.4765 29.3938 12.4871 29.3845C12.4977 29.3751 12.5041 29.3619 12.505 29.3477V26.3357C12.5046 26.3287 12.5055 26.3216 12.5079 26.3149C12.5102 26.3083 12.5138 26.3021 12.5185 26.2969C12.5232 26.2916 12.529 26.2874 12.5353 26.2843C12.5417 26.2813 12.5486 26.2796 12.5557 26.2793H12.5621C12.5621 26.2793 18.72 26.7199 18.72 22.5957C18.72 19.3303 14.8559 18.9797 13.5903 19.0365H8.59554C8.58856 19.0361 8.58155 19.037 8.57493 19.0393C8.56831 19.0416 8.5622 19.0452 8.55696 19.0498C8.55171 19.0544 8.54743 19.0601 8.54436 19.0663C8.54129 19.0726 8.53949 19.0795 8.53906 19.0865V19.093L8.5397 29.3412ZM12.4379 23.9855V21.285H13.3871C13.3871 21.285 14.7543 21.3415 14.8672 22.2793C14.8899 22.4631 14.8899 22.6491 14.8672 22.833C14.7989 23.1493 14.6277 23.4339 14.3802 23.6424C14.1328 23.8508 13.8233 23.9713 13.5 23.985L12.4379 23.9855Z" fill="white"/>
</g>
<path id="Path-7" d="M33.4869 34.3629C33.8208 34.3834 34.1545 34.3213 34.4586 34.1821C35.8596 33.4477 40.594 21.8887 45.5882 18.3295C45.6238 18.3053 45.6544 18.2746 45.6786 18.2391C45.6986 18.213 45.7104 18.1815 45.7125 18.1487C45.7125 18.1487 45.7125 17.9114 44.9781 17.9114C40.5377 17.7871 35.9162 27.1088 33.4869 30.7923C33.453 30.8376 33.2949 30.7923 33.2949 30.7923C32.4223 29.7581 31.3972 28.8628 30.2549 28.1371C30.1391 28.0954 30.0164 28.0762 29.8933 28.0807C29.4994 28.1243 29.1265 28.2813 28.8199 28.5325C28.6797 28.6678 28.5745 28.8352 28.5135 29.0203C28.4525 29.2053 28.4374 29.4024 28.4697 29.5946C28.4758 29.6883 28.4988 29.7802 28.5375 29.8658C29.4612 31.3061 30.5411 32.64 31.7578 33.8431C31.9926 34.0475 32.2682 34.1997 32.5664 34.2893C32.8645 34.3789 33.1783 34.404 33.4869 34.3629Z" fill="#3CB65E"/>
</g>
</g>
</svg>
