<svg width="121" height="46" viewBox="0 0 111 21" fill="none" xmlns="http://www.w3.org/2000/svg">
<g id="Group">
<path id="Vector" d="M48.2585 11.5146H46.5273V1.3866H48.2585V11.5146Z" fill="white"/>
<path id="Vector_2" d="M50.75 11.5146V1.3866H53.9641C54.9418 1.3866 55.7174 1.60096 56.2909 2.02968C56.5603 2.21655 56.7795 2.46696 56.929 2.75875C57.0786 3.05053 57.1539 3.37469 57.1483 3.70253C57.159 4.2407 56.9874 4.76667 56.6613 5.19492C56.3182 5.63075 55.8462 5.947 55.3127 6.0985V6.127C55.9441 6.17623 56.5368 6.45067 56.9828 6.90033C57.3989 7.33539 57.6073 7.90159 57.6082 8.59895C57.6188 9.00692 57.5313 9.41147 57.3531 9.77859C57.1748 10.1457 56.9111 10.4647 56.5839 10.7087C55.9019 11.2459 55.0427 11.5146 54.0061 11.5146H50.75ZM52.4242 2.73518V5.61687H53.5096C54.0939 5.61687 54.552 5.48119 54.8839 5.20985C55.2159 4.9385 55.3819 4.54867 55.3819 4.04035C55.3819 3.17476 54.8025 2.74151 53.6439 2.74061L52.4242 2.73518ZM52.4242 6.96545V10.1782H53.8583C54.4842 10.1782 54.9676 10.0335 55.3086 9.74403C55.4791 9.59612 55.6139 9.41147 55.7027 9.20397C55.7915 8.99646 55.8321 8.77151 55.8214 8.54604C55.8214 7.49593 55.0938 6.97088 53.6385 6.97088L52.4242 6.96545Z" fill="white"/>
<path id="Vector_3" d="M65.4692 2.81251H62.5536V11.5146H60.878V2.81251H57.9746V1.3866H65.4692V2.81251Z" fill="white"/>
<path id="Vector_4" d="M73.4275 11.09C72.665 11.4862 71.7153 11.6843 70.5784 11.6843C69.1104 11.6843 67.9346 11.2203 67.0509 10.2923C66.1672 9.36426 65.7245 8.14727 65.7227 6.64131C65.7227 5.02138 66.2201 3.71259 67.2151 2.71494C68.21 1.7173 69.4681 1.21983 70.9895 1.22255C71.969 1.22255 72.7831 1.36138 73.4316 1.63906V3.30648C72.7484 2.90101 71.967 2.69077 71.1726 2.69866C70.0755 2.69866 69.1864 3.04961 68.5053 3.75148C67.8242 4.45336 67.4841 5.38996 67.485 6.56126C67.485 7.6774 67.8016 8.56605 68.4347 9.22723C69.0679 9.88841 69.9036 10.2194 70.942 10.2204C71.819 10.2419 72.683 10.006 73.4275 9.54199V11.09Z" fill="white"/>
<path id="Vector_5" d="M79.3242 11.5146V1.3866H82.5369C83.5165 1.3866 84.2921 1.60096 84.8637 2.02968C85.1333 2.21648 85.3527 2.46685 85.5025 2.75862C85.6523 3.0504 85.7279 3.37459 85.7225 3.70253C85.7326 4.2406 85.561 4.76637 85.2355 5.19492C84.8901 5.63196 84.4151 5.9483 83.8787 6.0985V6.127C84.5102 6.17623 85.1029 6.45067 85.5489 6.90033C85.9667 7.33539 86.1752 7.90159 86.1743 8.59895C86.1844 9.00606 86.0966 9.40965 85.9184 9.77581C85.7401 10.142 85.4766 10.46 85.15 10.7032C84.468 11.2405 83.6065 11.5091 82.5654 11.5091L79.3242 11.5146ZM81.0038 2.73518V5.61687H82.0892C82.6726 5.61687 83.1307 5.48119 83.4636 5.20985C83.7964 4.9385 83.962 4.54867 83.9601 4.04035C83.9601 3.17476 83.3813 2.74151 82.2235 2.74061L81.0038 2.73518ZM81.0038 6.96545V10.1782H82.4379C83.0647 10.1782 83.5486 10.0335 83.8896 9.74403C84.0599 9.59599 84.1944 9.41128 84.283 9.20378C84.3715 8.99628 84.4119 8.7714 84.4011 8.54604C84.4011 7.49593 83.6739 6.97088 82.2195 6.97088L81.0038 6.96545Z" fill="white"/>
<path id="Vector_6" d="M93.4275 11.5145H91.8387V10.3844H91.8103C91.311 11.25 90.5788 11.6832 89.6137 11.6841C88.9028 11.6841 88.3461 11.491 87.9436 11.1048C87.5411 10.7186 87.3398 10.2076 87.3398 9.57171C87.3398 8.20684 88.1258 7.41135 89.6978 7.18523L91.8455 6.88132C91.8455 5.85021 91.3558 5.33465 90.3762 5.33465C89.516 5.33355 88.6859 5.65054 88.0453 6.22466V4.79061C88.8476 4.32811 89.761 4.09355 90.6869 4.11224C92.513 4.11224 93.4266 5.01175 93.4275 6.81077V11.5145ZM91.8455 7.96127L90.3273 8.17292C89.951 8.20328 89.5868 8.3208 89.2637 8.51617C89.0267 8.6835 88.9078 8.97656 88.9069 9.39533C88.9028 9.53707 88.9301 9.67796 88.9869 9.8079C89.0437 9.93784 89.1284 10.0536 89.2352 10.147C89.4808 10.352 89.7948 10.4567 90.1143 10.44C90.3465 10.446 90.5773 10.4023 90.7912 10.3117C91.0051 10.2211 91.1971 10.0859 91.3544 9.91496C91.6851 9.55484 91.8614 9.07944 91.8455 8.59079V7.96127Z" fill="white"/>
<path id="Vector_7" d="M101.866 11.5144H100.227V7.44418C100.227 6.09288 99.7486 5.41723 98.7926 5.41723C98.5577 5.41105 98.3245 5.4577 98.1101 5.55374C97.8957 5.64979 97.7056 5.79277 97.5539 5.97213C97.2218 6.36772 97.0483 6.8724 97.0668 7.38855V11.513H95.4238V4.28165H97.0695V5.48235H97.098C97.6407 4.56973 98.4222 4.11297 99.4425 4.11206C100.229 4.11206 100.83 4.36758 101.244 4.87861C101.658 5.38964 101.866 6.1277 101.866 7.09279V11.5144Z" fill="white"/>
<path id="Vector_8" d="M110.425 11.5145H108.349L105.538 8.03996H105.511V11.5145H103.865V0.807251H105.511V7.59088H105.538L108.193 4.27776H110.165L107.18 7.76726L110.425 11.5145Z" fill="white"/>
<path id="Vector_9" d="M3.67503 19.5227H3.17304L2.76603 18.4373H1.12439L0.737721 19.5227H0.234375L1.71728 15.6547H2.18263L3.67503 19.5227ZM2.61407 18.0303L2.00762 16.3819C1.98024 16.2974 1.96026 16.2107 1.94792 16.1227H1.93707C1.92476 16.2108 1.90432 16.2976 1.87601 16.3819L1.27363 18.0303H2.61407Z" fill="white"/>
<path id="Vector_10" d="M9.62195 19.5226H9.17965V17.9352C9.19871 17.7056 9.15163 17.4754 9.04398 17.2718C8.988 17.2006 8.91509 17.1446 8.83192 17.1088C8.74874 17.073 8.65793 17.0586 8.56777 17.0669C8.47251 17.0679 8.37893 17.092 8.29504 17.1372C8.21115 17.1823 8.13946 17.2471 8.08613 17.326C7.95155 17.5047 7.88171 17.7238 7.88805 17.9474V19.5226H7.44576V17.8823C7.44576 17.3396 7.23592 17.0683 6.81623 17.0683C6.72244 17.0674 6.62982 17.0891 6.54621 17.1316C6.46261 17.1741 6.39048 17.2362 6.33595 17.3125C6.20307 17.4972 6.13661 17.7215 6.14737 17.9488V19.5239H5.70508V16.7603H6.14737V17.1972H6.15822C6.23976 17.0415 6.36337 16.912 6.51498 16.8232C6.66658 16.7345 6.84007 16.6901 7.01567 16.6952C7.19317 16.6915 7.36687 16.7469 7.50952 16.8525C7.64712 16.9536 7.74846 17.0963 7.79851 17.2596C7.87909 17.0853 8.00883 16.9385 8.17177 16.837C8.33471 16.7355 8.52375 16.6839 8.71565 16.6884C9.32346 16.6884 9.62737 17.0633 9.62737 17.8131L9.62195 19.5226Z" fill="white"/>
<path id="Vector_11" d="M12.6786 18.252H10.7296C10.7197 18.5123 10.8084 18.7667 10.978 18.9645C11.063 19.0499 11.1652 19.1163 11.2776 19.1596C11.3901 19.2029 11.5105 19.2219 11.6308 19.2156C11.9442 19.2151 12.2477 19.1063 12.4899 18.9075V19.3242C12.2056 19.5145 11.8682 19.6096 11.5263 19.5956C11.3546 19.6044 11.1831 19.5751 11.024 19.5099C10.8649 19.4446 10.7222 19.3451 10.6061 19.2183C10.3817 18.9677 10.27 18.6148 10.2709 18.1597C10.2547 17.7752 10.3858 17.399 10.6373 17.1078C10.7495 16.9775 10.889 16.8734 11.0459 16.803C11.2028 16.7327 11.3733 16.6977 11.5453 16.7007C11.7025 16.6917 11.8597 16.7186 12.005 16.7792C12.1503 16.8399 12.2799 16.9327 12.3841 17.0508C12.5966 17.3296 12.702 17.6754 12.6813 18.0253L12.6786 18.252ZM12.2225 17.8774C12.2338 17.6629 12.1678 17.4516 12.0366 17.2815C11.9742 17.2099 11.8963 17.1533 11.8089 17.1162C11.7214 17.079 11.6266 17.0623 11.5317 17.0671C11.4323 17.0653 11.3337 17.0843 11.2421 17.1229C11.1504 17.1615 11.0679 17.2187 10.9997 17.291C10.848 17.4519 10.7528 17.6577 10.7283 17.8774H12.2225Z" fill="white"/>
<path id="Vector_12" d="M17.268 19.5225H16.8257V17.9351C16.8435 17.7048 16.794 17.4743 16.6832 17.2717C16.6273 17.2005 16.5544 17.1445 16.4712 17.1087C16.388 17.0729 16.2972 17.0585 16.207 17.0668C16.112 17.0679 16.0186 17.0921 15.935 17.1372C15.8513 17.1823 15.7799 17.2471 15.7268 17.3259C15.5922 17.5046 15.5223 17.7237 15.5287 17.9473V19.5225H15.085V17.8822C15.085 17.3395 14.8756 17.0681 14.4569 17.0681C14.3631 17.0672 14.2704 17.089 14.1868 17.1315C14.1032 17.174 14.0311 17.2361 13.9766 17.3124C13.8437 17.4971 13.7772 17.7214 13.788 17.9487V19.5238H13.3457V16.7602H13.788V17.197H13.7988C13.88 17.0393 14.0043 16.9078 14.1573 16.8179C14.3104 16.7281 14.4857 16.6836 14.6631 16.6896C14.8382 16.6857 15.0097 16.7395 15.1512 16.8427C15.2926 16.946 15.3962 17.0929 15.4459 17.2608C15.5265 17.0866 15.6562 16.9397 15.8192 16.8382C15.9821 16.7368 16.1712 16.6851 16.3631 16.6896C16.9709 16.6896 17.2748 17.0645 17.2748 17.8143L17.268 19.5225Z" fill="white"/>
<path id="Vector_13" d="M18.5567 19.1223H18.5458V19.5293H18.1035V15.432H18.5458V17.2459H18.5567C18.6484 17.0751 18.7857 16.9332 18.9534 16.8359C19.1211 16.7387 19.3126 16.6899 19.5064 16.6951C19.6645 16.6876 19.8222 16.7172 19.9668 16.7815C20.1115 16.8458 20.2391 16.9431 20.3394 17.0655C20.5516 17.3522 20.6576 17.7038 20.6392 18.06C20.6592 18.4578 20.5403 18.8501 20.3028 19.1698C20.1924 19.3067 20.0514 19.4159 19.8912 19.4884C19.731 19.561 19.5559 19.595 19.3802 19.5877C19.2134 19.5931 19.0484 19.5526 18.9031 19.4705C18.7579 19.3885 18.638 19.268 18.5567 19.1223ZM18.5458 18.0084V18.3951C18.5411 18.6103 18.621 18.8188 18.7683 18.9758C18.8476 19.0569 18.9434 19.1201 19.0492 19.1611C19.1551 19.202 19.2684 19.2199 19.3817 19.2133C19.495 19.2067 19.6055 19.176 19.7059 19.1231C19.8063 19.0701 19.8942 18.9963 19.9636 18.9066C20.1293 18.6535 20.2092 18.3538 20.1915 18.0518C20.2068 17.7934 20.1315 17.5376 19.9785 17.3287C19.9094 17.2432 19.8213 17.1751 19.7212 17.1296C19.6211 17.0841 19.5118 17.0627 19.4019 17.0669C19.2846 17.0628 19.168 17.0851 19.0604 17.132C18.9529 17.179 18.8573 17.2494 18.7805 17.3382C18.6219 17.5248 18.5383 17.7636 18.5458 18.0084Z" fill="white"/>
<path id="Vector_14" d="M23.5739 18.252H21.6222C21.6117 18.5124 21.7005 18.767 21.8706 18.9645C21.9556 19.0499 22.0577 19.1163 22.1702 19.1596C22.2827 19.2029 22.403 19.2219 22.5234 19.2156C22.8363 19.2148 23.1393 19.106 23.3811 18.9075V19.3242C23.0973 19.5145 22.7603 19.6096 22.4189 19.5956C22.2472 19.6044 22.0757 19.5751 21.9166 19.5099C21.7575 19.4446 21.6148 19.3451 21.4987 19.2183C21.2752 18.9677 21.1634 18.6148 21.1634 18.1597C21.1473 17.7752 21.2783 17.399 21.5299 17.1078C21.6421 16.9775 21.7816 16.8734 21.9385 16.803C22.0954 16.7327 22.2659 16.6977 22.4379 16.7007C22.5951 16.6917 22.7523 16.7186 22.8975 16.7792C23.0428 16.8399 23.1725 16.9327 23.2766 17.0508C23.4892 17.3296 23.5946 17.6754 23.5739 18.0253V18.252ZM23.1206 17.8774C23.1318 17.6629 23.0658 17.4516 22.9346 17.2815C22.8722 17.2099 22.7943 17.1533 22.7069 17.1162C22.6194 17.079 22.5246 17.0623 22.4297 17.0671C22.3303 17.0653 22.2317 17.0843 22.1401 17.1229C22.0485 17.1615 21.9659 17.2187 21.8977 17.291C21.746 17.4519 21.6508 17.6577 21.6263 17.8774H23.1206Z" fill="white"/>
<path id="Vector_15" d="M25.6836 17.2081C25.5846 17.1424 25.4669 17.1109 25.3483 17.1185C25.2529 17.1202 25.1594 17.1459 25.0766 17.1934C24.9938 17.2408 24.9243 17.3085 24.8747 17.39C24.7372 17.6073 24.6708 17.862 24.6846 18.1188V19.5276H24.2422V16.7602H24.6846V17.3289H24.6955C24.7466 17.1529 24.8469 16.9952 24.9846 16.8742C25.1048 16.7691 25.2592 16.7112 25.4189 16.7114C25.511 16.7064 25.6032 16.7193 25.6903 16.7494L25.6836 17.2081Z" fill="white"/>
<path id="Vector_16" d="M28.8297 19.5889C28.6485 19.5969 28.4676 19.5665 28.2989 19.4996C28.1302 19.4327 27.9777 19.3308 27.8512 19.2007C27.5988 18.9203 27.4676 18.5514 27.4861 18.1746C27.4861 17.7105 27.6123 17.3467 27.8661 17.0889C28.0006 16.9547 28.1615 16.85 28.3386 16.7813C28.5157 16.7126 28.7051 16.6814 28.8949 16.6898C29.0734 16.6797 29.2521 16.7085 29.4184 16.7741C29.5848 16.8397 29.7349 16.9406 29.8585 17.0699C30.0902 17.3232 30.206 17.6752 30.206 18.1258C30.224 18.5138 30.0901 18.8935 29.8327 19.1844C29.704 19.3194 29.5479 19.4253 29.3749 19.495C29.202 19.5648 29.0161 19.5968 28.8297 19.5889ZM28.8623 17.0672C28.7346 17.0609 28.6071 17.0838 28.4895 17.1341C28.372 17.1845 28.2674 17.2609 28.1837 17.3576C28.0068 17.5857 27.9185 17.8702 27.9353 18.1584C27.9191 18.4386 28.0087 18.7147 28.1864 18.932C28.2712 19.0269 28.3761 19.1017 28.4936 19.1508C28.611 19.1999 28.7379 19.222 28.865 19.2156C28.989 19.2232 29.113 19.202 29.2274 19.1538C29.3418 19.1055 29.4436 19.0314 29.5246 18.9374C29.6917 18.7093 29.7734 18.4297 29.7554 18.1475C29.7736 17.8623 29.692 17.5797 29.5246 17.3481C29.4437 17.253 29.3417 17.1781 29.2267 17.1294C29.1117 17.0806 28.987 17.0593 28.8623 17.0672Z" fill="white"/>
<path id="Vector_17" d="M32.2776 15.8214C32.1875 15.7716 32.086 15.7464 31.9831 15.7481C31.6738 15.7481 31.5191 15.943 31.5191 16.3328V16.7602H32.1649V17.1374H31.5178V19.5225H31.0796V17.1374H30.6074V16.7602H31.0796V16.3111C31.073 16.1859 31.0919 16.0607 31.135 15.9429C31.1781 15.8252 31.2447 15.7174 31.3306 15.626C31.4118 15.543 31.5092 15.4778 31.6169 15.4344C31.7245 15.391 31.84 15.3703 31.956 15.3736C32.0652 15.3697 32.1742 15.3858 32.2776 15.4211V15.8214Z" fill="white"/>
<path id="Vector_18" d="M34.0332 19.3654V18.8322C34.0995 18.8904 34.1734 18.9392 34.253 18.9773C34.3403 19.0213 34.4311 19.058 34.5243 19.0872C34.6178 19.1156 34.713 19.1383 34.8093 19.1551C34.8966 19.1706 34.9851 19.1788 35.0738 19.1795C35.293 19.1954 35.5115 19.1412 35.6979 19.0248C35.7989 18.9383 35.8675 18.8199 35.8921 18.6891C35.9168 18.5584 35.8961 18.4232 35.8336 18.3058C35.7836 18.2243 35.7192 18.1526 35.6436 18.0941C35.5533 18.0248 35.4571 17.9635 35.356 17.911C35.2448 17.8526 35.1254 17.7902 34.9978 17.7264C34.8703 17.6627 34.7373 17.5908 34.6207 17.5175C34.5099 17.4528 34.4074 17.3749 34.3154 17.2855C34.231 17.203 34.162 17.1061 34.1119 16.9992C34.0607 16.8802 34.0357 16.7516 34.0386 16.6221C34.0344 16.4611 34.0743 16.3021 34.154 16.1621C34.23 16.0332 34.3344 15.9233 34.4592 15.8406C34.5907 15.7535 34.7362 15.6897 34.8893 15.652C35.0501 15.6102 35.2156 15.5892 35.3818 15.5896C35.6662 15.5709 35.9511 15.6173 36.2148 15.7253V16.2354C35.9533 16.0673 35.6462 15.9844 35.3357 15.998C35.2358 15.9976 35.1362 16.0081 35.0385 16.0292C34.9451 16.0474 34.8555 16.0818 34.774 16.1309C34.6984 16.1756 34.6339 16.2368 34.5854 16.31C34.535 16.3913 34.51 16.4858 34.5135 16.5814C34.5111 16.6695 34.5297 16.7569 34.5678 16.8364C34.6081 16.9128 34.664 16.9798 34.7319 17.0332C34.8133 17.0995 34.901 17.1577 34.9938 17.2068C35.0969 17.2624 35.2176 17.3235 35.3519 17.39C35.4863 17.4564 35.6233 17.5256 35.7454 17.6057C35.8635 17.6767 35.9732 17.7609 36.0724 17.8567C36.1629 17.9449 36.2381 18.0476 36.2949 18.1606C36.3508 18.2807 36.3786 18.412 36.3763 18.5445C36.3817 18.7129 36.3434 18.8798 36.265 19.0289C36.1919 19.1591 36.088 19.2695 35.9625 19.3504C35.8286 19.4367 35.6801 19.4979 35.5242 19.5309C35.3522 19.5685 35.1766 19.5871 35.0005 19.5865C34.9248 19.5855 34.8491 19.58 34.774 19.5702C34.6844 19.5607 34.5922 19.5472 34.5026 19.5282C34.413 19.5103 34.3247 19.4867 34.2381 19.4576C34.1655 19.4373 34.0965 19.4062 34.0332 19.3654Z" fill="white"/>
<path id="Vector_19" d="M38.1946 19.4957C38.066 19.5585 37.9238 19.5883 37.7808 19.5826C37.2978 19.5826 37.0549 19.3112 37.0549 18.7685V17.1377H36.5801V16.7606H37.0495V16.0822L37.4932 15.9465V16.7606H38.1892V17.1377H37.4932V18.6939C37.4808 18.8326 37.5137 18.9716 37.5868 19.0901C37.6261 19.133 37.6749 19.1662 37.7293 19.187C37.7837 19.2077 37.8422 19.2154 37.9002 19.2095C38.0042 19.2123 38.106 19.1797 38.1892 19.1172L38.1946 19.4957Z" fill="white"/>
<path id="Vector_20" d="M40.762 19.5234H40.3196V19.0904H40.306C40.2254 19.2448 40.1029 19.3733 39.9527 19.4614C39.8025 19.5495 39.6305 19.5935 39.4564 19.5885C39.2206 19.6026 38.9886 19.5237 38.8104 19.3686C38.7323 19.2944 38.671 19.2042 38.6307 19.1042C38.5905 19.0042 38.5721 18.8968 38.5769 18.7891C38.5769 18.2716 38.8809 17.9712 39.489 17.8879L40.3169 17.7712C40.3169 17.3016 40.1273 17.0668 39.7482 17.0668C39.4163 17.0663 39.0956 17.1875 38.847 17.4075V16.9609C39.128 16.7856 39.4537 16.6956 39.7849 16.7017C40.4354 16.7017 40.7602 17.0455 40.7593 17.7332L40.762 19.5234ZM40.3196 18.1254L39.6532 18.2164C39.4888 18.2315 39.3301 18.284 39.189 18.3697C39.1328 18.4161 39.0891 18.4758 39.0619 18.5433C39.0346 18.6109 39.0247 18.6842 39.0329 18.7565C39.031 18.8189 39.0429 18.881 39.0678 18.9382C39.0927 18.9955 39.1299 19.0465 39.1768 19.0877C39.2844 19.1767 39.4214 19.2222 39.5609 19.2153C39.6626 19.2179 39.7637 19.1987 39.8574 19.1589C39.9511 19.1191 40.0351 19.0596 40.1038 18.9845C40.2497 18.826 40.3268 18.6162 40.3182 18.4009L40.3196 18.1254Z" fill="white"/>
<path id="Vector_21" d="M43.8875 19.5235H43.445V17.9477C43.445 17.3605 43.231 17.0669 42.803 17.0669C42.6986 17.065 42.5951 17.0864 42.5 17.1296C42.4049 17.1728 42.3206 17.2367 42.2534 17.3166C42.1051 17.4927 42.0277 17.7177 42.0362 17.9477V19.5235H41.5938V16.7602H42.0362V17.2189H42.0471C42.1348 17.0561 42.266 16.9209 42.4261 16.8284C42.5862 16.7359 42.7689 16.6897 42.9537 16.695C43.0841 16.6869 43.2146 16.7091 43.3349 16.76C43.4553 16.8108 43.5622 16.889 43.6472 16.9882C43.8228 17.2337 43.9077 17.5325 43.8875 17.8337V19.5235Z" fill="white"/>
<path id="Vector_22" d="M47.0801 19.5225H46.6378V19.0531H46.627C46.5365 19.2016 46.4125 19.3268 46.265 19.4187C46.1174 19.5107 45.9504 19.5668 45.7773 19.5826C45.6041 19.5984 45.4297 19.5735 45.2679 19.5098C45.1061 19.4462 44.9615 19.3455 44.8456 19.2159C44.6242 18.9276 44.5135 18.5695 44.5336 18.2065C44.5136 17.8106 44.6363 17.4206 44.8795 17.1076C44.9915 16.9739 45.1327 16.8676 45.2921 16.7971C45.4516 16.7265 45.6251 16.6935 45.7994 16.7006C45.9655 16.6898 46.1313 16.726 46.2777 16.8052C46.4241 16.8844 46.5451 17.0033 46.627 17.1483H46.6378V15.432H47.0801V19.5225ZM46.6378 18.273V17.866C46.6404 17.7615 46.6222 17.6576 46.5842 17.5602C46.5463 17.4629 46.4893 17.374 46.4167 17.2989C46.345 17.2229 46.2579 17.1629 46.1614 17.1229C46.0648 17.0829 45.9609 17.0638 45.8564 17.0669C45.7341 17.0618 45.6123 17.0861 45.5014 17.1378C45.3904 17.1895 45.2935 17.2671 45.2187 17.364C45.0528 17.6019 44.9712 17.8884 44.9867 18.178C44.972 18.4471 45.0506 18.7131 45.2092 18.931C45.2808 19.0199 45.3722 19.0907 45.4761 19.1378C45.58 19.1849 45.6935 19.207 45.8075 19.2024C45.9215 19.2053 46.0346 19.1824 46.1385 19.1354C46.2423 19.0884 46.3342 19.0185 46.4072 18.931C46.5613 18.7469 46.6433 18.513 46.6378 18.273Z" fill="white"/>
<path id="Vector_23" d="M49.9507 19.5234H49.5083V19.0904H49.4974C49.417 19.245 49.2947 19.3737 49.1444 19.4618C48.9941 19.55 48.8219 19.5939 48.6478 19.5885C48.412 19.6023 48.1802 19.5234 48.0018 19.3686C47.9237 19.2944 47.8624 19.2042 47.8221 19.1042C47.7819 19.0043 47.7635 18.8968 47.7683 18.7891C47.7683 18.2716 48.0723 17.9712 48.6804 17.8879L49.5083 17.7712C49.5083 17.3016 49.3196 17.0668 48.9396 17.0668C48.6077 17.0663 48.287 17.1875 48.0384 17.4075V16.9609C48.3198 16.7856 48.6461 16.6955 48.9776 16.7017C49.6264 16.7017 49.9507 17.0455 49.9507 17.7332V19.5234ZM49.5083 18.1254L48.8419 18.2164C48.6775 18.2315 48.5188 18.284 48.3777 18.3697C48.3215 18.4161 48.2778 18.4758 48.2506 18.5433C48.2233 18.6109 48.2134 18.6842 48.2216 18.7565C48.2196 18.8191 48.2316 18.8813 48.2567 18.9386C48.2819 18.9959 48.3195 19.0468 48.3669 19.0877C48.4742 19.1772 48.6114 19.2227 48.751 19.2153C48.8527 19.2176 48.9537 19.1983 49.0473 19.1585C49.1409 19.1187 49.225 19.0594 49.2938 18.9846C49.4382 18.8252 49.5146 18.6158 49.5069 18.4009L49.5083 18.1254Z" fill="white"/>
<path id="Vector_24" d="M52.2265 17.2082C52.1276 17.1424 52.0098 17.111 51.8913 17.1186C51.7959 17.1203 51.7025 17.1461 51.6197 17.1936C51.5369 17.241 51.4674 17.3086 51.4176 17.39C51.2802 17.6074 51.2138 17.8621 51.2276 18.1189V19.5276H50.7852V16.7603H51.2276V17.329H51.2385C51.2901 17.1532 51.3903 16.9956 51.5276 16.8743C51.6478 16.7691 51.8021 16.7112 51.9619 16.7114C52.054 16.7063 52.1462 16.7192 52.2333 16.7494L52.2265 17.2082Z" fill="white"/>
<path id="Vector_25" d="M55.064 19.5225H54.6217V19.0531H54.6095C54.5179 19.2229 54.3801 19.3632 54.212 19.4578C54.0439 19.5524 53.8524 19.5974 53.6598 19.5877C53.5018 19.5934 53.3445 19.5629 53.2001 19.4985C53.0557 19.4341 52.928 19.3374 52.8268 19.2159C52.6058 18.9274 52.4956 18.5693 52.5161 18.2065C52.4957 17.8108 52.618 17.4208 52.8607 17.1076C52.9729 16.9741 53.114 16.868 53.2735 16.7975C53.4329 16.727 53.6063 16.6938 53.7806 16.7006C53.9467 16.6896 54.1125 16.7258 54.2589 16.805C54.4054 16.8842 54.5264 17.0032 54.6082 17.1483H54.6204V15.432H55.0627L55.064 19.5225ZM54.6217 18.273V17.866C54.624 17.7615 54.6056 17.6577 54.5677 17.5604C54.5297 17.4631 54.4729 17.3742 54.4006 17.2989C54.3286 17.2228 54.2413 17.1628 54.1445 17.1229C54.0477 17.0829 53.9436 17.0638 53.8389 17.0669C53.7168 17.0618 53.5952 17.0861 53.4845 17.1378C53.3738 17.1895 53.2771 17.2671 53.2026 17.364C53.0367 17.6019 52.955 17.8884 52.9706 18.178C52.9553 18.4472 53.034 18.7134 53.1931 18.931C53.2643 19.0199 53.3555 19.0908 53.4592 19.1379C53.5629 19.1851 53.6762 19.2071 53.7901 19.2024C53.904 19.2054 54.0172 19.1825 54.121 19.1355C54.2249 19.0885 54.3168 19.0186 54.3897 18.931C54.5443 18.7471 54.6268 18.5132 54.6217 18.273Z" fill="white"/>
<path id="Vector_26" d="M57.5352 19.5226V15.6546H58.6355C58.9214 15.6393 59.2036 15.7258 59.4319 15.8988C59.5265 15.9759 59.6022 16.0738 59.653 16.1848C59.7038 16.2958 59.7284 16.4171 59.7249 16.5391C59.7298 16.7439 59.6674 16.9445 59.5472 17.1103C59.4245 17.275 59.2524 17.3962 59.056 17.4563V17.4671C59.2937 17.4863 59.5164 17.5909 59.6829 17.7616C59.8433 17.939 59.9276 18.1724 59.9176 18.4114C59.9223 18.5635 59.8927 18.7147 59.8309 18.8538C59.7691 18.9928 59.6768 19.1162 59.5607 19.2146C59.3096 19.4245 58.9897 19.5342 58.6626 19.5226H57.5352ZM57.9883 16.0643V17.3125H58.4523C58.6624 17.3246 58.8698 17.261 59.0371 17.1334C59.1089 17.0709 59.1654 16.9928 59.2023 16.9051C59.2393 16.8174 59.2556 16.7224 59.2501 16.6273C59.2501 16.252 59.0031 16.0643 58.5093 16.0643H57.9883ZM57.9883 17.7195V19.1129H58.6029C58.8253 19.1266 59.0452 19.0591 59.2216 18.9229C59.2952 18.8592 59.3534 18.7795 59.3918 18.69C59.4301 18.6004 59.4475 18.5033 59.4427 18.406C59.4427 17.9488 59.1307 17.7195 58.5093 17.7195H57.9883Z" fill="white"/>
<path id="Vector_27" d="M62.6168 19.5234H62.1743V19.0904H62.1634C62.0828 19.2448 61.9604 19.3733 61.8101 19.4614C61.6599 19.5495 61.4879 19.5935 61.3138 19.5885C61.078 19.6026 60.8461 19.5237 60.6678 19.3686C60.5897 19.2944 60.5284 19.2042 60.4881 19.1042C60.4479 19.0043 60.4295 18.8968 60.4343 18.7891C60.4343 18.2716 60.7379 17.9712 61.345 17.8879L62.1743 17.7712C62.1743 17.3016 61.9843 17.0668 61.6043 17.0668C61.2723 17.0663 60.9517 17.1875 60.7031 17.4075V16.9609C60.9845 16.7856 61.3107 16.6955 61.6423 16.7017C62.2928 16.7017 62.6177 17.0455 62.6168 17.7332V19.5234ZM62.1743 18.1254L61.5079 18.2164C61.3435 18.2315 61.1848 18.284 61.0437 18.3697C60.9875 18.4161 60.9438 18.4758 60.9166 18.5433C60.8893 18.6109 60.8794 18.6842 60.8877 18.7565C60.8857 18.8189 60.8977 18.881 60.9225 18.9382C60.9474 18.9955 60.9846 19.0465 61.0315 19.0877C61.139 19.1769 61.2761 19.2225 61.4156 19.2153C61.5173 19.2179 61.6185 19.1987 61.7121 19.1589C61.8058 19.1191 61.8898 19.0596 61.9585 18.9846C62.1033 18.8254 62.1803 18.616 62.1729 18.4009L62.1743 18.1254Z" fill="white"/>
<path id="Vector_28" d="M65.7429 19.5235H65.3005V17.9477C65.3005 17.3605 65.0865 17.0669 64.6585 17.0669C64.5552 17.066 64.453 17.0879 64.3591 17.1311C64.2653 17.1742 64.1821 17.2376 64.1156 17.3166C63.968 17.493 63.8906 17.7178 63.8985 17.9477V19.5235H63.4492V16.7602H63.8917V17.2189H63.9025C63.9904 17.0562 64.1216 16.9211 64.2817 16.8286C64.4418 16.7361 64.6244 16.6899 64.8092 16.695C64.9396 16.6869 65.0701 16.7091 65.1904 16.76C65.3108 16.8108 65.4177 16.889 65.5027 16.9882C65.6783 17.2337 65.7632 17.5325 65.7429 17.8337V19.5235Z" fill="white"/>
<path id="Vector_29" d="M68.8696 19.5225H68.2523L67.0313 18.1943H67.0204V19.5225H66.5781V15.432H67.0204V18.0247H67.0313L68.1913 16.7602H68.7706L67.4898 18.0926L68.8696 19.5225Z" fill="white"/>
<path id="Vector_30" d="M73.7862 19.2579C73.3906 19.4794 72.9438 19.5931 72.4905 19.5876C72.2423 19.5975 71.9948 19.5549 71.7641 19.4628C71.5334 19.3707 71.3247 19.2311 71.1514 19.0531C70.8114 18.6958 70.6409 18.2246 70.64 17.6394C70.6303 17.3679 70.6756 17.0973 70.7733 16.8438C70.871 16.5904 71.019 16.3593 71.2084 16.1646C71.3955 15.9748 71.6199 15.8257 71.8674 15.7267C72.1148 15.6277 72.3801 15.5809 72.6466 15.5894C73.0111 15.5778 73.3735 15.6478 73.7075 15.7942V16.2962C73.3734 16.0924 72.9876 15.9892 72.5964 15.9991C72.3969 15.9927 72.1984 16.0294 72.0144 16.1067C71.8303 16.184 71.6651 16.3 71.53 16.4468C71.2459 16.7647 71.0969 17.1808 71.1148 17.6068C71.1148 18.0961 71.2433 18.4805 71.5001 18.76C71.6344 18.901 71.7974 19.0113 71.9782 19.0837C72.1589 19.156 72.3531 19.1886 72.5475 19.1793C72.82 19.1863 73.0897 19.1242 73.3317 18.9988V17.9134H72.4851V17.5064H73.7862V19.2579Z" fill="white"/>
<path id="Vector_31" d="M76.0656 17.2081C75.9667 17.1424 75.8489 17.1109 75.7304 17.1185C75.635 17.1203 75.5415 17.1461 75.4587 17.1935C75.3759 17.241 75.3065 17.3085 75.2567 17.39C75.1193 17.6073 75.0529 17.862 75.0667 18.1188V19.5276H74.627V16.7602H75.0694V17.3289H75.0803C75.1314 17.1529 75.2317 16.9952 75.3693 16.8742C75.4896 16.7691 75.6439 16.7112 75.8037 16.7114C75.8957 16.7064 75.9879 16.7193 76.0751 16.7494L76.0656 17.2081Z" fill="white"/>
<path id="Vector_32" d="M77.7002 19.5887C77.5189 19.5969 77.3379 19.5666 77.1692 19.4996C77.0005 19.4327 76.848 19.3308 76.7216 19.2005C76.4689 18.9202 76.3372 18.5514 76.3551 18.1745C76.3551 17.7103 76.4827 17.3466 76.7365 17.0887C76.8714 16.956 77.0324 16.8528 77.2092 16.7855C77.3861 16.7182 77.575 16.6884 77.7639 16.6978C77.9427 16.6876 78.1216 16.7163 78.2882 16.7819C78.4548 16.8475 78.6051 16.9485 78.7289 17.0778C78.9596 17.3316 79.0764 17.6832 79.0764 18.1338C79.0952 18.5221 78.9607 18.9023 78.7018 19.1924C78.5725 19.3258 78.4163 19.4301 78.2436 19.4984C78.0709 19.5667 77.8857 19.5975 77.7002 19.5887ZM77.7314 17.067C77.6036 17.0608 77.4762 17.0838 77.3586 17.1341C77.2411 17.1844 77.1365 17.2608 77.0528 17.3574C76.8758 17.5855 76.7876 17.87 76.8044 18.1582C76.7888 18.4383 76.8784 18.7142 77.0555 18.9318C77.1402 19.0268 77.2452 19.1015 77.3626 19.1506C77.48 19.1997 77.607 19.2218 77.7341 19.2155C77.8582 19.2226 77.9823 19.2013 78.0968 19.153C78.2114 19.1048 78.3134 19.031 78.395 18.9372C78.5621 18.7091 78.6438 18.4295 78.6258 18.1473C78.644 17.8622 78.5624 17.5795 78.395 17.3479C78.3134 17.2533 78.2111 17.1788 78.096 17.13C77.9809 17.0813 77.8561 17.0597 77.7314 17.067Z" fill="white"/>
<path id="Vector_33" d="M82.0164 19.5237H81.5739V19.0866H81.563C81.4844 19.2438 81.3619 19.3748 81.2104 19.4639C81.059 19.553 80.8849 19.5964 80.7094 19.5888C80.0511 19.5888 79.7227 19.1952 79.7227 18.4121V16.7604H80.1624V18.3415C80.1624 18.9242 80.3854 19.2156 80.8315 19.2156C80.9326 19.218 81.0329 19.1978 81.1252 19.1565C81.2175 19.1152 81.2994 19.0538 81.3649 18.9767C81.5094 18.8016 81.5839 18.5792 81.5739 18.3524V16.7604H82.0164V19.5237Z" fill="white"/>
<path id="Vector_34" d="M83.3629 19.1224H83.352V20.7926H82.9043V16.7604H83.3466V17.2461H83.3574C83.4492 17.0753 83.5865 16.9333 83.7542 16.836C83.9219 16.7388 84.1134 16.69 84.3072 16.6952C84.4653 16.6873 84.6232 16.7167 84.7679 16.781C84.9126 16.8454 85.0401 16.9429 85.1402 17.0656C85.353 17.352 85.4591 17.7038 85.44 18.0601C85.46 18.4579 85.3411 18.8502 85.1036 19.1699C84.9932 19.3069 84.8522 19.416 84.692 19.4886C84.5317 19.5611 84.3567 19.5951 84.181 19.5878C84.0154 19.5905 83.8522 19.5487 83.7083 19.4669C83.5644 19.385 83.4451 19.2661 83.3629 19.1224ZM83.352 18.0085V18.3952C83.3473 18.6104 83.4272 18.8189 83.5745 18.9759C83.6538 19.057 83.7496 19.1202 83.8555 19.1612C83.9613 19.2022 84.0746 19.22 84.1879 19.2134C84.3012 19.2069 84.4117 19.1761 84.5121 19.1232C84.6125 19.0703 84.7004 18.9965 84.7698 18.9067C84.9355 18.6536 85.0154 18.354 84.9977 18.052C85.013 17.7935 84.9377 17.5377 84.7847 17.3288C84.7156 17.2434 84.6275 17.1752 84.5274 17.1297C84.4273 17.0843 84.318 17.0628 84.2081 17.067C84.0908 17.0629 83.9742 17.0852 83.8666 17.1322C83.7591 17.1791 83.6635 17.2496 83.5867 17.3383C83.4281 17.5249 83.3445 17.7638 83.352 18.0085Z" fill="white"/>
</g>
</svg>
