<svg width="110" height="32" viewBox="0 0 110 32" fill="none" xmlns="http://www.w3.org/2000/svg">
<g id="Group">
<g id="Group_2">
<path id="Vector" d="M44.1036 5.49338V10.3729C43.962 10.2784 43.8046 10.2155 43.6629 10.1525C43.2379 9.99509 42.8287 9.90064 42.4509 9.85342C42.0731 9.8062 41.7583 9.7905 41.5222 9.7905C39.6963 9.7905 38.3269 10.3256 37.4297 11.3802C36.5325 12.4506 36.0918 13.8987 36.0918 15.7403C36.0918 16.9208 36.2335 17.9125 36.5325 18.6995C36.8316 19.4865 37.2566 20.1161 37.7918 20.5726C38.3269 21.0291 38.9723 21.3596 39.7121 21.5485C40.4519 21.7374 41.2704 21.8476 42.1518 21.8476C42.8129 21.8476 43.4583 21.7846 44.0879 21.6272C44.7175 21.4855 45.2841 21.2809 45.7878 21.0133C46.2915 20.7458 46.685 20.3994 46.9841 19.9902C47.2832 19.5809 47.4248 19.1088 47.4248 18.5579V5.46191H44.1036V5.49338ZM44.1036 18.2116C44.1036 18.4949 43.9462 18.7152 43.5999 18.8569C43.2694 18.9985 42.8287 19.0773 42.2777 19.0773C41.5852 19.0773 41.0185 18.9514 40.6093 18.6995C40.2 18.4477 39.901 18.0699 39.7278 17.5977C39.5547 17.1255 39.4602 16.5431 39.4602 15.8662C39.4602 15.032 39.5704 14.3867 39.7908 13.883C40.0111 13.395 40.3259 13.033 40.7509 12.8284C41.1759 12.6237 41.7111 12.5135 42.3565 12.5135C42.624 12.5135 42.9074 12.5608 43.2222 12.6395C43.5212 12.7182 43.8203 12.8284 44.1036 12.9858V18.2116Z" fill="#0B24FA"/>
<path id="Vector_2" d="M49.125 21.5328V10.3257H52.4777L52.4934 21.5328H49.125Z" fill="#0B24FA"/>
<path id="Vector_3" d="M64.0616 11.2388C63.6681 10.798 63.1329 10.4517 62.4246 10.1999C61.7163 9.96378 60.8978 9.83789 59.9534 9.83789C58.9775 9.83789 58.0961 9.93234 57.309 10.137C56.522 10.3258 55.8294 10.6564 55.2785 11.1286C54.7119 11.5851 54.2869 12.2462 53.9721 13.0804C53.6573 13.9146 53.5156 14.9535 53.5156 16.2127C53.5156 17.4562 53.7202 18.4793 54.1295 19.2978C54.5387 20.1163 55.1054 20.7302 55.8452 21.1552C56.585 21.5802 57.4822 21.8162 58.5053 21.8635C59.0562 21.8635 59.5599 21.8005 60.0164 21.6431C60.4571 21.5014 60.8506 21.2968 61.1811 21.045C61.2441 20.9978 61.3228 20.9348 61.3858 20.8876V21.5172C61.3858 21.9421 61.3228 22.3199 61.1654 22.6505C61.0237 22.981 60.7562 23.2486 60.3627 23.4375C59.9849 23.6421 59.434 23.7365 58.7414 23.7365C58.1905 23.7365 57.6396 23.6893 57.1201 23.5791C56.585 23.4847 56.097 23.343 55.672 23.2014C55.2313 23.0597 54.9008 22.9338 54.6804 22.8236V25.7671C55.0582 25.9717 55.5934 26.1448 56.3017 26.2865C57.01 26.4281 57.8599 26.4911 58.8673 26.4911C59.8117 26.4911 60.646 26.3967 61.3543 26.192C62.0626 25.9874 62.6765 25.6883 63.1802 25.2634C63.6839 24.8541 64.0616 24.3347 64.3135 23.7365C64.5653 23.1384 64.6912 22.4301 64.6912 21.6274V12.86C64.644 12.2461 64.4551 11.6952 64.0616 11.2388ZM60.4256 19.2348C60.0793 19.3293 59.7173 19.3765 59.3395 19.3765C58.584 19.3765 57.9859 19.0774 57.5136 18.4635C57.0572 17.8654 56.8211 17.0312 56.8211 16.0081C56.8211 15.3312 56.8998 14.7331 57.0729 14.1979C57.2461 13.6628 57.5294 13.2535 57.9229 12.9544C58.3164 12.6554 58.8516 12.5137 59.5284 12.5137C59.8432 12.5137 60.1423 12.5452 60.4099 12.6081C60.6775 12.6711 60.8978 12.7813 61.0867 12.9387C61.2756 13.0961 61.3543 13.348 61.3543 13.6628V18.8728C61.0867 19.0302 60.7719 19.1561 60.4256 19.2348Z" fill="#0B24FA"/>
<path id="Vector_4" d="M66.1719 21.5328V10.3257H69.5246L69.5403 21.5328H66.1719Z" fill="#0B24FA"/>
<path id="Vector_5" d="M76.3239 21.7531C75.6313 21.7531 74.9545 21.6587 74.3091 21.4541C73.6481 21.2652 73.0499 20.9346 72.5147 20.4939C71.9796 20.0531 71.5546 19.455 71.2398 18.7152C70.925 17.9754 70.7676 17.0468 70.7676 15.9449C70.7676 14.8116 70.925 13.8515 71.224 13.096C71.5231 12.3247 71.9481 11.7265 72.4675 11.2701C72.9869 10.8136 73.5851 10.4831 74.2462 10.2942C74.9073 10.1053 75.5998 9.99512 76.3081 9.99512C76.9063 9.99512 77.5044 10.0581 78.1025 10.1682C78.7007 10.2784 79.2516 10.4516 79.771 10.6719V12.7811C79.2673 12.5765 78.7479 12.4034 78.2442 12.2617C77.7405 12.1201 77.2053 12.0571 76.6544 12.0571C75.4896 12.0571 74.6082 12.3562 74.0101 12.9385C73.4119 13.5209 73.1286 14.4653 73.1286 15.7718C73.1286 17.1254 73.4119 18.1014 73.9786 18.731C74.5452 19.3448 75.4582 19.6596 76.7174 19.6596C77.2683 19.6596 77.8035 19.5967 78.3387 19.4393C78.8581 19.2976 79.346 19.1244 79.8025 18.9041V21.0133C79.2831 21.2494 78.7322 21.4383 78.1655 21.5485C77.5831 21.7059 76.9692 21.7531 76.3239 21.7531Z" fill="#0B24FA"/>
<path id="Vector_6" d="M85.9891 21.8633C84.1632 21.8633 82.7938 21.3439 81.8966 20.3207C80.9994 19.2976 80.543 17.818 80.543 15.8977C80.543 13.883 80.9994 12.3876 81.9439 11.4274C82.8725 10.4673 84.2105 9.99512 85.9734 9.99512C87.2011 9.99512 88.2242 10.2312 89.027 10.6877C89.8297 11.1442 90.4436 11.821 90.8371 12.7025C91.2306 13.5839 91.4352 14.6542 91.4352 15.9134C91.4352 17.818 90.963 19.2819 90.0186 20.3207C89.0742 21.3439 87.7206 21.8633 85.9891 21.8633ZM85.9734 19.8643C86.7289 19.8643 87.327 19.6911 87.7835 19.3606C88.24 19.03 88.5705 18.5578 88.7751 17.9597C88.9798 17.3616 89.0742 16.669 89.0742 15.8977C89.0742 15.032 88.964 14.308 88.7594 13.7256C88.5548 13.1432 88.2085 12.7182 87.752 12.4034C87.2956 12.1043 86.6974 11.9469 85.9734 11.9469C85.2178 11.9469 84.6197 12.1043 84.179 12.4191C83.7225 12.7339 83.4077 13.1904 83.2188 13.7728C83.0299 14.3709 82.9197 15.0635 82.9197 15.8662C82.9197 17.1097 83.1559 18.0856 83.6123 18.7939C84.0688 19.518 84.8558 19.8643 85.9734 19.8643Z" fill="#0B24FA"/>
<path id="Vector_7" d="M92.8047 21.5327V11.2857C92.9936 11.1598 93.3556 11.0024 93.8907 10.7978C94.4102 10.5931 95.0398 10.4042 95.7481 10.2468C96.4722 10.0894 97.1962 10.0107 97.9203 10.0107C98.298 10.0107 98.5971 10.0422 98.849 10.1052C99.0851 10.1681 99.2897 10.2311 99.4628 10.3098V12.1987C99.1323 12.1514 98.7702 12.12 98.3925 12.1042C98.0147 12.0885 97.6369 12.0885 97.2592 12.1042C96.8814 12.12 96.5194 12.1514 96.1574 12.1987C95.7953 12.2459 95.4648 12.2931 95.1657 12.3403V21.5484H92.8047V21.5327Z" fill="#0B24FA"/>
<path id="Vector_8" d="M106.451 19.691C106.011 19.7855 105.523 19.8327 105.035 19.8327C103.902 19.8327 103.036 19.5021 102.453 18.8568C101.95 18.2901 101.651 17.4874 101.588 16.4485H109.505C109.521 15.1578 109.363 14.0403 109.017 13.0644C108.671 12.1042 108.136 11.3487 107.396 10.8135C106.656 10.2783 105.68 10.0107 104.468 10.0107C102.8 10.0107 101.509 10.5145 100.596 11.5218C99.6832 12.5292 99.2109 14.0245 99.2109 15.9921C99.2109 17.267 99.4471 18.3374 99.8878 19.2188C100.344 20.1003 100.974 20.7614 101.792 21.2178C102.611 21.6743 103.571 21.9104 104.689 21.9104C105.507 21.9104 106.247 21.8475 106.908 21.7058C107.569 21.5642 108.167 21.391 108.702 21.1549V18.9513C108.403 19.0929 108.073 19.2503 107.711 19.392C107.317 19.4864 106.908 19.5966 106.451 19.691ZM101.903 13.5366C102.123 12.9542 102.438 12.5292 102.847 12.2773C103.256 12.0255 103.776 11.8996 104.389 11.8996C105.302 11.8996 105.979 12.1672 106.42 12.7024C106.782 13.1431 107.018 13.8042 107.113 14.6699H101.651C101.714 14.2449 101.792 13.8671 101.903 13.5366Z" fill="#0B24FA"/>
</g>
<g id="Group_3">
<g id="Group_4">
<g id="Group_5">
<g id="Group_6">
<g id="Group_7">
<path id="Vector_9" d="M16.0079 0C7.17757 0 0 7.17755 0 16.0079C0 16.0866 0 16.181 0 16.2597C0 16.3384 0 16.4329 0 16.5116C0 17.5189 0.125919 18.5106 0.377764 19.4393C1.95179 26.6168 8.35809 32 16.0079 32C24.8382 32 32.0158 24.8225 32.0158 15.9921C32.0158 7.16184 24.8382 0 16.0079 0ZM20.0846 16.4014C20.0846 18.9198 18.0384 20.9661 15.5199 20.9661C13.0015 20.9661 10.9552 18.9198 10.9552 16.4014C10.9552 13.8829 13.0015 11.8367 15.5199 11.8367C18.0384 11.8524 20.0846 13.8987 20.0846 16.4014ZM15.5199 8.9877C11.4275 8.9877 8.10625 12.3089 8.10625 16.4014C8.10625 20.4938 11.4275 23.8151 15.5199 23.8151C15.8505 23.8151 16.181 23.7836 16.4958 23.7521C15.0949 24.6965 13.4107 25.2632 11.5849 25.2632C7.52386 25.2632 4.10821 22.4929 3.11657 18.7309C2.94343 17.9282 2.849 17.1097 2.83326 16.2597C2.97492 11.5534 6.83128 7.75995 11.5691 7.75995C13.2218 7.75995 14.7487 8.2164 16.0708 9.01916C15.9134 9.00342 15.7246 8.9877 15.5199 8.9877ZM16.0079 29.1668C14.1663 29.1668 12.4034 28.789 10.8136 28.0964C11.0812 28.1122 11.333 28.1279 11.6006 28.1279C17.9912 28.1279 23.2012 22.9179 23.2012 16.5273C23.2012 10.1368 17.9912 4.92672 11.6006 4.92672C10.4201 4.92672 9.28677 5.09983 8.21644 5.43037C10.4043 3.82486 13.0959 2.86475 16.0079 2.86475C23.2642 2.86475 29.1668 8.76733 29.1668 16.0236C29.151 23.2641 23.2642 29.1668 16.0079 29.1668Z" fill="#0B24FA"/>
</g>
</g>
</g>
</g>
</g>
<path id="Vector_10" d="M67.8561 8.84647C68.7863 8.84647 69.5403 8.09241 69.5403 7.16225C69.5403 6.23209 68.7863 5.47803 67.8561 5.47803C66.9259 5.47803 66.1719 6.23209 66.1719 7.16225C66.1719 8.09241 66.9259 8.84647 67.8561 8.84647Z" fill="#0B24FA"/>
<path id="Vector_11" d="M50.8112 8.84647C51.7413 8.84647 52.4954 8.09241 52.4954 7.16225C52.4954 6.23209 51.7413 5.47803 50.8112 5.47803C49.881 5.47803 49.127 6.23209 49.127 7.16225C49.127 8.09241 49.881 8.84647 50.8112 8.84647Z" fill="#0B24FA"/>
</g>
</svg>
