<svg width="98" height="91" viewBox="0 0 98 91" fill="none" xmlns="http://www.w3.org/2000/svg">
<g clip-path="url(#clip0_927_7177)">
<path fillRule="evenodd" clip-rule="evenodd" d="M10.0807 69.8378C14.7804 62.4525 20.4872 64.4667 27.5368 60.7741C30.8938 58.7599 30.5581 56.0743 31.9008 51.7103C36.2649 35.5969 43.3145 15.4552 46.3357 0.0131836C27.2011 1.02027 11.7592 10.084 5.38096 22.8405C-12.7466 58.4242 18.4731 98.0363 54.3924 89.6439C72.1842 85.6155 60.7706 83.2657 78.5624 81.5872C86.9548 80.9158 96.0185 75.5447 97.3613 69.1664C87.9619 80.2444 70.17 78.2302 54.7281 73.8662C34.9221 68.1594 30.8938 63.7953 10.0807 69.8378Z" fill="white"/>
<path fillRule="evenodd" clip-rule="evenodd" d="M40.965 60.7738C55.0642 64.8021 89.6407 74.873 90.9835 44.3247C91.6549 22.8402 71.5132 0.684315 56.7427 1.35571C54.3928 8.06961 40.6293 55.4027 40.965 60.7738Z" fill="white"/>
</g>
<defs>
<clipPath id="clip0_927_7177">
<rect width="97.3714" height="90.9735" fill="white" transform="translate(0 0.0131836)"/>
</clipPath>
</defs>
</svg>
