<svg width="100" height="101" viewBox="0 0 100 101" fill="none" xmlns="http://www.w3.org/2000/svg">
<path fillRule="evenodd" clip-rule="evenodd" d="M0 50.5C0 22.9 22.35 0.5 50 0.5C77.6 0.5 100 22.9 100 50.5C100 78.15 77.6 100.5 50 100.5C22.35 100.5 0 78.15 0 50.5ZM61.1537 59.6487L69.2537 34.0487C69.8037 32.2987 68.2037 30.6487 66.4537 31.1987L40.8537 39.1987C39.8037 39.5487 38.9537 40.3487 38.6537 41.3987L30.6537 67.0487C30.1037 68.7487 31.7537 70.3987 33.4537 69.8487L58.9537 61.8487C60.0037 61.5487 60.8537 60.6987 61.1537 59.6487Z" fill="white"/>
</svg>
