<svg width="108" height="105" viewBox="0 0 108 105" fill="none" xmlns="http://www.w3.org/2000/svg">
<path fillRule="evenodd" clip-rule="evenodd" d="M103.839 49.6358C101.948 50.7946 100.55 53.1192 95.2628 54.9253C90.9272 56.4064 87.813 56.3703 83.1138 55.7064C81.6129 75.6443 58.9373 90.4482 38.3748 80.4537C20.5581 71.7936 14.3108 47.5516 29.7297 30.8097C37.5677 22.299 50.8881 18.9776 62.4825 23.0401C64.2159 23.6473 65.5329 24.4104 67.0394 24.9909C68.2387 21.2928 71.3066 18.1804 73.4145 16.3036C76.2743 13.7571 79.1635 12.6757 83.5377 11.4365C81.5151 8.87773 72.7076 4.77351 69.2078 3.53554C56.9832 -0.789072 43.6761 -0.162543 31.7965 4.81457C16.5363 11.208 5.18613 25.0928 1.60311 41.206C-1.95444 57.2036 2.4346 72.83 11.4994 84.5302C16.4762 90.9538 22.7099 95.5228 30.0235 99.2911C40.4436 104.66 55.3224 105.657 67.3605 101.969C79.4462 98.2669 87.7243 91.1277 93.4392 83.6719C100.095 74.9883 104.226 63.7793 103.839 49.6358Z" fill="white"/>
<path fillRule="evenodd" clip-rule="evenodd" d="M86.4393 14.3246C76.257 15.1312 67.8403 23.7876 68.6406 34.975C69.37 45.1702 78.2393 53.6057 89.4106 52.7479C99.4685 51.9754 107.885 43.1479 107.044 32.0262C106.285 21.9893 97.4424 13.4529 86.4393 14.3246Z" fill="white"/>
<path fillRule="evenodd" clip-rule="evenodd" d="M50.4966 45.1509C46.963 46.0179 43.9648 49.3093 44.8529 53.8091C45.5603 57.3924 49.196 60.6544 53.7956 59.6319C63.2011 57.541 60.1902 42.7727 50.4966 45.1509Z" fill="white"/>
</svg>
