<svg width="121" height="46" viewBox="0 0 176 30" fill="none" xmlns="http://www.w3.org/2000/svg">
<g id="providus logo 1" clip-path="url(#clip0_1085_7769)">
<g id="Layer_x0020_1">
<path id="Vector" d="M41.1758 21.0333V8.5304H46.0625C46.3165 8.5304 46.6814 8.56227 46.9034 8.60981L47.8553 8.81618C48.0774 8.86371 48.4266 9.00661 48.6168 9.13332L48.9501 9.35564C49.1406 9.46666 49.442 9.73624 49.6006 9.94263L49.7116 10.0855C49.8704 10.2757 50.0925 10.625 50.1719 10.863L50.3621 11.323C50.4574 11.561 50.5366 11.9418 50.5366 12.1798V13.2112C50.5366 13.4492 50.4733 13.8141 50.4099 14.0202L50.2986 14.3536C50.2194 14.5597 50.0606 14.893 49.9337 15.0832L49.8386 15.2102C49.7116 15.4006 49.4261 15.7021 49.2197 15.8609L49.1881 15.8766C48.9818 16.0511 48.6168 16.2734 48.3789 16.3685L47.8394 16.6224C47.3319 16.8445 47.0463 16.9079 46.475 16.9079H43.2384V21.0333H41.1758L41.1758 21.0333ZM43.2384 10.4821V15.0516H45.9831C46.1101 15.0516 46.3321 15.0356 46.475 15.004L46.8716 14.9087C47.0144 14.8771 47.2208 14.7977 47.3318 14.7342L47.5063 14.6231C47.7284 14.4962 47.8872 14.3536 48.0617 14.0996L48.2043 13.9092C48.2678 13.8141 48.3472 13.6553 48.3632 13.5602L48.4107 13.3857C48.4423 13.2903 48.4582 13.1158 48.4582 12.9889V12.4654C48.4582 12.2433 48.4423 12.1958 48.2678 11.7674L48.2519 11.7196C48.1887 11.5769 48.0617 11.4024 47.9823 11.3071L47.7443 11.0691C47.6649 10.9899 47.5223 10.8787 47.4428 10.8311L47.3159 10.736C47.2365 10.6885 47.0779 10.625 46.9828 10.5931L46.6814 10.5296C46.5861 10.5137 46.4115 10.4821 46.2846 10.4821H43.2384L43.2384 10.4821ZM52.4882 21.049V9.62522H58.1366C58.3903 9.62522 58.7552 9.67276 58.9775 9.75217L59.6437 9.97422C59.866 10.0536 60.1833 10.2441 60.3419 10.4026L60.8495 10.8786C61.0242 11.0534 61.2303 11.3705 61.3257 11.6085L61.4683 11.9734C61.5477 12.2114 61.6268 12.6082 61.6268 12.8462V13.7506C61.6268 13.9886 61.5636 14.3692 61.4842 14.5756L61.3889 14.8295C61.1034 15.5594 60.3894 16.2574 59.612 16.5588L59.5326 16.5905C59.0567 16.7652 59.041 16.8284 59.3422 17.1299C59.4691 17.2568 59.6914 17.5267 59.8184 17.7171L61.7538 20.557C61.8967 20.7475 62.0077 20.9379 62.0077 20.9698C62.0077 21.0173 61.8173 21.0489 61.5636 21.0489H59.9929C59.5804 21.0489 59.5485 21.0173 59.3106 20.684L57.1053 17.4792C56.883 17.1458 56.8355 17.1299 56.423 17.1299H54.5508V21.0489H52.4882V21.049ZM54.5508 11.4659V15.2736H57.359C57.4702 15.2736 57.6763 15.2579 57.7874 15.2261L58.1207 15.1467C58.2317 15.115 58.4537 15.0356 58.5966 14.9721L58.6442 14.9565C58.9297 14.8295 59.1361 14.655 59.279 14.3851L59.4691 14.0361C59.5169 13.9408 59.5645 13.7663 59.5645 13.6393V13.1318C59.5645 12.7828 59.4216 12.4019 59.1995 12.1639L59.152 12.1164C59.0726 12.0369 58.9297 11.9259 58.8187 11.8784L58.5172 11.7039C58.4062 11.6561 58.2476 11.5928 58.1366 11.5769L57.5653 11.4975C57.4702 11.4816 57.2798 11.4659 57.1688 11.4659H54.5508L54.5508 11.4659ZM63.3564 16.0354V14.5437C63.3564 14.3057 63.404 13.9408 63.4674 13.7347L63.6103 13.1952C63.6738 12.9889 63.8167 12.6558 63.9434 12.4494L64.4037 11.6879C64.5306 11.4815 64.7686 11.1801 64.9431 11.0215L65.435 10.5931C65.6095 10.4345 65.9266 10.2122 66.1489 10.1012L66.8944 9.73622C67.1167 9.6252 67.4817 9.49824 67.7197 9.45068L67.8466 9.41908C68.0846 9.37127 68.4811 9.32373 68.7191 9.32373H69.671C69.909 9.32373 70.2899 9.37127 70.5119 9.41908L71.2577 9.60951C71.4798 9.65705 71.8131 9.81563 72.0192 9.92666L72.5427 10.26C72.7331 10.3869 73.0346 10.6249 73.2091 10.7994L73.7169 11.3229C73.8914 11.4975 74.1294 11.8308 74.2245 12.0528L74.7164 13.0842C74.8117 13.3062 74.9386 13.6871 74.9862 13.9251L75.0178 14.1312C75.0653 14.3692 75.1131 14.766 75.1131 15.004V15.4165C75.1131 15.6545 75.0653 16.0353 75.0178 16.2574L74.8274 17.1934C74.7798 17.4157 74.6372 17.7647 74.5102 17.9552L74.0659 18.7167C73.9389 18.9071 73.701 19.2086 73.5265 19.3671L72.8442 20.0019C72.6696 20.1764 72.3366 20.3826 72.0986 20.4936L71.4163 20.795C70.8452 21.049 70.2739 21.1759 69.7504 21.1759H68.5762C68.3383 21.1759 67.9733 21.1284 67.7513 21.0808L67.1008 20.9063C66.8788 20.8428 66.5296 20.684 66.3394 20.573L65.8156 20.2399C65.6252 20.113 65.3237 19.875 65.1652 19.7005L64.5306 19.0182C64.3718 18.8436 64.1498 18.5103 64.0388 18.2883L63.7532 17.6854C63.4993 17.13 63.3564 16.5748 63.3564 16.0354L63.3564 16.0354ZM66.4028 12.5448L66.1014 12.9573C65.9901 13.0999 65.8631 13.3381 65.7999 13.4808L65.7364 13.6393C65.6886 13.7982 65.6095 14.0521 65.5776 14.2266L65.4825 14.6707C65.4031 15.0675 65.4031 15.4165 65.4825 15.829L65.5935 16.3525C65.6251 16.527 65.7205 16.7968 65.8156 16.9554L66.3709 17.8917C66.4504 18.0343 66.6408 18.2407 66.7993 18.3358L67.4498 18.7961C67.5927 18.8912 67.8307 19.0181 67.9892 19.0657L68.1956 19.1292C68.3541 19.1767 68.624 19.2245 68.7985 19.2245H69.5759C69.7504 19.2245 70.0518 19.161 70.2423 19.0975L70.7339 18.923C70.9086 18.8436 71.1782 18.7007 71.3211 18.5738L71.8762 18.0821C72.0032 17.9708 72.1936 17.7488 72.273 17.6061L72.511 17.2093C72.6061 17.0665 72.7014 16.8128 72.733 16.6539L72.86 16.1464C72.9075 15.9875 72.9394 15.702 72.9394 15.5275V15.115C72.9394 14.9405 72.9075 14.6391 72.86 14.4646L72.7965 14.179C72.7649 13.9886 72.6538 13.7028 72.5744 13.5283L72.495 13.3538C72.4159 13.1793 72.2411 12.9097 72.0985 12.7509L71.8286 12.4019C71.686 12.2274 71.4637 12.021 71.3211 11.9418L70.8767 11.672C70.5912 11.4975 69.8454 11.2754 69.5599 11.2754H68.83C68.4335 11.2754 68.243 11.323 67.7987 11.5294L67.6561 11.6085C67.4656 11.6879 67.1642 11.8624 66.9738 12.0053L66.9262 12.0369C66.7358 12.1798 66.5137 12.4019 66.4027 12.5447L66.4028 12.5448ZM87.1235 10.3551L82.9191 20.7475C82.7605 21.1443 82.7605 21.16 82.3321 21.16H81.3167C80.8564 21.16 80.7454 21.0649 80.4915 20.3985L76.414 10.1647C76.3189 9.94263 76.2554 9.72059 76.2554 9.68871C76.2554 9.6571 76.4459 9.62522 76.6838 9.62522H78.5877L81.6181 17.7013C81.8242 18.2566 81.872 18.2407 82.11 17.5902L85.1562 9.62522H86.8539C87.0918 9.62522 87.2979 9.68871 87.2979 9.78405C87.2979 9.87915 87.2188 10.133 87.1234 10.3551L87.1235 10.3551ZM91.2169 10.1171V20.5571C91.2169 20.7951 91.201 21.0015 91.1851 21.0174C91.1694 21.0333 90.963 21.049 90.725 21.049H89.6302C89.3923 21.049 89.1861 21.0333 89.1702 21.0174C89.1543 21.0015 89.1383 20.7951 89.1383 20.5571V10.1171C89.1383 9.87917 89.1543 9.67278 89.1702 9.65712C89.1861 9.6412 89.3923 9.62524 89.6302 9.62524H90.725C90.963 9.62524 91.1694 9.64117 91.1851 9.65712C91.201 9.6728 91.2169 9.87917 91.2169 10.1171ZM93.9297 21.049V9.62524H98.8165C99.0545 9.62524 99.4353 9.67278 99.6574 9.73627L100.308 9.91102C100.53 9.97424 100.879 10.1331 101.07 10.26L102.132 10.9899C102.339 11.1166 102.64 11.4024 102.815 11.6244L102.926 11.7514C103.1 11.9734 103.322 12.3384 103.433 12.5604L103.64 12.9732C103.894 13.4967 104.036 14.1156 104.036 14.655V15.94C104.036 16.178 103.989 16.5429 103.941 16.7493L103.782 17.2728C103.735 17.4949 103.592 17.8282 103.465 18.0186L103.005 18.7961C102.878 19.0022 102.624 19.3037 102.434 19.4625L102.021 19.8115C101.831 19.9701 101.482 20.208 101.244 20.3191L100.562 20.6524C100.324 20.7634 99.9429 20.8904 99.7049 20.9538H99.6733C99.4194 21.0014 99.0385 21.0489 98.8006 21.0489H93.9298L93.9297 21.049ZM95.9924 11.4816V19.2086H98.0391C98.2136 19.2086 98.515 19.1768 98.6895 19.1611L98.7849 19.1452C99.1814 19.0817 99.3243 19.0341 99.7368 18.8437L99.9272 18.7486C100.086 18.6692 100.371 18.4947 100.53 18.3677L100.752 18.1932C100.911 18.0663 101.117 17.8442 101.212 17.7013L101.466 17.2569C101.561 17.1143 101.672 16.8763 101.72 16.7334L101.783 16.5271C101.831 16.3844 101.863 16.1146 101.863 15.9401V14.8771C101.863 14.4962 101.815 14.2742 101.625 13.8298L101.466 13.4492C101.403 13.2747 101.228 13.0208 101.101 12.8938L100.689 12.4813C100.562 12.3544 100.34 12.1799 100.213 12.1005L99.9113 11.9259C99.7843 11.8465 99.5304 11.7674 99.3559 11.7196L98.4834 11.5451C98.3086 11.5135 98.0231 11.4816 97.8486 11.4816H95.9923H95.9924ZM106.004 16.781V9.62527H108.066V16.3685C108.066 18.0028 109.209 19.3196 110.652 19.3196H111.113C111.351 19.3196 111.716 19.2402 111.922 19.1451L112.207 19.0022C112.414 18.9231 112.699 18.6851 112.858 18.5103L112.905 18.4628C113.35 17.9234 113.619 17.1143 113.619 16.2415V9.62527H115.682V16.4795C115.682 16.7175 115.65 17.0984 115.603 17.3204L115.396 18.2724C115.349 18.4947 115.19 18.8437 115.063 19.0341L114.524 19.8116C114.397 20.0177 114.111 20.2716 113.905 20.3826L113.127 20.8429C112.921 20.9539 112.54 21.0966 112.302 21.1444L112.176 21.176C111.938 21.2235 111.541 21.2713 111.303 21.2713H110.351C110.113 21.2713 109.748 21.2235 109.526 21.176L108.891 21.0015C108.685 20.9539 108.352 20.811 108.162 20.6841L107.813 20.462C107.622 20.351 107.337 20.0812 107.162 19.891L107.035 19.7162C106.861 19.526 106.654 19.1611 106.543 18.9231L106.384 18.5582C106.289 18.3042 106.146 17.9077 106.099 17.6694V17.6538C106.035 17.4158 106.004 17.019 106.004 16.781V16.781ZM122.79 16.654L119.601 15.6386C118.458 15.2737 117.744 14.2107 117.744 12.862V12.7828C117.744 12.5448 117.808 12.1799 117.871 11.9576L117.998 11.4976C118.078 11.2914 118.252 10.974 118.427 10.7995L118.807 10.4027C118.982 10.2282 119.315 10.0062 119.553 9.87922L119.696 9.81573C119.95 9.70471 120.346 9.56181 120.584 9.51427H120.6C121.187 9.38732 122.139 9.37137 122.726 9.49834L123.662 9.70471C123.884 9.75224 124.233 9.89515 124.44 10.0221L125.376 10.5772C125.582 10.7042 125.741 10.8311 125.741 10.8787C125.741 11.1801 124.836 12.4654 124.63 12.4654C124.551 12.4654 124.313 12.3544 124.075 12.2274L123.123 11.688C122.599 11.4025 122.504 11.3706 121.965 11.3706H121.346C121.092 11.3706 120.743 11.4659 120.537 11.577C119.379 12.1958 119.696 13.5603 121.108 14.0043L124.249 15.02C124.725 15.1627 125.106 15.4482 125.519 15.9242C126.042 16.543 126.248 17.5744 126.042 18.4947L125.963 18.8119C125.915 19.0182 125.773 19.3513 125.646 19.5417L125.392 19.9226C125.265 20.129 124.979 20.3827 124.757 20.478L123.773 20.9699C123.329 21.1919 122.932 21.2714 122.298 21.2714H121.663C121.425 21.2714 121.06 21.2395 120.838 21.1919L120.013 21.0015C119.807 20.9539 119.458 20.827 119.252 20.7L118.03 19.9861C117.665 19.7797 117.364 19.4942 117.364 19.3832C117.364 19.1768 118.443 17.9077 118.617 17.9077C118.681 17.9077 118.871 18.0344 119.045 18.2089L119.077 18.2408C119.268 18.4153 119.585 18.6533 119.807 18.7643L120.315 19.0182C120.521 19.1133 120.902 19.2402 121.14 19.2881L121.473 19.3513C122.06 19.4466 122.25 19.4466 122.71 19.3037L123.059 19.1927C123.281 19.1292 123.567 18.9231 123.694 18.7486C124.376 17.8918 124.011 17.0349 122.79 16.654L122.79 16.654ZM128.406 21.0649V8.6574H134.181C134.419 8.6574 134.784 8.7052 135.006 8.75274L135.641 8.9113C135.863 8.97478 136.18 9.11766 136.371 9.24464L136.514 9.33973C136.688 9.46668 136.974 9.70468 137.117 9.87917L137.259 10.0537C137.592 10.4346 137.767 10.9105 137.767 11.4975V12.2434C137.767 12.4813 137.688 12.8463 137.592 13.0524L137.466 13.3382C137.37 13.5443 137.148 13.8458 136.958 14.0043L136.672 14.2423C136.482 14.4011 136.291 14.5281 136.244 14.5281C136.18 14.5281 136.133 14.5756 136.133 14.6391C136.133 14.7026 136.339 14.8452 136.593 14.9565L136.926 15.0991C138.195 15.6704 138.782 16.9238 138.449 18.3993L138.37 18.7008C138.322 18.9231 138.179 19.2402 138.053 19.4306L137.942 19.5895C137.656 20.002 137.148 20.3985 136.561 20.6206L136.164 20.7794C135.609 21.0014 135.339 21.0649 134.8 21.0649H128.406L128.406 21.0649ZM133.737 10.498H130.374V13.9886H133.499C133.626 13.9886 133.816 13.9727 133.943 13.9568L134.15 13.9092C134.435 13.8617 134.578 13.8141 134.848 13.6553C134.975 13.5918 135.117 13.5127 135.181 13.4808C135.244 13.4492 135.355 13.3538 135.419 13.2428L135.593 12.9732C135.657 12.8779 135.704 12.6874 135.704 12.5764V11.9419C135.704 11.6404 135.609 11.4025 135.435 11.2279L135.228 11.0216C135.149 10.9265 135.006 10.8152 134.927 10.7677L134.863 10.736C134.768 10.6885 134.626 10.625 134.515 10.6091L134.15 10.5456C134.039 10.5137 133.864 10.4981 133.737 10.4981V10.498ZM130.374 19.2086H134.594C134.848 19.2086 135.07 19.1451 135.403 19.0022L135.451 18.9866C135.593 18.9231 135.768 18.8118 135.863 18.7326L136.164 18.4312C136.244 18.3358 136.339 18.1932 136.355 18.0822L136.418 17.8758C136.609 17.13 136.276 16.3844 135.577 15.9876L135.514 15.956C135.419 15.9085 135.276 15.845 135.181 15.8291L134.895 15.7656C134.8 15.7497 134.626 15.734 134.499 15.734H130.374V19.2086L130.374 19.2086ZM148.032 18.3358H142.876L141.908 20.6524C141.765 21.0174 141.702 21.0649 141.305 21.0649H140.099C139.861 21.0649 139.671 21.0333 139.671 21.0014C139.671 20.9698 139.75 20.7635 139.829 20.5571L144.383 9.92668C144.558 9.53012 144.558 9.53012 144.986 9.53012H146.033C146.477 9.53012 146.588 9.60954 146.858 10.2757L151.189 20.3985C151.285 20.6049 151.364 20.8585 151.364 20.922C151.364 21.0014 151.158 21.0649 150.92 21.0649H149.619C149.127 21.0649 149.127 21.0649 148.921 20.5414L148.032 18.3358L148.032 18.3358ZM145.287 12.4495L143.717 16.178C143.669 16.2891 143.637 16.4004 143.637 16.432C143.637 16.4638 143.732 16.4955 143.859 16.4955H147.35L145.684 12.5605C145.589 12.3385 145.509 12.2434 145.43 12.2434C145.398 12.2434 145.319 12.3385 145.287 12.4495L145.287 12.4495ZM162.898 9.6412V21.0649H161.486C161.105 21.0649 161.026 21.0174 160.788 20.7159L155.061 13.1953V21.0649H152.998V9.6412H154.632C155.045 9.6412 155.092 9.65712 155.33 9.99019L160.376 16.8128C160.518 17.0033 160.677 17.1934 160.741 17.2253C160.788 17.2569 160.836 17.0824 160.836 16.8444V9.64117H162.898V9.6412ZM165.405 21.0649V9.6412H167.579V14.6391C167.579 15.1626 167.61 15.1786 167.975 14.7501L170.022 12.4495C170.197 12.275 170.45 11.9735 170.625 11.799L172.354 9.95863C172.592 9.68878 172.719 9.64125 173.084 9.64125H174.766C175.004 9.64125 175.194 9.68878 175.194 9.75227C175.194 9.81576 175.067 10.0062 174.893 10.1648L170.926 14.2423C170.768 14.4171 170.625 14.5757 170.625 14.6073C170.625 14.6232 170.768 14.7818 170.942 14.9566L170.974 15.0041C171.149 15.1786 171.418 15.4801 171.561 15.6705L175.162 20.5096C175.305 20.7 175.416 20.9064 175.416 20.9699C175.416 21.0174 175.226 21.065 174.988 21.065H173.354C172.925 21.065 172.909 21.0491 172.656 20.716L169.689 16.7018C169.546 16.5114 169.387 16.2891 169.34 16.2099C169.197 16.0036 169.149 16.0195 168.8 16.3845L167.88 17.3839C167.658 17.6219 167.579 17.8124 167.579 18.1457V21.065H165.405V21.0649Z" fill="white"/>
<path id="Vector_2" fillRule="evenodd" clip-rule="evenodd" d="M7.42536 15.4786C7.17857 15.4786 6.96376 15.6111 6.84455 15.8086L5.27195 18.5322H0.667969L4.46559 11.9556C4.63843 11.657 5.10075 11.4135 5.49913 11.4135L33.6215 11.42L34.785 13.4352L33.6059 15.4776H7.44844L7.42536 15.4786V15.4786ZM32.7163 17.019L30.3802 21.0652H10.68C10.428 21.0652 10.2183 21.1896 10.098 21.3771L8.50671 24.1338H3.90178L7.6994 17.5555C7.87131 17.2567 8.33456 17.0141 8.73295 17.0141L32.7162 17.019H32.7163ZM27.1891 26.5935H13.9369C13.6824 26.5935 13.4653 26.726 13.3477 26.9234L11.7331 29.7204H7.12915L10.9275 23.1422C11.0996 22.8434 11.5612 22.6015 11.9594 22.6015L29.4899 22.6057L27.1891 26.5936L27.1891 26.5935ZM8.63991 4.30858L10.9687 0.2771H27.189L29.5162 4.30858H8.63991ZM5.42496 9.87796L7.75051 5.84974H30.4066L30.9867 6.85627L32.7312 9.87796H5.42496Z" fill="white"/>
</g>
</g>
<defs>
<clipPath id="clip0_1085_7769">
<rect width="174.749" height="29.443" fill="white" transform="translate(0.667969 0.278442)"/>
</clipPath>
</defs>
</svg>
