<svg width="32" height="32" viewBox="0 0 32 32" fill="none" xmlns="http://www.w3.org/2000/svg">
<path opacity="0.4" d="M4.66706 30.3999H27.3337C27.8671 30.3999 28.4004 29.9999 28.4004 29.3333C28.4004 28.6666 28.0004 28.2666 27.3337 28.2666H4.66706C4.13373 28.2666 3.60039 28.6666 3.60039 29.3333C3.60039 29.9999 4.13373 30.3999 4.66706 30.3999Z" fill="white"/>
<path d="M6.66745 24.2669C6.93411 24.2669 7.20078 24.1335 7.33411 24.0002L26.0008 5.33353C26.4008 4.93353 26.4008 4.4002 26.0008 4.0002C25.6008 3.6002 24.9341 3.6002 24.5341 4.0002L5.86745 22.6669C5.46745 23.0669 5.46745 23.7335 5.86745 24.1335C6.13411 24.2669 6.40078 24.2669 6.66745 24.2669Z" fill="white"/>
<path d="M25.3337 19.3334C25.8671 19.3334 26.4004 18.9334 26.4004 18.2668V4.66676C26.4004 4.13343 26.0004 3.6001 25.3337 3.6001H11.6004C11.0671 3.6001 10.5337 4.0001 10.5337 4.66676C10.5337 5.33343 10.9337 5.73343 11.6004 5.73343H24.2671V18.4001C24.2671 18.9334 24.8004 19.3334 25.3337 19.3334Z" fill="white"/>
</svg>
