<svg width="121" height="46" viewBox="0 0 131 46" fill="none" xmlns="http://www.w3.org/2000/svg">
<g id="Taj 1" clip-path="url(#clip0_1085_7829)">
<g id="Layer 2">
<g id="Layer 1">
<path id="Vector" d="M40.5058 45.0674C40.4507 44.9636 40.3496 44.8598 40.3496 44.7559C40.3496 43.1409 40.3496 41.5512 40.3496 39.95C40.3561 39.9005 40.3676 39.8518 40.3841 39.8047C41.0089 39.9062 41.6269 40.0515 42.2541 40.0931C42.787 40.1243 43.3217 40.0894 43.8462 39.9892C44.2282 39.9296 44.5843 39.7585 44.8703 39.4972C45.1562 39.2359 45.3593 38.8959 45.4543 38.5195C45.6862 37.71 45.8159 36.8744 45.8402 36.0324C45.8701 28.3678 45.8586 20.7033 45.8586 13.0387V12.485H52.5829V12.9464C52.5829 20.5095 52.5944 28.0702 52.5829 35.6332C52.616 37.457 52.2588 39.2667 51.5353 40.9398C51.1279 41.8917 50.5151 42.7408 49.7412 43.4258C48.9673 44.1109 48.0516 44.6149 47.0601 44.9013C46.9154 44.9451 46.773 45.0028 46.6305 45.0536L40.5058 45.0674Z" fill="white"/>
<path id="Vector_2" d="M87.2973 45.067C87.2835 44.626 87.5962 44.6999 87.8698 44.6906C88.1434 44.6814 88.148 44.8707 88.1411 45.067H87.2973Z" fill="white"/>
<path id="Vector_3" d="M42.5275 37.2597H41.9831C39.9017 37.2597 37.8226 37.2482 35.7435 37.2597C35.3575 37.2597 35.1944 37.1513 35.0842 36.7752C33.4331 31.1303 31.7699 25.4853 30.0943 19.8403C30.0622 19.7319 30.0254 19.6234 29.9634 19.4296C29.8968 19.6211 29.8531 19.7319 29.821 19.8472C28.1898 25.463 26.5595 31.0772 24.9299 36.6899C24.7438 37.3336 24.8564 37.2482 24.1925 37.2505C22.1279 37.2505 20.0603 37.2505 17.9897 37.2505H17.459C17.5072 37.0683 17.5348 36.939 17.5761 36.8121C20.1675 28.8015 22.7574 20.7909 25.3457 12.7803C25.3558 12.7136 25.3789 12.6496 25.4138 12.592C25.4487 12.5343 25.4945 12.4842 25.5488 12.4445C25.6031 12.4048 25.6646 12.3763 25.73 12.3607C25.7953 12.3451 25.863 12.3426 25.9293 12.3534C28.611 12.3673 31.2913 12.3673 33.97 12.3534C34.1046 12.3329 34.2418 12.3667 34.3516 12.4476C34.4614 12.5285 34.5348 12.6497 34.5558 12.7849C37.1686 20.7832 39.7883 28.7815 42.415 36.7798C42.4448 36.9275 42.4747 37.0613 42.5275 37.2597Z" fill="white"/>
<path id="Vector_4" d="M6.05877 37.2344V17.99C5.86579 17.9669 5.70728 17.9669 5.54876 17.9669C3.85103 17.9669 2.15329 17.9669 0.455561 17.9669C0.110961 17.9669 -0.00390625 17.8746 -0.00390625 17.5055C0.0144725 15.9666 -0.00390625 14.4277 -0.00390625 12.8911C-0.00390625 12.7642 -0.00390625 12.6396 0.0144725 12.485H18.7194C18.7194 12.6003 18.7447 12.7157 18.7447 12.8426C18.7447 14.4069 18.7447 15.9712 18.7447 17.5355C18.7447 17.8931 18.6137 17.9577 18.2967 17.9554C16.5875 17.9554 14.8783 17.9554 13.1667 17.9415C12.7923 17.9415 12.7073 18.0569 12.7073 18.4214C12.7195 24.5094 12.7195 30.5974 12.7073 36.6853C12.7073 37.2529 12.7073 37.2552 12.1559 37.2552H6.58026C6.41715 37.2575 6.25404 37.2437 6.05877 37.2344Z" fill="white"/>
<path id="Vector_5" d="M69.0176 24.2193C69.1325 24.2516 69.2473 24.2793 69.3622 24.3162C70.0624 24.5035 70.7525 24.7268 71.4298 24.9853C73.1712 25.7444 74.2555 27.0618 74.522 28.9791C74.8161 31.104 74.522 33.1067 73.0356 34.7725C71.8433 36.1107 70.2788 36.7775 68.5535 37.059C67.8112 37.1788 67.0609 37.2413 66.309 37.2458C63.5407 37.2666 60.7724 37.2458 58.0041 37.2458C57.4941 37.2458 57.4941 37.2458 57.4941 36.7383C57.4941 28.8076 57.4941 20.877 57.4941 12.9463C57.4941 12.441 57.4941 12.4387 57.9927 12.4387C60.5312 12.4387 63.0698 12.4387 65.6083 12.4572C67.0262 12.4646 68.436 12.6719 69.7964 13.0732C72.4085 13.8577 73.7869 15.6965 73.8029 18.4398C73.8144 20.6016 73.0586 22.362 71.076 23.3957C70.5551 23.6325 70.0176 23.8306 69.4679 23.9886C69.3254 24.0371 69.1784 24.0624 69.0314 24.0994L69.0176 24.2193ZM60.3865 30.1512C60.3865 31.5355 60.3865 32.9198 60.3865 34.3041C60.3865 34.671 60.4876 34.7887 60.8597 34.784C62.5552 34.7656 64.2529 34.8094 65.9483 34.761C66.7496 34.7393 67.5461 34.6303 68.3238 34.4357C69.739 34.0803 70.8164 33.2821 71.2805 31.8147C71.55 30.9424 71.6153 30.0193 71.4711 29.1175C71.2598 27.6525 70.4396 26.6742 69.0888 26.1182C68.0735 25.727 66.9944 25.5298 65.907 25.5367C64.2116 25.5114 62.5161 25.5367 60.8207 25.5229C60.4784 25.5229 60.3842 25.6267 60.3865 25.959C60.3934 27.3594 60.3865 28.7553 60.3865 30.1512ZM60.3865 19.0027C60.3865 20.2071 60.3865 21.4092 60.3865 22.6135C60.3865 22.9688 60.4991 23.075 60.846 23.075C62.4265 23.0588 64.0094 23.1096 65.5877 23.0519C66.4792 23.0117 67.3647 22.885 68.2319 22.6735C69.6631 22.3274 70.504 21.3722 70.736 19.9049C70.7841 19.6405 70.8118 19.3729 70.8187 19.1042C70.8463 17.3577 70.265 16.061 68.4341 15.4819C67.6088 15.2193 66.7533 15.0642 65.8886 15.0205C64.1955 14.942 62.4977 14.9882 60.8023 14.9674C60.4807 14.9674 60.3865 15.0874 60.3911 15.3966C60.3934 16.594 60.3865 17.7984 60.3865 19.0027Z" fill="white"/>
<path id="Vector_6" d="M120.231 28.6373C119.645 29.191 119.082 29.7517 118.496 30.2731C118.321 30.4257 118.185 30.6183 118.099 30.8346C118.013 31.051 117.98 31.2849 118.003 31.5167C118.032 33.2725 118.003 35.0283 118.021 36.7841C118.021 37.1555 117.908 37.2755 117.543 37.2617C116.907 37.2363 116.268 37.2432 115.629 37.2617C115.326 37.2617 115.204 37.1578 115.243 36.8579C115.247 36.8072 115.247 36.7563 115.243 36.7056V11.3702C115.243 10.8464 115.243 10.8441 115.756 10.8441C116.392 10.8441 117.031 10.8441 117.669 10.8441C117.938 10.8441 118.042 10.9433 118.03 11.1994C118.03 11.3402 118.03 11.4809 118.03 11.6216C118.03 16.6467 118.03 21.6703 118.03 26.6923C118.03 26.8631 118.051 27.0361 118.06 27.2069L118.255 27.3499C118.304 27.2025 118.374 27.0633 118.464 26.9369C120.955 24.2605 123.452 21.5896 125.956 18.924C126.068 18.792 126.224 18.7044 126.395 18.6771C127.35 18.654 128.308 18.6771 129.264 18.6771C129.342 18.689 129.419 18.7076 129.494 18.7325C126.992 21.3742 124.534 23.9768 122.053 26.6001L130.045 37.234C129.815 37.2501 129.691 37.2663 129.558 37.2663C128.729 37.2663 127.899 37.2547 127.07 37.2663C126.934 37.2738 126.798 37.2444 126.676 37.181C126.555 37.1177 126.453 37.0229 126.381 36.9064C124.411 34.2423 122.436 31.5829 120.454 28.928C120.38 28.8104 120.284 28.7042 120.231 28.6373Z" fill="white"/>
<path id="Vector_7" d="M88.6896 34.5785C88.6472 34.6855 88.5949 34.7883 88.5333 34.8854C86.792 37.1926 84.3981 37.8386 81.6689 37.5594C80.9334 37.4933 80.2122 37.3151 79.5301 37.0311C77.5842 36.1866 76.7365 34.567 76.6584 32.509C76.555 29.798 77.7749 28.0445 80.3893 27.0778C82.0135 26.4802 83.7066 26.2841 85.4227 26.2264C86.4183 26.191 87.4138 26.1587 88.4093 26.1295C88.5954 26.1295 88.7769 26.1295 88.7631 25.8527C88.724 25.0867 88.7631 24.3068 88.6321 23.5454C88.3036 21.6581 87.1228 20.7353 85.085 20.6891C83.3758 20.6499 81.7861 21.1506 80.2422 21.8173L79.5875 22.1196L78.726 19.967C79.6274 19.4582 80.5913 19.0704 81.5931 18.8134C83.4789 18.2716 85.4667 18.1925 87.3893 18.5826C89.813 19.111 91.1431 20.613 91.4211 23.084C91.4814 23.6203 91.5128 24.1594 91.5153 24.699C91.5153 28.6982 91.5153 32.6974 91.5153 36.6965C91.5153 37.2549 91.5153 37.2549 90.9432 37.2572C90.3712 37.2595 89.8198 37.2572 89.2593 37.2572C88.9744 37.2572 88.8802 37.1534 88.8848 36.8742C88.8848 36.272 88.8848 35.6698 88.8687 35.0676C88.8687 34.9338 88.8504 34.8 88.8389 34.6662L88.6896 34.5785ZM86.5163 28.1506V28.2175C85.9305 28.2498 85.3446 28.266 84.7611 28.3214C83.5642 28.4344 82.3765 28.6028 81.2921 29.1773C80.0079 29.8557 79.3922 31.2538 79.6587 32.8435C79.8885 34.1517 80.7614 35.0169 82.2271 35.1922C82.9743 35.273 83.7287 35.2567 84.4716 35.1438C86.5898 34.8508 88.1474 33.4134 88.5241 31.3069C88.6964 30.3586 88.639 29.3688 88.685 28.3998C88.6965 28.1529 88.5287 28.1506 88.3518 28.1506H86.5163Z" fill="white"/>
<path id="Vector_8" d="M98.3082 21.2151C98.3765 21.163 98.4403 21.1051 98.4988 21.0421C99.5671 19.5101 101.083 18.721 102.88 18.428C104.334 18.1806 105.825 18.281 107.233 18.721C109.409 19.3993 110.537 20.9751 110.87 23.1739C110.973 23.8613 111.025 24.5553 111.026 25.2504C111.042 29.0804 111.026 32.9126 111.026 36.7449C111.026 37.264 111.026 37.264 110.498 37.2664C109.884 37.2664 109.271 37.2456 108.66 37.2664C108.29 37.2825 108.184 37.1602 108.187 36.7888C108.197 32.905 108.197 29.0219 108.187 25.1397C108.183 24.6398 108.131 24.1415 108.033 23.6515C107.713 22.0365 106.758 21.1136 105.143 20.8321C104.084 20.6455 102.997 20.6887 101.956 20.959C100.3 21.3789 99.1995 22.4287 98.7952 24.0783C98.5356 25.1205 98.3915 26.1883 98.3656 27.2623C98.3105 30.4139 98.3472 33.5679 98.3449 36.7219C98.3449 37.2548 98.3449 37.2571 97.8188 37.2594C97.2077 37.2594 96.5943 37.2433 95.981 37.2594C95.6295 37.2733 95.5215 37.151 95.5215 36.798C95.5353 35.2614 95.5215 33.7225 95.5215 32.1836V19.2263C95.5215 18.6587 95.5215 18.6587 96.0912 18.6587C96.661 18.6587 97.2927 18.6587 97.8923 18.6587C98.1542 18.6587 98.2507 18.7533 98.2461 19.0186C98.2461 19.5954 98.2461 20.1722 98.2645 20.749C98.2783 20.8805 98.2944 21.0144 98.3082 21.2151Z" fill="white"/>
<path id="Vector_9" d="M29.9507 0.201169C30.5386 0.196847 31.1216 0.310196 31.6655 0.5346C32.2093 0.759004 32.7033 1.08997 33.1184 1.50817C33.5335 1.92637 33.8615 2.42343 34.0833 2.97034C34.3051 3.51724 34.4161 4.10303 34.41 4.69352C34.3836 5.8646 33.9017 6.97877 33.0677 7.79761C32.2336 8.61646 31.1136 9.07493 29.9472 9.07493C28.7808 9.07493 27.6608 8.61646 26.8268 7.79761C25.9927 6.97877 25.5109 5.8646 25.4844 4.69352C25.4814 4.1033 25.5948 3.51833 25.8181 2.97237C26.0414 2.42641 26.3701 1.93027 26.7854 1.5126C27.2006 1.09493 27.6941 0.763993 28.2374 0.538904C28.7807 0.313815 29.363 0.199028 29.9507 0.201169Z" fill="#CFD0D5"/>
</g>
</g>
</g>
<defs>
<clipPath id="clip0_1085_7829">
<rect width="130.053" height="44.8654" fill="white" transform="translate(0 0.201294)"/>
</clipPath>
</defs>
</svg>
