<svg width="121" height="46" viewBox="0 0 95 45" fill="none" xmlns="http://www.w3.org/2000/svg">
<g id="UBA main 1" clip-path="url(#clip0_1085_7643)">
<g id="Layer 2">
<g id="Layer 1">
<path id="Vector" d="M90.128 0.0256425C91.3546 0.0256425 92.5812 0.0256425 93.8078 0.0256425C94.7397 0.0256425 94.9954 0.299216 94.7354 1.18941C94.3019 2.60939 94.0419 4.04673 93.7645 5.49276C93.3311 7.82465 92.6766 10.1175 92.1911 12.4407C91.5367 15.5933 90.9645 18.7632 90.1454 21.8811C89.8636 22.9624 89.7596 24.0957 89.5646 25.2031C89.5352 25.4806 89.4666 25.7526 89.3608 26.0108C89.2742 26.1888 89.0488 26.2974 88.8884 26.445C88.8234 26.3234 88.754 26.2018 88.6934 26.0802C85.9324 20.5219 83.1585 14.968 80.4235 9.39661C79.9265 8.39491 79.5259 7.34798 79.2273 6.27006C78.6725 4.25517 80.2112 1.64103 82.3523 0.898471C84.3641 0.204947 86.4912 -0.0900226 88.6153 0.0299849C89.1181 0.0473546 89.6252 0.0256425 90.128 0.0256425Z" fill="white"/>
<path id="Vector_2" d="M71.9985 32.1724C70.5595 32.1724 69.1162 32.1724 67.6642 32.1724C67.105 32.1724 67.0054 31.964 67.1484 31.3647C67.7335 28.9156 68.219 26.4404 68.7434 23.9826C69.2418 21.6551 69.749 19.3275 70.2431 17C70.7632 14.5335 71.253 12.0626 71.7817 9.59612C72.0158 8.50617 72.3019 7.4249 72.5792 6.34364C72.6486 6.14583 72.7372 5.9553 72.8436 5.77478C72.9347 5.94414 73.03 6.10915 73.1124 6.28284L77.8801 15.7407C78.8336 17.634 79.8348 19.5012 80.7364 21.4162C81.3065 22.6169 81.7959 23.8543 82.2014 25.1203C83.2763 28.5161 81.8026 30.9305 78.3872 31.7729C76.5451 32.2072 74.7117 32.1637 72.8653 32.1811H71.9985V32.1724Z" fill="white"/>
<path id="Vector_3" d="M26.6621 32.1765C25.2924 32.1765 23.9228 32.1765 22.5488 32.1765C21.5433 32.1765 21.3612 31.9724 21.5303 31.0822C21.8192 29.6347 22.1226 28.1945 22.4405 26.7615C22.8349 24.9898 23.3073 23.2267 23.6584 21.4507C24.0008 19.8006 24.2479 18.1287 24.5729 16.4743C24.8243 15.1715 25.1624 13.8688 25.4095 12.5661C25.6088 11.4935 25.7562 11.3068 26.9611 11.2981C29.6267 11.2894 32.2966 11.2894 34.9622 11.2894C35.8391 11.2764 36.6973 11.5434 37.4126 12.0516C38.128 12.5598 38.6633 13.283 38.9411 14.1163C39.2642 15.0041 39.2918 15.9727 39.02 16.8775C38.7481 17.7823 38.1913 18.5746 37.4328 19.1362C36.8173 19.6052 36.1325 20.0047 35.4867 20.4389C35.348 20.5301 35.2179 20.6343 35.0836 20.7298C35.2167 20.896 35.3729 21.0423 35.5474 21.1641C36.0658 21.3503 36.5639 21.5889 37.034 21.8762C38.7461 23.2788 38.9888 25.1895 37.7795 27.6951C36.3622 30.6262 33.6533 31.8378 30.5629 32.1331C29.2635 32.1985 27.9615 32.1985 26.6621 32.1331V32.1765ZM29.8218 22.1455C29.462 22.1455 29.1023 22.1455 28.7425 22.1455C28.036 22.1107 27.4422 22.1455 27.5636 23.1399C27.5983 23.3874 27.3989 23.661 27.3382 23.9302C26.9871 25.4935 26.6231 27.0568 26.324 28.6287C26.2763 28.8936 26.5147 29.4668 26.6491 29.4972C28.9376 29.6666 31.2391 29.7664 32.9728 27.8384C33.4062 27.3738 33.9393 26.8657 34.0347 26.3142C34.3771 24.2429 33.844 22.0499 30.68 22.1672C30.3939 22.1759 30.1295 22.1455 29.8218 22.1455ZM31.1221 13.8949V13.9426C30.8335 13.9646 30.5437 13.9646 30.2552 13.9426C29.475 13.8297 29.3537 14.2075 29.2583 14.9153C29.0376 16.5797 28.7075 18.2276 28.2701 19.8483C28.1314 20.4085 28.2701 20.4085 28.6732 20.4085C29.319 20.4085 30.0168 20.5648 30.6063 20.3781C31.5995 20.0655 32.5491 19.6277 33.4322 19.0754C33.7877 18.8332 34.0809 18.5103 34.2881 18.133C34.4952 17.7556 34.6104 17.3346 34.6242 16.9042C34.7065 16.2658 34.9536 15.6883 34.4985 15.1672C34.1037 14.6872 33.6059 14.3027 33.0421 14.0425C32.47 13.8645 31.7809 13.9426 31.1437 13.8949H31.1221Z" fill="white"/>
<path id="Vector_4" d="M7.41399 32.7325C6.13483 32.5968 4.86328 32.3968 3.60415 32.1332C1.89645 31.6643 0.414122 29.4713 0.249419 27.5867C0.106388 25.9236 0.570156 24.3473 0.84755 22.7493C1.15962 20.9602 1.62772 19.1971 1.9918 17.4167C2.31687 15.8361 2.55959 14.2381 2.89333 12.6401C3.14039 11.4893 3.42645 11.2722 4.62705 11.2939C5.4679 11.2939 6.59481 11.1115 7.07592 11.5631C7.55702 12.0148 7.0109 13.1177 6.86787 13.9428C6.36943 16.8479 5.81464 19.7356 5.09948 22.5929C4.90908 23.4867 4.76441 24.3897 4.66605 25.2983C4.5004 26.2419 4.67836 27.2137 5.16756 28.037C5.65677 28.8602 6.4247 29.4801 7.33164 29.784C7.7271 29.9449 8.16037 29.9886 8.57991 29.9099C11.0591 29.2151 13.0702 27.9558 13.7377 25.2375C14.1711 23.4744 14.6046 21.7158 15.0163 19.944C15.4281 18.1723 15.7271 16.5135 16.0912 14.8026C16.2993 13.8473 16.5897 12.905 16.7284 11.9409C16.8151 11.3373 17.1228 11.3026 17.5952 11.2765C20.9543 11.0855 20.9109 11.0681 20.0831 14.2902C19.4893 16.5917 19.0385 18.9323 18.5271 21.2381C18.1803 22.81 17.955 24.4211 17.4739 25.9496C16.4553 29.176 14.0845 31.0997 10.9724 32.0985C9.81085 32.4937 8.58425 32.5414 7.41399 32.7325Z" fill="white"/>
<path id="Vector_5" d="M57.4959 32.1678C55.1944 32.1678 55.2074 32.1678 54.865 29.9532C54.8043 29.545 54.5659 29.1672 54.4879 28.7633C54.3969 28.29 54.1108 28.2292 53.7207 28.2336C51.1982 28.2336 48.68 28.2336 46.1574 28.2336C45.8398 28.2883 45.5564 28.4662 45.3686 28.7286C44.7216 29.4794 44.1591 30.2993 43.6912 31.1734C43.5771 31.5112 43.3449 31.7963 43.0374 31.9759C42.7298 32.1555 42.3678 32.2175 42.0182 32.1504C41.1513 32.0896 40.3148 32.0679 39.4609 32.0288C39.8944 31.3427 40.3278 30.6479 40.7612 29.9749L52.7022 12.236C52.8193 11.9843 52.9647 11.7469 53.1356 11.5282C53.2719 11.3977 53.4391 11.3042 53.6215 11.2564C53.8038 11.2086 53.9954 11.2082 54.1779 11.2551C54.3605 11.302 54.5282 11.3948 54.6651 11.5246C54.802 11.6545 54.9036 11.8171 54.9603 11.9972C55.2897 12.9829 55.5065 14.0121 55.7535 15.0369C56.6753 18.838 57.597 22.6391 58.5188 26.4401C58.8785 27.9339 59.286 29.4104 59.6327 30.9085C59.8624 31.9029 59.6327 32.1287 58.5621 32.1548C58.2154 32.1765 57.8686 32.1678 57.4959 32.1678ZM50.7171 24.8942V24.79C51.3672 24.79 52.0174 24.79 52.6632 24.79C53.491 24.7683 53.7207 24.4904 53.53 23.7739C53.0995 22.0803 52.6661 20.3882 52.2297 18.6976C52.1813 18.5795 52.1172 18.4684 52.039 18.3676C51.9154 18.4424 51.8043 18.5362 51.7096 18.6455C50.8991 19.8874 50.0929 21.1293 49.3041 22.3843C48.8707 23.0965 48.4372 23.8347 48.0038 24.5555L50.7171 24.8942Z" fill="white"/>
<path id="Vector_6" d="M31.052 41.2738C31.0148 40.8403 31.0148 40.4044 31.052 39.971C31.156 39.3934 30.6185 38.5596 31.4421 38.2643C32.7424 37.7997 34.4762 38.3989 34.849 39.3326C34.9487 39.5715 34.9877 40.0274 34.849 40.136C34.0168 40.8221 34.1641 41.3563 34.953 41.9382C35.4472 42.2986 35.3258 42.7112 35.0397 43.241C34.6845 43.848 34.1398 44.3211 33.4896 44.5871C32.8394 44.8532 32.1199 44.8975 31.4421 44.7131C31.3342 44.6466 31.2433 44.5558 31.1763 44.4481C31.1094 44.3403 31.0683 44.2185 31.0563 44.0921C31.0303 43.1498 31.052 42.2118 31.052 41.2738ZM31.9449 42.8154C31.9839 43.2757 31.7585 43.8663 32.5994 43.875C33.6743 43.875 34.0731 43.5623 34.0861 42.5418C34.0861 41.8079 33.9518 41.6993 32.9722 41.6733C31.9926 41.6472 31.9406 41.708 31.9449 42.8154ZM31.9926 40.1751C31.9926 40.1751 32.1313 40.6788 32.3957 40.7744C33.0328 41.0045 33.592 40.5181 33.6657 39.7973C33.722 39.224 33.3709 39.0981 32.8898 39.1025C32.4087 39.1068 31.8625 39.033 31.9926 40.1751Z" fill="white"/>
<path id="Vector_7" d="M6.37441 40.8178C6.37441 41.5387 6.40475 42.2596 6.37441 42.9891C6.30939 44.1573 5.55086 44.7609 4.20717 44.7609C2.86348 44.7609 2.07027 44.1617 2.03993 42.9935C1.99225 41.6299 2.01392 40.262 2.03993 38.894C2.03993 38.6813 2.25231 38.3165 2.41269 38.2904C2.93283 38.2123 2.88948 38.6465 2.89382 38.9983C2.89382 40.2229 2.85481 41.4475 2.89382 42.6678C2.88739 42.9014 2.94597 43.1322 3.06299 43.3343C3.18001 43.5365 3.35086 43.702 3.55642 43.8124C3.76199 43.9228 3.99417 43.9738 4.22698 43.9595C4.45979 43.9453 4.68405 43.8664 4.87468 43.7317C5.03388 43.6037 5.16607 43.4453 5.26356 43.2656C5.36104 43.0859 5.42187 42.8886 5.4425 42.6852C5.51185 41.5387 5.4425 40.3836 5.47717 39.2111C5.47717 38.8376 5.27345 38.2122 5.96264 38.273C6.65182 38.3338 6.31373 38.9331 6.3484 39.3023C6.40909 39.8277 6.37441 40.3315 6.37441 40.8178Z" fill="white"/>
<path id="Vector_8" d="M27.1694 41.4475C27.1694 42.316 27.1694 43.1845 27.1694 44.027C27.1694 44.5829 26.9354 44.7826 26.3979 44.7479C25.9654 44.7078 25.5301 44.7078 25.0975 44.7479C24.8131 44.7791 24.5256 44.7307 24.2669 44.608C24.0083 44.4854 23.7887 44.2933 23.6325 44.053C22.9346 43.1845 23.069 42.1987 23.4374 41.2477C23.7235 40.5095 24.0876 39.7799 25.0975 39.9449C26.0121 40.0839 26.3719 39.7061 26.2938 38.7854C26.2938 38.6161 26.5843 38.425 26.7273 38.2469C26.8573 38.4467 27.0957 38.6465 27.1044 38.8593C27.1477 39.7278 27.1261 40.5963 27.1261 41.4344L27.1694 41.4475ZM26.3025 42.4159C26.3025 42.1987 26.3025 41.9816 26.3025 41.7645C26.2722 40.922 25.8994 40.6441 25.0802 40.8482C24.261 41.0523 23.9272 41.8209 24.1569 42.9544C24.2913 43.6101 24.7638 43.8837 25.6133 43.8924C26.4629 43.9011 26.2895 43.3365 26.3025 42.8501C26.2895 42.7025 26.2852 42.5548 26.2852 42.4159H26.3025Z" fill="white"/>
<path id="Vector_9" d="M70.9237 44.3399C70.8544 44.4528 70.7937 44.6612 70.72 44.6699C70.5293 44.6699 70.1869 44.6395 70.1652 44.5614C69.8748 43.2846 68.8995 43.4366 67.9589 43.4323C67.3694 43.4323 67.0053 43.5582 66.9967 44.2487C66.9967 44.405 66.6499 44.557 66.4635 44.7133C66.3552 44.4788 66.1038 44.1922 66.1688 44.0272C66.858 42.199 67.5818 40.3837 68.336 38.5772C68.5267 38.1169 68.6655 38.347 68.7955 38.6684C69.4977 40.4055 70.2215 42.1425 70.9237 43.9056C70.9499 44.0492 70.9499 44.1963 70.9237 44.3399ZM69.3026 42.2337C69.0729 41.6344 68.9169 41.1828 68.7218 40.7529C68.6915 40.6877 68.375 40.6704 68.362 40.6964C68.1698 41.1343 68.0245 41.5914 67.9286 42.06C67.8376 42.5551 68.271 42.6028 68.6134 42.5551C68.8574 42.4818 69.0896 42.3736 69.3026 42.2337Z" fill="white"/>
<path id="Vector_10" d="M20.6454 39.9495C22.0064 39.9929 22.6003 40.5618 22.6436 41.8169C22.6165 41.9752 22.5487 42.1238 22.4468 42.2479C22.345 42.372 22.2126 42.4674 22.0628 42.5247C21.3563 42.6246 20.6281 42.5551 19.8955 42.5855C19.7178 42.5855 19.3841 42.7809 19.3927 42.8374C19.4404 43.0979 19.5271 43.4974 19.6962 43.5582C20.2286 43.7003 20.7702 43.8048 21.3173 43.8709C21.5155 43.9226 21.7108 43.985 21.9024 44.0577C21.703 44.2618 21.547 44.5744 21.3086 44.6569C19.6918 45.1998 18.4652 44.3269 18.4478 42.6159C18.3857 42.0532 18.4554 41.4837 18.6515 40.9527C18.8129 40.5771 19.1013 40.2706 19.466 40.0871C19.8307 39.9036 20.2484 39.8549 20.6454 39.9495ZM20.316 41.6866C20.4591 41.7151 20.6064 41.7151 20.7494 41.6866C20.9938 41.5543 21.231 41.4093 21.4603 41.2523C21.2116 41.0797 20.9403 40.9423 20.6541 40.8441C20.3824 40.8159 20.1084 40.8672 19.8652 40.9918C19.6962 41.0699 19.5878 41.2871 19.4317 41.426C19.5671 41.5224 19.7124 41.6039 19.8652 41.6692C20.0136 41.6986 20.1657 41.7044 20.316 41.6866Z" fill="white"/>
<path id="Vector_11" d="M86.7909 39.9494C88.0912 39.9494 88.6114 40.4184 88.7024 41.5779C88.7631 42.3639 88.5333 43.2237 88.7761 43.9272C89.0795 44.7958 89.0968 45.0129 88.2343 44.4961C87.7184 44.1878 87.4757 44.6394 87.103 44.7089C86.5655 44.8131 85.8416 44.9825 85.5512 44.3658C85.3481 43.7814 85.2527 43.1649 85.2695 42.5463C85.2695 42.4203 85.5079 42.2119 85.6769 42.1554C86.1927 41.9687 86.7432 41.8645 87.259 41.6691C87.4584 41.5909 87.6014 41.3607 87.7705 41.1957C87.6231 41.0828 87.4801 40.883 87.337 40.8657C86.9036 40.8179 86.4701 40.8657 86.0367 40.8396C85.7945 40.7871 85.56 40.7039 85.3388 40.5921C85.5382 40.3923 85.7029 40.0927 85.9413 40.0102C86.2193 39.9437 86.5063 39.9232 86.7909 39.9494ZM87.8181 42.8503C87.6578 42.6896 87.4627 42.3552 87.1766 42.2466C86.8906 42.1381 86.041 42.9892 86.1147 43.2889C86.1409 43.4086 86.1933 43.5211 86.2683 43.618C86.3433 43.7149 86.4389 43.7938 86.5481 43.8491C86.6987 43.8841 86.8552 43.8849 87.0061 43.8514C87.157 43.818 87.2985 43.7511 87.4203 43.6558C87.542 43.5604 87.641 43.439 87.7098 43.3004C87.7787 43.1617 87.8157 43.0094 87.8181 42.8546V42.8503Z" fill="white"/>
<path id="Vector_12" d="M45.7757 41.6079C45.7757 40.6004 45.7757 39.5973 45.7973 38.5898C45.7973 38.4769 46.0834 38.2771 46.2308 38.2902C46.3166 38.3148 46.395 38.3602 46.4592 38.4223C46.5234 38.4844 46.5715 38.5613 46.5992 38.6463C46.6426 39.5148 46.6252 40.3833 46.6469 41.2518C46.6469 41.3734 46.7639 41.4907 46.8289 41.6123C46.907 41.5167 46.9806 41.4212 47.0673 41.33C47.5008 40.8957 47.9082 40.4094 48.3677 40.0012C48.476 39.9056 48.7708 40.0012 48.9832 40.0446C48.9572 40.2009 48.9832 40.392 48.8965 40.5049C48.7272 40.7267 48.5386 40.9331 48.333 41.1216C48.2153 41.2054 48.118 41.3148 48.0485 41.4416C47.9789 41.5685 47.9389 41.7094 47.9314 41.8539C47.9239 41.9984 47.9491 42.1428 48.0051 42.2762C48.0612 42.4095 48.1466 42.5285 48.255 42.6241C48.4609 42.8191 48.6337 43.0464 48.7665 43.2972C48.9312 43.7315 49.1999 44.5088 49.0742 44.5696C48.2073 45.069 48.424 43.9573 47.9949 43.7011C47.7348 43.5447 47.6568 43.0975 47.4358 42.8326C47.2819 42.7072 47.0878 42.6424 46.8896 42.6502C46.8159 42.6502 46.6902 42.8499 46.6686 42.9759C46.5862 43.4101 46.5819 43.8183 46.4648 44.2222C46.4172 44.3959 46.1701 44.5132 46.0314 44.6565C45.9404 44.5001 45.7757 44.3481 45.7713 44.1918C45.7453 43.3233 45.7713 42.4547 45.7713 41.5862L45.7757 41.6079Z" fill="white"/>
<path id="Vector_13" d="M37.6496 39.9498C38.8069 39.8065 39.4571 40.3841 39.3487 41.8215C39.2967 42.5597 39.6088 43.3197 39.7128 44.0797C39.7908 44.6268 39.5524 44.9482 39.0019 44.6268C38.8984 44.5426 38.7691 44.4966 38.6357 44.4966C38.5023 44.4966 38.373 44.5426 38.2694 44.6268C38.0151 44.7419 37.7378 44.7969 37.4589 44.7875C36.592 44.8657 36.1585 44.2099 35.8551 43.5976C35.5517 42.9853 36.0112 42.4685 36.5009 42.1602C36.9399 41.9807 37.392 41.8355 37.8533 41.726C38.0523 41.6096 38.2321 41.4631 38.3865 41.2917C38.1956 41.1312 37.9786 41.0048 37.7449 40.9182C37.3982 40.8574 37.0254 40.9443 36.6743 40.8922C36.5876 40.8675 36.5087 40.821 36.445 40.7572C36.3812 40.6933 36.3349 40.6142 36.3102 40.5274C36.3219 40.4352 36.3561 40.3474 36.4098 40.2716C36.4635 40.1959 36.535 40.1346 36.618 40.0931C36.9553 40.0064 37.3014 39.9583 37.6496 39.9498ZM38.4428 42.8724L38.2391 42.2558C38.057 42.36 37.8706 42.4555 37.6929 42.5684C37.386 42.7273 37.0956 42.9164 36.826 43.133C36.54 43.3979 36.7307 43.8104 37.1381 43.8799C38.083 44.0232 38.3908 43.8191 38.4428 42.855V42.8724Z" fill="white"/>
<path id="Vector_14" d="M55.7398 42.1426C55.5794 39.9713 57.5299 39.6413 58.9863 40.0668C59.8835 40.3274 59.7925 41.3696 60.0092 42.0427C60.304 42.959 59.6408 43.7798 58.9386 44.4225C58.6681 44.662 58.3313 44.8135 57.9729 44.8569C57.6146 44.9003 57.2515 44.8337 56.9317 44.6657C55.9955 44.201 55.7007 43.2022 55.7398 42.1426ZM56.6413 42.4683C56.5962 42.6117 56.5812 42.7629 56.5973 42.9124C56.6133 43.0619 56.6601 43.2064 56.7346 43.3369C56.8091 43.4675 56.9097 43.5811 57.0302 43.6708C57.1506 43.7605 57.2883 43.8242 57.4345 43.858C57.7943 43.9622 58.4965 43.9057 58.5962 43.7016C58.8828 43.1087 59.031 42.4583 59.0296 41.7996C59.0296 41.1004 58.3491 40.779 57.7813 40.5793C57.4085 40.449 56.715 41.4739 56.663 42.1209C56.6327 42.173 56.6413 42.2425 56.6413 42.4683Z" fill="white"/>
<path id="Vector_15" d="M7.65214 42.2816C7.62866 41.7026 7.63589 41.1228 7.67381 40.5446C7.67381 40.3448 7.96422 40.1754 8.10726 39.993C8.62306 40.588 9.10419 39.9409 9.60265 39.9366C10.0651 39.8978 10.5243 40.0427 10.8811 40.3401C11.2378 40.6374 11.4637 41.0633 11.5098 41.526C11.5597 42.4619 11.5597 43.3998 11.5098 44.3357C11.4762 44.4221 11.4211 44.4986 11.3498 44.5578C11.2785 44.6171 11.1934 44.6572 11.1024 44.6744C11.0126 44.6566 10.9289 44.6162 10.8591 44.5569C10.7893 44.4976 10.7358 44.4215 10.7036 44.3357C10.6516 43.7625 10.6733 43.1805 10.6603 42.5986C10.6386 41.2958 10.3785 40.8616 9.64167 40.8095C8.9048 40.7574 8.56238 41.2437 8.53637 42.5031C8.53637 43.1545 8.53637 43.8059 8.48869 44.4486C8.46302 44.5096 8.42196 44.5629 8.36953 44.6033C8.3171 44.6436 8.2551 44.6696 8.18961 44.6788C8.00365 44.6265 7.82982 44.538 7.67814 44.4182C7.64347 44.3921 7.67814 44.2792 7.67814 44.2097V42.2816H7.65214Z" fill="white"/>
<path id="Vector_16" d="M40.5312 42.3467L40.813 40.0494C41.5325 40.3317 42.226 39.9886 42.9282 39.9365C43.7128 39.8714 44.2286 40.2101 44.3153 40.8962C44.4496 42.0904 44.4193 43.302 44.4366 44.5093C44.4366 44.5744 44.1982 44.7221 44.1115 44.696C43.9425 44.6439 43.6781 44.505 43.6781 44.392C43.6088 43.4585 43.6001 42.5214 43.6521 41.5867C43.6911 40.8181 43.0669 40.8181 42.6985 40.6357C42.5338 40.5575 42.0657 40.8398 41.9053 41.0699C41.6823 41.416 41.5455 41.8107 41.5065 42.2207C41.4415 42.9373 41.5065 43.6581 41.4458 44.392C41.4458 44.5093 41.1511 44.7004 41.0124 44.6873C40.9232 44.661 40.8424 44.6119 40.7778 44.545C40.7133 44.478 40.6671 44.3954 40.6439 44.3052C40.6006 43.6625 40.6439 43.0024 40.6439 42.364L40.5312 42.3467Z" fill="white"/>
<path id="Vector_17" d="M82.9426 44.7653C82.3052 44.7952 81.682 44.5703 81.2101 44.1399C80.7382 43.7094 80.4564 43.1089 80.4265 42.4702C80.3966 41.8316 80.6211 41.2072 81.0507 40.7344C81.4803 40.2617 82.0798 39.9793 82.7172 39.9493C83.1516 39.9249 83.5874 39.9453 84.0176 40.0101C84.0984 40.0529 84.1675 40.1148 84.2189 40.1905C84.2703 40.2662 84.3024 40.3534 84.3123 40.4444C84.3123 40.5747 84.0783 40.7527 83.9179 40.7961C83.7084 40.8148 83.4973 40.7972 83.2937 40.744C82.2881 40.6007 82.0411 40.744 81.7637 41.6951C81.4863 42.6461 81.8027 43.5624 82.4442 43.7882C82.6999 43.8794 83.012 43.7882 83.2851 43.8664C83.5581 43.9445 84.204 43.5059 84.1996 44.179C84.1996 44.3701 83.5365 44.5569 83.1767 44.7349C83.0987 44.7914 83.0077 44.7653 82.9426 44.7653Z" fill="white"/>
<path id="Vector_18" d="M17.0529 44.7704C15.9129 44.74 15.5358 44.4273 15.4318 43.5935C15.3018 42.56 15.7005 41.483 15.0677 40.4712C14.9333 40.254 15.2757 39.7199 15.4361 39.3464C15.5485 39.1274 15.679 38.9182 15.8262 38.7211C15.9823 38.8991 16.29 39.1032 16.2597 39.2552C16.121 40.2974 17.4907 39.6895 17.4126 40.2497C17.352 40.6492 16.4764 40.9011 16.3507 41.331C16.2227 42.0345 16.2227 42.7554 16.3507 43.4589C16.3507 43.6196 16.7321 43.8454 16.9532 43.8931C17.3866 43.9366 17.6901 44.0408 17.5557 44.4924C17.521 44.6488 17.1266 44.7269 17.0529 44.7704Z" fill="white"/>
<path id="Vector_19" d="M54.8645 38.2383L55.2589 38.4293C55.0985 38.5205 54.9252 38.6031 54.7691 38.7073C54.1233 39.1415 53.4688 39.6019 54.7431 40.1013C54.8168 40.1273 54.8775 40.4356 54.8428 40.4574C53.3084 41.4735 54.327 43.0369 53.9759 44.3049C53.9468 44.393 53.8975 44.473 53.8321 44.5386C53.7666 44.6042 53.6867 44.6536 53.5988 44.6827C53.4558 44.6827 53.1654 44.5003 53.1654 44.3788C53.1133 43.736 53.1264 43.076 53.1177 42.4376C53.1177 42.0033 53.1177 41.5691 53.1177 41.1348C53.1177 40.7005 52.0471 40.4834 52.5845 40.0535C52.8978 39.8143 53.1122 39.4681 53.187 39.0807C53.3951 38.3599 53.9672 38.1167 54.8645 38.2383Z" fill="white"/>
<path id="Vector_20" d="M72.5313 44.7874C72.3752 44.5529 72.2235 44.4313 72.2192 44.301C72.1932 43.5107 72.2192 42.716 72.1932 41.9213C72.2187 41.638 72.1922 41.3525 72.1152 41.0788C71.9721 40.727 71.0315 40.4752 71.426 40.2884C72.2625 39.8976 71.9678 38.9856 72.5096 38.6296C72.9326 38.4087 73.3953 38.2744 73.8706 38.2344C73.9877 38.2344 74.148 38.4124 74.3041 38.508C74.1827 38.5688 74.057 38.686 73.94 38.6773C73.4328 38.6426 73.2075 38.8597 73.0124 39.3374C72.8434 39.7717 72.7133 39.928 73.2811 39.9671C73.5412 39.9671 74.2477 39.9367 73.6712 40.4578C73.0948 40.9789 73.0904 41.5521 73.0948 42.1949C73.119 42.7739 73.1103 43.3539 73.0688 43.9319C73.0384 44.1794 72.774 44.4009 72.5313 44.7874Z" fill="white"/>
<path id="Vector_21" d="M74.8407 42.121C75.0661 41.5347 74.4549 40.6879 75.1528 40.0278C75.8116 40.4882 76.4531 39.8889 77.0903 39.9801C77.3232 40.0433 77.5474 40.1352 77.7578 40.2537C77.6105 40.41 77.4761 40.6879 77.3244 40.6879C75.7596 40.8747 75.7336 41.9907 75.7119 43.1849C75.7119 43.6974 75.998 44.6354 75.3609 44.6441C74.3162 44.6441 75.0618 43.6366 74.8667 43.1111C74.8094 42.7842 74.8007 42.4505 74.8407 42.121Z" fill="white"/>
<path id="Vector_22" d="M60.9368 42.1423C60.9325 42.07 60.9325 41.9975 60.9368 41.9252C61.0019 41.2999 60.8805 40.5356 61.2056 40.1013C61.4223 39.8017 62.2719 40.3662 62.8484 39.984C62.9611 39.9102 63.2818 40.1708 63.5289 40.2793C63.3685 40.4574 63.2428 40.7136 63.0434 40.8005C62.727 40.9264 62.1765 40.8005 62.0551 41.0046C61.88 41.3832 61.8025 41.7998 61.8297 42.2162C61.7951 42.937 61.8297 43.6579 61.7821 44.3875C61.7821 44.5047 61.4873 44.7045 61.3486 44.6915C61.2592 44.6661 61.1778 44.618 61.1125 44.5518C61.0472 44.4856 61.0001 44.4035 60.9759 44.3136C60.9412 43.5971 60.9759 42.8719 60.9759 42.1423H60.9368Z" fill="white"/>
<path id="Vector_23" d="M79.5968 42.5555C79.5968 43.1288 79.6228 43.702 79.5968 44.2926C79.5968 44.4446 79.3757 44.5792 79.2544 44.7269C79.0853 44.5575 78.7906 44.4012 78.7732 44.2188C78.7126 43.5804 78.7732 42.916 78.7256 42.2906C78.6657 41.747 78.554 41.2104 78.3918 40.6882C78.2661 40.2539 78.3528 39.9543 78.8253 40.0021C79.0983 40.0325 79.5578 40.2583 79.5795 40.4363C79.6279 41.1417 79.6337 41.8494 79.5968 42.5555Z" fill="white"/>
<path id="Vector_24" d="M13.7365 42.3728C13.7691 42.8717 13.7691 43.3722 13.7365 43.871C13.7018 44.162 13.5328 44.631 13.3507 44.6701C12.8306 44.7873 12.8783 44.3053 12.8739 43.9666C12.8739 43.3977 12.8739 42.8245 12.8739 42.2295C12.8739 41.6346 12.9996 41.1004 12.5402 40.6097C12.4665 40.5316 12.6529 40.0104 12.7699 39.9931C13.147 39.9279 13.6888 39.7672 13.7365 40.4273C13.7842 41.0874 13.7365 41.7301 13.7365 42.3555V42.3728Z" fill="white"/>
<path id="Vector_25" d="M14.2796 38.9462C13.8462 39.0287 13.5644 39.1546 13.3564 39.0895C13.1483 39.0243 13.0443 38.7681 12.8926 38.5944C13.0313 38.4815 13.2307 38.2426 13.3 38.273C13.6446 38.4699 13.9722 38.695 14.2796 38.9462Z" fill="white"/>
<path id="Vector_26" d="M78.6289 38.7113C78.8326 38.5202 78.954 38.3074 79.097 38.277C79.2401 38.2466 79.4135 38.4377 79.5738 38.5289C79.4423 38.7323 79.2849 38.9177 79.1057 39.0804C79.1057 39.1065 78.85 38.8807 78.6289 38.7113Z" fill="white"/>
</g>
</g>
</g>
<defs>
<clipPath id="clip0_1085_7643">
<rect width="94.6076" height="44.8654" fill="white" transform="translate(0.222656 0.000244141)"/>
</clipPath>
</defs>
</svg>
