<svg width="121" height="46" viewBox="0 0 88 46" fill="none" xmlns="http://www.w3.org/2000/svg">
<g id="Unity 1" clip-path="url(#clip0_1085_7773)">
<g id="Layer 2">
<g id="Layer 1">
<path id="Vector" d="M76.4084 27.2831C76.7471 26.5157 76.9776 26.0581 77.1541 25.5778C79.1918 20.5842 81.2522 15.5962 83.2387 10.5799C83.6144 9.63626 84.0925 9.19573 85.117 9.30942C85.6862 9.37194 86.2554 9.28952 86.8246 9.34068C87.5645 9.40605 87.7495 9.67321 87.4849 10.3781C86.984 11.7082 86.4262 13.0127 85.894 14.3286C81.9666 24.026 78.0372 33.7205 74.106 43.4122C73.3149 45.3591 73.6535 45.2937 71.354 45.2852C70.7848 45.2852 70.2156 45.3023 69.6464 45.2511C69.1797 45.2113 68.989 44.8902 69.1228 44.4439C69.2291 44.1315 69.3565 43.8267 69.5041 43.5316C70.8674 40.5104 72.2078 37.4807 73.6052 34.4766C73.7836 34.1216 73.8811 33.7315 73.8904 33.3344C73.8998 32.9373 73.8208 32.5431 73.6592 32.1801C70.9328 25.2169 68.2519 18.2394 65.5511 11.2648C65.4828 11.0858 65.4117 10.9124 65.3462 10.7333C64.9307 9.59647 65.0616 9.38047 66.2256 9.32931C66.7948 9.30657 67.364 9.32931 67.9332 9.32931C69.544 9.32931 69.5554 9.32931 70.1046 10.7703C71.9545 15.636 73.8015 20.5027 75.6457 25.3703C75.8535 25.9047 76.0726 26.4305 76.4084 27.2831Z" fill="white"/>
<path id="Vector_2" d="M52.0189 20.5616C52.0189 18.2878 52.0189 16.0141 52.0189 13.7404C52.0189 12.6291 51.9904 12.5808 50.9346 12.6036C48.82 12.6405 49.0761 12.5353 49.0761 10.6141C49.0761 9.38342 49.1131 9.36921 50.3654 9.33226C50.556 9.33226 50.7467 9.33226 50.9346 9.33226C51.9961 9.29815 52.0046 9.29815 52.0189 8.1954C52.0331 7.29729 52.0331 6.39917 52.0189 5.49821C52.0189 4.85873 52.3035 4.53473 52.958 4.54325C53.8118 4.54325 54.6656 4.54325 55.5194 4.54325C56.117 4.54325 56.3732 4.85305 56.3732 5.42432C56.3732 6.37075 56.3732 7.31718 56.3732 8.26646C56.3931 9.26405 56.4329 9.31521 57.4148 9.33226C58.7381 9.355 60.0672 9.33226 61.3991 9.33226C62.6428 9.34931 62.694 9.41184 62.7339 10.5999C62.7339 10.7903 62.7339 10.9779 62.7339 11.1683C62.7111 12.5496 62.6883 12.5894 61.2796 12.5894C59.9534 12.5894 58.6271 12.6149 57.2952 12.5894C56.6321 12.5751 56.3618 12.8167 56.3646 13.496C56.3931 17.7052 56.3931 21.9144 56.4073 26.1236C56.4073 26.3112 56.4386 26.5016 56.4557 26.692C56.7403 29.6507 58.4109 30.9553 61.3564 30.5801C62.6826 30.4067 62.7481 30.4607 62.7794 31.7482C62.8164 33.499 62.6997 33.678 60.9124 33.8287C59.8712 33.926 58.8231 33.926 57.7819 33.8287C54.3668 33.4705 52.1583 30.9865 52.0388 27.3685C51.9676 25.0948 52.0388 22.8211 52.0388 20.5473L52.0189 20.5616Z" fill="white"/>
<path id="Vector_3" d="M16.3342 30.3894L15.0279 31.4183C12.9589 33.061 10.6622 34.0643 7.96139 33.9108C4.89915 33.7346 2.65654 32.3363 1.39863 29.4913C0.698768 27.9794 0.364397 26.3243 0.422472 24.6597C0.533464 22.3462 0.744064 20.0384 0.886362 17.7277C0.983124 16.1219 1.09127 14.5161 1.07419 12.8961C1.07419 12.069 0.7896 11.2419 0.621689 10.3211C1.30472 10.0369 1.97067 10.3751 2.40041 10.8895C2.98952 11.6029 3.58432 12.4157 3.82338 13.2826C4.20874 14.7 4.44622 16.1535 4.53202 17.6197C4.67717 19.9304 4.62025 22.2524 4.73409 24.5687C4.78488 25.4645 4.96214 26.3486 5.26059 27.1949C6.15137 29.7272 8.43951 30.9749 11.0265 30.2729C12.069 29.9712 13.0552 29.5017 13.9464 28.8831C16.1663 27.3682 17.7828 25.265 19.257 23.0397C19.4106 22.8066 19.5586 22.5735 19.8262 22.1415C19.9126 22.4488 19.9745 22.7624 20.0111 23.0794C20.0111 26.0125 20.0339 28.9456 20.0111 31.8901C20.0111 33.3111 19.9514 33.3396 18.5882 33.3481C16.0268 33.3481 16.4224 33.4675 16.3854 31.2819C16.4025 31.0488 16.3598 30.8243 16.3342 30.3894Z" fill="white"/>
<path id="Vector_4" d="M16.4316 20.2289C16.5284 16.6933 16.6109 13.4504 16.7162 10.2104C16.7162 10.0029 16.8841 9.64198 17.0008 9.62493C17.8451 9.56809 18.6923 9.56809 19.5366 9.62493C19.6419 9.62493 19.7756 10.0967 19.7984 10.3582C19.8411 10.8755 19.7984 11.4013 19.8269 11.9185C19.8553 12.4358 20.1655 12.5722 20.5867 12.2482C21.1559 11.8162 21.6625 11.3132 22.2516 10.9209C24.4828 9.43166 26.845 8.59892 29.6198 9.14177C32.3946 9.68461 34.1334 11.4155 35.1011 13.9478C35.6217 15.2249 35.8539 16.601 35.7812 17.978C35.5991 20.4762 35.3857 22.9716 35.269 25.4727C35.1608 27.7208 34.7909 29.9974 35.6902 32.3109C34.6116 32.3109 33.9826 31.7766 33.4988 30.9694C32.644 29.5392 32.1662 27.916 32.11 26.2514C32.0189 23.8413 32.0018 21.4198 31.8738 19.021C31.8334 17.8916 31.6653 16.7704 31.3729 15.6787C30.3882 12.2681 27.3601 11.5803 24.4259 12.5523C22.576 13.1577 21.1474 14.4566 19.8895 15.8862C18.7454 17.185 17.7237 18.5919 16.4316 20.2289Z" fill="white"/>
<path id="Vector_5" d="M45.5643 21.3547C45.5643 24.8534 45.5643 28.352 45.5643 31.8507C45.5643 33.3201 45.5416 33.3514 44.0418 33.34C40.8828 33.3173 41.23 33.7208 41.2243 30.5575C41.2091 24.1741 41.2091 17.7916 41.2243 11.41C41.2243 11.032 41.2243 10.654 41.2243 10.2732C41.2243 9.72182 41.469 9.35802 42.0781 9.35234C42.9745 9.35234 43.8739 9.35234 44.7732 9.35234C44.8801 9.3411 44.9882 9.35391 45.0895 9.38983C45.1908 9.42575 45.2827 9.48386 45.3586 9.55991C45.4345 9.63596 45.4923 9.72801 45.5279 9.8293C45.5635 9.9306 45.576 10.0386 45.5643 10.1453C45.5643 10.6654 45.5643 11.1855 45.5643 11.7056C45.5681 14.9248 45.5681 18.1412 45.5643 21.3547Z" fill="white"/>
<path id="Vector_6" d="M32.9048 39.8623C33.2447 39.7685 33.5924 39.7057 33.9436 39.6747C34.3621 39.6576 34.7802 39.7144 35.1788 39.8424C36.8609 40.5416 36.952 42.2328 36.5592 43.7136C36.2148 45.0097 34.9369 45.6265 33.5139 45.3053C33.2834 45.2541 32.9902 45.0409 32.8507 45.1205C31.8347 45.689 31.8831 45.004 31.8831 44.3531C31.8831 42.4166 31.8831 40.4819 31.8831 38.5492C31.8516 38.3154 31.867 38.0777 31.9286 37.85C31.9739 37.7551 32.0406 37.6721 32.1236 37.6074C32.2066 37.5428 32.3036 37.4984 32.4068 37.4777C32.5747 37.4777 32.8678 37.705 32.8792 37.85C32.9361 38.4526 32.9048 39.0636 32.9048 39.8623ZM32.9276 42.4346C32.9276 42.7188 32.9276 43.003 32.9276 43.2873C32.9703 44.3759 33.696 44.8306 34.7178 44.4242C35.509 44.1144 35.6655 43.4265 35.7168 42.7188C35.7794 41.8661 35.5318 41.1357 34.7178 40.7065C33.7359 40.1892 32.9731 40.6297 32.9276 41.7411C32.9191 41.9656 32.9276 42.2015 32.9276 42.4346Z" fill="white"/>
<path id="Vector_7" d="M43.4624 4.41006C41.2139 4.41006 41.2111 4.69429 41.2253 2.19593C41.2253 1.9117 41.1513 1.59052 41.2623 1.34325C41.4018 1.05902 41.6779 0.632679 41.9255 0.609941C42.9139 0.551162 43.9047 0.543572 44.8939 0.587203C45.4318 0.587203 45.6168 0.962383 45.6168 1.43988C45.6168 2.14761 45.5884 2.86102 45.6026 3.56022C45.6026 4.16847 45.318 4.4129 44.7488 4.4129C44.3133 4.40437 43.8893 4.41006 43.4624 4.41006Z" fill="white"/>
<path id="Vector_8" d="M43.9654 41.6015C43.3961 40.5413 43.2026 40.4191 42.3374 40.5868C42.0727 40.6783 41.8028 40.7542 41.5291 40.8142C41.401 40.8142 41.1961 40.6436 41.1449 40.5072C41.1226 40.426 41.1211 40.3405 41.1405 40.2586C41.1599 40.1766 41.1996 40.1009 41.2559 40.0382C41.6416 39.8064 42.0754 39.6661 42.5239 39.6282C42.9725 39.5902 43.4237 39.6556 43.843 39.8194C44.6114 40.1036 44.9017 40.7261 44.9444 41.4793C44.9843 42.1841 44.9188 42.9004 44.9871 43.5996C45.0804 44.1763 45.2126 44.746 45.3827 45.305C45.2034 45.3249 44.9814 45.4243 44.8733 45.3504C44.2642 44.9383 43.7177 45.0321 43.0518 45.2993C42.8469 45.3955 42.6246 45.449 42.3984 45.4567C42.1721 45.4643 41.9467 45.4259 41.7358 45.3437C41.5249 45.2616 41.333 45.1374 41.1717 44.9787C41.0104 44.8201 40.8831 44.6303 40.7977 44.421C40.7058 44.2017 40.6597 43.966 40.6622 43.7282C40.6647 43.4905 40.7157 43.2558 40.8122 43.0384C40.9086 42.8211 41.0484 42.6256 41.2231 42.4641C41.3977 42.3025 41.6036 42.1783 41.8279 42.0989C42.4484 41.8203 43.1713 41.7777 43.9654 41.6015ZM44.0109 43.3665C44.028 42.7213 43.8031 42.4712 43.2111 42.4769C42.4427 42.4769 41.7198 43.0653 41.7198 43.7104C41.7198 44.2789 42.0442 44.5631 42.5992 44.6086C42.7733 44.6217 42.9482 44.5997 43.1136 44.5439C43.279 44.4881 43.4314 44.3996 43.5618 44.2836C43.6922 44.1677 43.7979 44.0268 43.8726 43.8693C43.9473 43.7117 43.9895 43.5407 43.9967 43.3665H44.0109Z" fill="white"/>
<path id="Vector_9" d="M59.5037 41.9343C60.7816 41.4682 60.8442 39.561 62.6828 39.8396C62.2246 40.408 61.8973 40.8486 61.5216 41.2607C61.4302 41.3332 61.3547 41.4236 61.2997 41.5264C61.2447 41.6291 61.2114 41.7421 61.2018 41.8582C61.1922 41.9743 61.2065 42.0912 61.2439 42.2015C61.2813 42.3119 61.3409 42.4135 61.4191 42.4999C61.9883 43.3526 62.5006 44.2366 63.0442 45.1205C62.4096 45.4559 62.0453 45.257 61.7607 44.7908C61.4163 44.2224 61.0634 43.671 60.7161 43.1082C60.4315 42.6364 60.0473 42.6989 59.8623 43.1082C59.646 43.6027 59.6318 44.1826 59.4639 44.7027C59.3927 44.9187 59.148 45.075 58.9829 45.2712C58.8349 45.0722 58.5617 44.8761 58.5588 44.6743C58.5247 42.5066 58.5247 40.337 58.5588 38.1655C58.5783 38.0233 58.6333 37.8883 58.7189 37.7731C58.8045 37.6578 58.9178 37.566 59.0483 37.5061C59.5379 37.3952 59.5066 37.8216 59.5066 38.157C59.5037 39.3706 59.5037 40.5956 59.5037 41.9343Z" fill="white"/>
<path id="Vector_10" d="M49.6563 42.4742C49.6563 42.0023 49.6563 41.5277 49.6563 41.053C49.6563 40.1179 49.6562 40.1435 50.6609 40.081C50.9711 40.0611 51.2614 39.8252 51.5745 39.7371C52.9093 39.359 53.8741 39.9559 53.9937 41.3259C54.0696 42.412 54.0772 43.5018 54.0164 44.5888C54.0164 44.8134 53.6863 45.0265 53.5098 45.2482C53.3704 45.0379 53.1228 44.8389 53.1085 44.6229C53.0545 43.8214 53.0886 43.0142 53.0659 42.2098C53.0317 40.9706 52.6617 40.4533 51.862 40.4874C51.0622 40.5215 50.6325 41.0559 50.6182 42.1928C50.604 43.0455 50.6353 43.8981 50.5755 44.7508C50.5755 44.9299 50.2454 45.0862 50.0661 45.2539C49.9352 45.0862 49.6989 44.927 49.6876 44.7537C49.6449 43.9976 49.6705 43.2416 49.6705 42.4799L49.6563 42.4742Z" fill="white"/>
</g>
</g>
</g>
<defs>
<clipPath id="clip0_1085_7773">
<rect width="87.1817" height="44.8654" fill="white" transform="translate(0.421875 0.567261)"/>
</clipPath>
</defs>
</svg>
