<svg width="121" height="46" viewBox="0 0 198 31" fill="none" xmlns="http://www.w3.org/2000/svg">
<g id="wema bank 1" clip-path="url(#clip0_1085_7617)">
<g id="Layer_x0020_1">
<g id="_2305385409696">
<path id="Vector" fillRule="evenodd" clip-rule="evenodd" d="M12.2218 24.5645C11.662 23.5383 12.2225 23.0598 12.6749 22.0385C13.2408 20.7607 15.8104 15.0226 16.166 14.573C16.7998 15.4123 16.1816 16.1912 15.7542 17.0786C15.092 18.4539 12.6028 24.1358 12.2222 24.5645H12.2218ZM18.6692 16.0083C18.2404 14.979 18.4153 15.2305 18.8556 14.2361C20.2021 11.1937 22.9353 5.09261 24.2116 2.6045L24.8947 2.59084C24.5417 3.69186 18.9615 15.7659 18.6692 16.0083ZM16.166 10.4031C16.1041 10.3223 16.1212 10.3875 15.9873 10.1451C15.7079 9.63971 15.8548 9.60405 15.9079 9.4466L19.0654 2.6045L19.7778 2.60412L16.1664 10.4031H16.166ZM9.69995 18.9323C9.0453 18.1386 2.33521 2.57794 1.49802 1.28495C0.833121 0.258295 -0.404834 1.07173 0.131031 2.24369C2.33787 7.07156 4.99936 12.5839 7.10677 17.436C7.4878 18.3132 7.88097 19.1296 8.2749 19.9632C8.7823 21.0365 8.71626 21.8283 10.0104 21.8404C10.9148 20.777 11.8013 18.2619 12.4878 16.8403C13.1341 15.5022 14.141 12.8259 14.8468 11.8118C14.9637 11.9408 14.8328 11.7173 15.026 12.0406C15.0704 12.1145 15.1208 12.2029 15.1455 12.2978C15.284 12.8316 14.0404 15.0678 13.7903 15.6456L10.2214 23.4286C10.0055 24.0986 11.4074 27.1084 11.7967 27.3076C13.0248 27.7963 13.2753 26.2457 13.6753 25.4152C14.3607 23.9916 17.056 17.7471 17.4901 17.351C17.8294 18.2798 17.892 17.9231 17.4431 18.8986L12.8123 29.0509C12.6206 29.7972 13.599 31.2188 14.6806 28.7945L18.6738 20.1844C18.8324 20.3369 19.7641 22.8618 20.7292 21.2501L28.36 4.74204C29.3581 2.57491 29.0655 2.49296 30.0552 2.48651C29.8306 3.33826 29.0442 4.8661 28.6461 5.68902L24.3342 15.0989C23.3254 17.1769 22.462 19.3209 21.4746 21.3438C20.478 23.3857 20.273 23.4559 20.8317 24.6939C21.4442 26.051 21.7922 27.4757 22.7452 27.2848C23.3 27.1737 23.5171 26.4661 23.7725 25.8792L28.8078 14.9471C29.382 13.7384 34.0609 3.27718 34.5805 2.51838H35.2177C33.1813 6.90007 31.1107 11.4806 29.0746 16.0193C28.3854 17.5563 22.8416 29.1568 23.0594 29.639C23.7239 30.2726 24.1964 30.4111 24.6419 29.5142L27.2165 23.9127C29.4799 18.8902 31.9824 13.7964 34.1069 8.8995C34.6549 7.63686 35.2522 6.33628 35.8477 5.09754C36.826 3.06168 38.2583 0.91845 36.2333 0.875578C32.6879 0.800836 33.5983 0.647179 31.7228 4.67982L22.6321 24.42C21.8761 23.6919 22.7516 22.4945 23.1334 21.6769L26.9129 13.4534C28.681 9.76074 30.2458 6.10788 31.9721 2.40949C32.7676 0.705986 31.4431 0.808804 30.0218 0.804251C28.0901 0.797422 28.3395 0.949181 27.6268 2.43377C26.7641 4.23137 25.9087 6.10636 25.0867 7.94L19.9736 18.8254C19.5736 17.5369 19.588 18.1728 20.2218 16.7887C22.3095 12.2303 24.6548 6.86023 26.7865 2.50927C27.9941 0.0439336 23.6165 0.71016 23.2279 1.0611C22.5937 1.63286 18.4066 11.8042 17.4859 13.1738C16.9387 12.5584 17.0886 12.3786 17.4514 11.6494L20.9732 3.95023C21.478 2.84846 22.3273 1.83736 21.4408 0.895307C20.8791 0.742029 18.7467 0.637315 18.2351 0.93742C17.7292 1.23411 15.1216 7.17361 15.0096 7.65242C14.5637 7.25291 14.3493 6.46793 14.07 5.86696C13.7793 5.24057 13.5299 4.68703 13.2328 4.0614C12.7683 3.08406 12.2206 1.19579 11.2836 0.793248C9.98154 1.06376 10.4043 1.9083 10.8681 2.85566C11.3762 3.89294 13.9527 9.43294 13.9129 9.81272C13.8965 9.96675 9.96712 18.5446 9.69995 18.9323Z" fill="white"/>
<g id="Group">
<path id="Vector_2" fillRule="evenodd" clip-rule="evenodd" d="M48.2136 9.58552L44.5703 9.52026C44.7783 10.9589 46.8333 15.8984 47.4474 17.4949C50.7161 25.9968 49.3404 25.0703 52.8489 24.9429L56.6781 15.3801C57.4891 16.0968 60.5734 24.4314 60.7062 25.0013L63.4231 24.9907L69.1666 9.5472L65.6827 9.57338L62.1021 18.2427C61.5377 17.5753 60.6501 14.8914 60.2747 13.927C59.7317 12.5316 59.1351 10.7806 58.5404 9.58249L55.2254 9.57566L51.5183 18.2529L48.214 9.58514L48.2136 9.58552Z" fill="white"/>
<path id="Vector_3" fillRule="evenodd" clip-rule="evenodd" d="M90.4042 15.9627C91.0949 16.7439 92.3765 19.2328 93.0209 20.3979L95.7533 24.9314C96.2467 23.7746 100.463 16.5595 101.15 15.9255C101.889 26.0692 99.26 25.0478 104.584 25.0478C105.108 23.4149 104.715 12.1634 104.79 9.40936H100.717C100.293 10.6879 96.9196 16.1437 95.9567 17.7137C95.9123 17.6738 95.8547 17.6124 95.8311 17.5854L95.192 16.7079C94.9958 16.3827 94.8152 16.0614 94.6383 15.7283C90.6562 8.24877 92.1256 9.36459 87.0402 9.4932L87.0391 25.0296L90.3708 25.0213L90.4042 15.9623V15.9627Z" fill="white"/>
<path id="Vector_4" fillRule="evenodd" clip-rule="evenodd" d="M133.287 18.4345H138.281C140.865 18.4345 141.619 18.6822 141.163 21.176C139.19 22.0931 135.884 21.7524 133.311 21.7535L133.29 20.5466L133.287 18.4349L133.287 18.4345ZM140.076 15.1352C138.952 15.8732 134.729 15.7199 133.046 15.4183L133.15 12.4396C134.846 12.4396 138.287 12.0742 139.563 12.6092C141.345 12.9453 141.435 14.4762 140.075 15.1356L140.076 15.1352ZM142.837 16.5834C145.825 14.8955 144.761 10.422 141.257 9.60701C139.029 9.08837 132.344 9.40706 129.695 9.40706L129.786 24.8452C132.419 24.8452 140.217 25.1973 142.202 24.4601C143.664 23.9176 144.832 22.8446 144.985 20.7982C145.1 19.2453 144.688 18.2528 143.731 17.4143C143.537 17.2443 143.475 17.2159 143.285 17.0436C142.928 16.7211 143.123 16.9294 142.837 16.5834Z" fill="white"/>
<path id="Vector_5" fillRule="evenodd" clip-rule="evenodd" d="M176.557 23.3053C177.866 24.6727 177.393 24.3908 179.831 24.3908V9.7744H177.523L177.533 16.9887C177.582 19.289 177.195 19.0959 175.747 17.4523L168.953 10.647C167.46 9.03647 167.526 9.33847 164.672 9.42801L164.736 24.851L167.968 24.7869L167.994 15.3781C170.326 16.6897 174.552 21.293 176.557 23.3049L176.557 23.3053Z" fill="white"/>
<path id="Vector_6" fillRule="evenodd" clip-rule="evenodd" d="M190.8 15.555C191.648 15.053 191.774 14.8834 192.637 14.1205C194.098 12.8297 196.766 10.8834 198.006 9.43145L197.017 9.40375C194.148 9.36392 193.825 9.11655 192.793 9.90191C191.101 11.1892 187.389 14.4942 186.038 15.1661L186.064 9.38516L182.455 9.52478L182.513 24.8233L186.023 24.8423L186.101 19.6077C186.558 19.1915 187.586 18.4327 188.04 18.1979C194.387 24.8768 191.619 25.2524 197.926 24.7861C197.601 24.0611 197.672 24.3457 197.143 23.7686L192.545 18.0977C191.709 17.0657 191.183 16.5991 190.801 15.555H190.8Z" fill="white"/>
<path id="Vector_7" fillRule="evenodd" clip-rule="evenodd" d="M154.269 14.4397L156.145 18.4124L152.109 18.3479L154.269 14.4397ZM150.938 21.1168L157.411 21.146L159.321 24.8455H162.933C162.749 23.5703 156.267 10.0417 155.465 9.40735H153.157C152.548 9.5758 151.456 12.3056 151.01 13.2772C150.428 14.5448 149.802 15.7999 149.219 17.1319C148.451 18.8855 146.048 23.4178 145.756 24.8459L148.991 24.8334L150.938 21.1171L150.938 21.1168Z" fill="white"/>
<path id="Vector_8" fillRule="evenodd" clip-rule="evenodd" d="M84.7522 22.3382C84.4934 22.0548 84.7314 21.9532 83.4057 21.8545C81.6183 21.7213 76.7678 22.0992 74.2076 21.834L74.2478 18.5606L81.3336 18.4547L81.2232 15.4916L74.2072 15.4233L74.2273 12.722C74.6869 12.1958 73.7473 12.5076 75.1716 12.3244L84.1613 12.3384V10.0305H71.0801V24.6469H84.4179V22.339L84.7526 22.3379L84.7522 22.3382Z" fill="white"/>
<path id="Vector_9" fillRule="evenodd" clip-rule="evenodd" d="M112.259 18.555L114.49 14.5581L116.34 18.555H112.259ZM108.785 25.0185C109.663 24.5754 108.924 25.3372 109.615 24.1732C110.008 23.5111 110.672 21.4571 111.35 21.2545H117.249C118.598 22.0994 118.441 24.1963 119.814 25.0208L123.225 25.0181C121.009 19.8617 118.335 14.5918 115.929 9.57617L112.944 9.57731L105.852 25.0181H108.785L108.785 25.0185Z" fill="white"/>
<path id="Vector_10" fillRule="evenodd" clip-rule="evenodd" d="M84.7519 22.3424L84.4172 22.3436V24.6515H71.0794V10.0351H84.1607V12.343L75.1709 12.3289C73.7466 12.5126 74.6862 12.2003 74.2267 12.7265L84.5553 12.6818L84.4779 9.59119L70.6475 9.65075L70.6426 24.9789L84.8054 24.9903L84.7512 22.3424H84.7519Z" fill="white"/>
</g>
</g>
</g>
</g>
<defs>
<clipPath id="clip0_1085_7617">
<rect width="198.007" height="29.4429" fill="white" transform="translate(0 0.711548)"/>
</clipPath>
</defs>
</svg>
