<svg width="121" height="46" viewBox="0 0 43 45" fill="none" xmlns="http://www.w3.org/2000/svg">
<g id="zenith bank 1" clip-path="url(#clip0_1085_7710)">
<g id="Layer_x0020_1">
<g id="_2305379237664">
<path id="Vector" fillRule="evenodd" clip-rule="evenodd" d="M2.13293 35.1586C5.17153 35.1586 8.12317 35.1233 11.1365 35.1233C14.1574 35.1233 17.1264 35.0709 20.1757 35.0884C20.4125 35.0898 20.4949 35.0538 20.7014 35.0513L24.6419 35.0526C26.1778 35.0526 27.6031 35.0174 29.1436 35.0174C32.1851 35.0174 35.1293 34.982 38.1824 34.982L39.8002 28.3457C39.9321 27.7883 40.0253 27.2261 40.1589 26.6583C40.2879 26.1102 40.3926 25.4967 40.5065 24.9246C40.6213 24.3489 40.7224 23.7719 40.835 23.1715C40.8918 22.8685 40.94 22.5765 40.9861 22.2994L41.1367 21.3917C41.0188 21.4783 40.9795 21.6513 40.9018 21.7913C40.8178 21.9428 40.7329 22.0706 40.6443 22.2036C39.9678 23.2193 39.0715 24.2556 37.8799 24.6534C37.504 24.7788 37.1464 24.7457 36.67 24.7451C36.236 24.7446 35.8701 24.7805 35.4039 24.7805L23.6571 24.8158C23.6994 24.6567 25.7883 22.1684 25.8105 22.1411C26.3485 21.4786 26.8621 20.8041 27.4293 20.1653C27.8123 19.7339 28.1496 19.2672 28.5213 18.8257L38.2987 6.89441C39.1753 5.85342 40.0189 4.74239 40.9018 3.71788C40.9857 3.62045 40.9972 3.65748 41.0311 3.53003C40.9427 3.5894 40.8329 3.68937 40.7386 3.76602L34.9666 8.45675C34.7488 8.62844 34.5818 8.77444 34.3639 8.94613C32.5157 10.4031 30.7136 11.9189 28.8863 13.4029C28.7786 13.4903 28.6996 13.5493 28.5918 13.6369L27.0766 14.8694C26.2723 15.5281 25.4308 16.1604 24.6496 16.8459L24.029 17.3527C22.817 18.3144 21.5576 19.3188 20.3753 20.3219C20.2725 20.409 20.186 20.4701 20.0807 20.5556L8.83036 29.7024C7.19247 30.9937 5.59445 32.3397 3.97278 33.652C3.75844 33.8253 2.24357 35.007 2.13281 35.1587L2.13293 35.1586Z" fill="white"/>
<path id="Vector_2" fillRule="evenodd" clip-rule="evenodd" d="M5.08607 12.3196L5.57318 11.6083C5.64867 11.5142 5.77582 11.3901 5.86821 11.3043C6.42886 10.7837 7.05588 10.4702 7.87915 10.287C8.8056 10.0807 11.5006 10.1664 12.6125 10.1664C15.0275 10.1664 17.4425 10.1664 19.8576 10.1664C20.6946 10.1664 21.412 10.131 22.2491 10.131C22.0505 10.4287 21.172 11.4789 20.9036 11.7811C20.8096 11.8868 20.7124 12.0031 20.6313 12.1078C20.2015 12.6628 19.7091 13.1917 19.2746 13.7466L17.903 15.4057C16.9271 16.6519 15.6645 18.0786 14.6474 19.3393L13.8353 20.3245C13.7338 20.4496 13.6559 20.5499 13.5512 20.6748L5.12908 30.8599C5.04434 30.9572 4.90288 31.1105 4.83984 31.205C4.96369 31.1718 4.90109 31.1852 4.99281 31.1114L5.72817 30.5081C5.83314 30.4141 5.93334 30.3446 6.04065 30.2569C6.62606 29.7784 7.24039 29.3178 7.80322 28.8137C8.63026 28.0731 9.61717 27.3572 10.4779 26.6269C10.5859 26.5353 10.6871 26.4684 10.7915 26.3768C10.9938 26.1993 11.191 26.0626 11.3906 25.8839L14.3791 23.4472C16.3609 21.822 18.3274 20.1813 20.3351 18.5881C20.5471 18.4198 20.7186 18.261 20.9325 18.0934L22.7174 16.6373C23.1311 16.3013 23.5036 15.9906 23.9224 15.6582L25.7049 14.1996C26.3676 13.6061 27.382 12.8212 28.092 12.2537C28.1958 12.1706 28.2754 12.1013 28.3796 12.0128C28.4876 11.9212 28.5887 11.8544 28.6931 11.7627C29.3645 11.1735 30.0776 10.6351 30.7684 10.0686L31.6595 9.33921C31.8744 9.16988 32.0493 9.02152 32.2615 8.8492C32.4728 8.67763 32.653 8.52951 32.8624 8.35795C33.0693 8.18849 33.2607 8.03942 33.4606 7.86395C34.0946 7.30752 35.2148 6.432 35.8489 5.91925L39.4167 3.00504C39.8274 2.67854 40.2078 2.35711 40.619 2.02317L42.694 0.328801C42.7808 0.258366 42.946 0.143855 42.9995 0.0705938C41.5527 0.0705938 40.179 0.0353168 38.7088 0.0353168C34.3828 0.0353168 30.0569 0.0353168 25.731 0.0353168C24.2784 0.0353168 22.9116 0 21.4402 0H8.46246C8.32119 0.295555 8.14562 1.13997 8.03613 1.51365C7.96294 1.76337 7.90149 2.03038 7.82532 2.29042C7.52978 3.29908 7.2824 4.34162 6.98111 5.36139L5.28466 11.5305C5.21326 11.7777 5.09187 12.0618 5.08611 12.3196H5.08607Z" fill="white"/>
<path id="Vector_3" fillRule="evenodd" clip-rule="evenodd" d="M13.5645 44.8656H15.4286L15.7387 42.4233C15.8461 41.5437 15.9562 40.8491 15.9562 39.8528C16.0277 39.9561 16.0383 40.0688 16.0781 40.1893C16.3481 41.0072 16.7306 41.6623 17.1722 42.4095C17.3132 42.6482 18.4888 44.7155 18.5237 44.8655H20.3878L20.4995 43.9539C20.7166 42.438 20.8722 40.8578 21.0892 39.3212C21.1293 39.0376 21.2751 37.6181 21.3374 37.4875H19.4733L19.1716 39.9383C19.0574 40.7539 18.9457 41.5666 18.9457 42.4651C18.9266 42.4374 18.9292 42.4476 18.9084 42.3967C18.8781 42.3232 18.9011 42.3828 18.8817 42.3175L18.6952 41.7634C18.5459 41.3116 18.3038 40.9002 18.0596 40.495C17.9972 40.3914 17.9599 40.3026 17.8974 40.199C17.8335 40.0928 17.7734 39.9852 17.7166 39.8863L16.6879 38.0593C16.5823 37.884 16.4259 37.4876 16.3078 37.4876H14.5141L13.8127 43.0319C13.7726 43.3155 13.6269 44.7351 13.5645 44.8656Z" fill="white"/>
<path id="Vector_4" fillRule="evenodd" clip-rule="evenodd" d="M30.6914 44.8655H32.6259C32.6259 44.6156 32.6737 44.3869 32.7068 44.1348C32.7585 43.7418 32.9776 42.1421 32.9776 41.8649H35.5099C35.4795 41.9286 35.1231 44.6406 35.1231 44.8655H37.0223L37.972 37.4875H36.0375L35.7805 39.6301C35.7526 39.8224 35.7027 40.143 35.6858 40.347H33.1886L33.3674 38.9379C33.4092 38.5647 33.5403 37.8044 33.5403 37.4876H31.641L30.6914 44.8656L30.6914 44.8655Z" fill="white"/>
<path id="Vector_5" fillRule="evenodd" clip-rule="evenodd" d="M4.98228 39.1114C4.94364 39.2567 2.04328 43.1439 1.84659 43.4127C1.75626 43.5361 1.68965 43.6358 1.59578 43.7611L0.796875 44.8655H6.95191C6.95191 44.4357 7.12781 43.7554 7.12781 43.2417H4.06785L6.69087 39.6613C6.87193 39.4086 7.03962 39.2008 7.21223 38.9491L7.73066 38.2338C7.81905 38.1162 8.21807 37.6199 8.2533 37.4875H2.41481L2.2245 38.9983C2.21942 39.1518 2.24426 39.1127 2.66093 39.1115C3.43461 39.1092 4.20861 39.1114 4.98232 39.1114L4.98228 39.1114Z" fill="white"/>
<path id="Vector_6" fillRule="evenodd" clip-rule="evenodd" d="M8.07617 44.8655H12.3671C12.3671 44.3332 12.543 43.702 12.543 43.2064H10.1513C10.1577 42.9158 10.292 42.3785 10.292 41.9708H12.5782L12.7892 40.3823H10.5031L10.6789 39.1114C11.3803 39.1114 12.0902 39.1006 12.7904 39.1126C13.0922 39.1178 13.0885 39.1679 13.1117 38.9055L13.2817 37.4875H9.02587C8.92594 37.918 8.40013 42.3482 8.31182 43.0193L8.07621 44.8655H8.07617Z" fill="white"/>
<path id="Vector_7" fillRule="evenodd" clip-rule="evenodd" d="M25.5909 39.2526H27.033L26.3296 44.8655H28.1585C28.3091 44.8655 28.2807 44.5821 28.3238 44.2548C28.4173 43.5439 28.8728 39.6602 28.9674 39.2526H30.515C30.5205 39.0061 30.5934 38.6409 30.6234 38.373C30.6546 38.0947 30.7261 37.792 30.7261 37.4875H25.802C25.6504 37.4875 25.6369 38.1123 25.6016 38.3807C25.5774 38.5641 25.57 38.6707 25.5454 38.854C25.5297 38.9708 25.4195 39.2527 25.5909 39.2527V39.2526Z" fill="white"/>
<path id="Vector_8" fillRule="evenodd" clip-rule="evenodd" d="M21.8985 44.8656H23.833L24.5343 39.3212C24.5744 39.0376 24.7202 37.6181 24.7826 37.4875L22.8892 37.4935C22.7712 37.5376 22.8166 37.6395 22.7713 38.0106C22.544 39.8737 22.253 41.8525 22.0421 43.7036C22.0196 43.9015 21.9969 44.0828 21.9708 44.2675C21.9463 44.4404 21.8984 44.6932 21.8984 44.8656H21.8985Z" fill="white"/>
<path id="Vector_9" fillRule="evenodd" clip-rule="evenodd" d="M5.08729 12.3193L5.04688 12.3882L5.08729 12.3193Z" fill="white"/>
</g>
</g>
</g>
<defs>
<clipPath id="clip0_1085_7710">
<rect width="42.2045" height="44.866" fill="white" transform="translate(0.794922)"/>
</clipPath>
</defs>
</svg>
